<svg width="90" height="124" viewBox="0 0 90 124" fill="none" xmlns="http://www.w3.org/2000/svg">
<g clip-path="url(#clip0_184_3941)">
<mask id="mask0_184_3941" style="mask-type:luminance" maskUnits="userSpaceOnUse" x="-81" y="-52" width="250" height="250">
<path d="M169 -52H-81V198H169V-52Z" fill="white"/>
</mask>
<g mask="url(#mask0_184_3941)">
<path d="M60.3375 117.891C60.3375 118.936 54.916 119.782 48.2283 119.782C41.5406 119.782 36.1191 118.936 36.1191 117.891C36.1191 116.847 41.5406 116 48.2283 116C54.916 116 60.3375 116.847 60.3375 117.891Z" fill="#349CA1"/>
<g opacity="0.11">
<path d="M87.997 117.895C87.997 121.325 70.1919 124.106 48.2285 124.106C26.2648 124.106 8.45996 121.325 8.45996 117.895C8.45996 114.465 26.2648 111.684 48.2285 111.684C70.1919 111.684 87.997 114.465 87.997 117.895Z" fill="#349CA1"/>
</g>
<mask id="mask1_184_3941" style="mask-type:luminance" maskUnits="userSpaceOnUse" x="-81" y="-76" width="250" height="251">
<path d="M-81 -75.0703H169V174.93H-81V-75.0703Z" fill="white"/>
</mask>
<g mask="url(#mask1_184_3941)">
<mask id="mask2_184_3941" style="mask-type:luminance" maskUnits="userSpaceOnUse" x="-82" y="-77" width="252" height="251">
<path d="M-81.2109 -76.0234L168.788 -76.6125L169.377 173.387L-80.6219 173.976L-81.2109 -76.0234Z" fill="white"/>
</mask>
<g mask="url(#mask2_184_3941)">
<path d="M42.7171 13.1833L43.8582 2.29022L45.4139 2.28655L47.3425 13.2373L42.7171 13.1833Z" fill="#D4F0F1"/>
<path d="M46.5603 2.28117C46.5628 3.31941 45.7231 4.16302 44.6849 4.16547C43.6465 4.16791 42.8028 3.32827 42.8003 2.29003C42.7979 1.25178 43.6377 0.408173 44.676 0.405726C45.7143 0.40328 46.5579 1.24292 46.5603 2.28117Z" fill="#D4F0F1"/>
<path d="M45.8499 0.817467C45.9708 1.06493 46.039 1.34315 46.0397 1.63715C46.0421 2.67539 45.2026 3.519 44.1642 3.52145C43.7202 3.52249 43.312 3.3692 42.9898 3.11259C43.2959 3.73924 43.9402 4.17023 44.6844 4.16847C45.7226 4.16603 46.5623 3.32242 46.5598 2.28417C46.5584 1.68992 46.2812 1.16095 45.8499 0.817467Z" fill="#A9E6E9"/>
<path d="M43.9285 1.20406C43.0437 1.42014 43.3864 3.26909 44.4731 2.27078C45.3371 1.47712 44.4289 0.981129 43.9285 1.20406Z" fill="white"/>
</g>
<mask id="mask3_184_3941" style="mask-type:luminance" maskUnits="userSpaceOnUse" x="-81" y="-76" width="250" height="251">
<path d="M-81 -75.0703H169V174.93H-81V-75.0703Z" fill="white"/>
</mask>
<g mask="url(#mask3_184_3941)">
<path d="M71.8949 61.7853L64.1918 48.5H45.1153H44.9441H25.8676L18.1644 61.7853C18.1644 61.7853 18.4943 67.321 20.3523 72.3814C23.2086 80.1603 25.9311 83.2719 25.9311 83.2719L35.3588 86.9126L44.9441 87.7938V87.8095C44.9441 87.8095 45.0082 87.8018 45.0297 87.8018C45.0513 87.8018 45.1153 87.8095 45.1153 87.8095V87.7938L54.7004 86.9126L64.1281 83.2719C64.1281 83.2719 67.5484 78.8638 69.7069 72.3814C71.4099 67.2669 71.8949 61.7853 71.8949 61.7853Z" fill="#6FCBCF"/>
<mask id="mask4_184_3941" style="mask-type:alpha" maskUnits="userSpaceOnUse" x="18" y="48" width="54" height="40">
<path d="M71.8953 61.7853L64.1922 48.5H45.1157H44.9444H25.8679L18.1648 61.7853C18.1648 61.7853 18.4947 67.321 20.3527 72.3814C23.2089 80.1603 25.9314 83.2719 25.9314 83.2719L35.3592 86.9126L44.9444 87.7938V87.8095C44.9444 87.8095 45.0085 87.8018 45.03 87.8018C45.0517 87.8018 45.1157 87.8095 45.1157 87.8095V87.7938L54.7008 86.9126L64.1284 83.2719C64.1284 83.2719 67.5488 78.8638 69.7073 72.3814C71.4103 67.2669 71.8953 61.7853 71.8953 61.7853Z" fill="#6FCBCF"/>
</mask>
<g mask="url(#mask4_184_3941)">
<path d="M71.4796 61.7853L63.7765 48.5H44.7H44.5288H25.4523L17.7491 61.7853C17.7491 61.7853 18.079 67.321 19.937 72.3814C22.7933 80.1603 25.5158 83.2719 25.5158 83.2719L34.9435 86.9126L44.5288 87.7938V87.8095C44.5288 87.8095 44.5929 87.8018 44.6144 87.8018C44.636 87.8018 44.7 87.8095 44.7 87.8095V87.7938L54.2851 86.9126L63.7128 83.2719C63.7128 83.2719 67.1331 78.8638 69.2916 72.3814C70.9946 67.2669 71.4796 61.7853 71.4796 61.7853Z" fill="#D4F0F1"/>
</g>
<path d="M18.1643 61.7852H71.8946L69.8002 65.7692L18.1643 61.7852Z" fill="#A9E6E9"/>
<mask id="mask5_184_3941" style="mask-type:alpha" maskUnits="userSpaceOnUse" x="18" y="48" width="54" height="40">
<path d="M71.8953 61.7853L64.1922 48.5H45.1157H44.9444H25.8679L18.1648 61.7853C18.1648 61.7853 18.4947 67.321 20.3527 72.3814C23.2089 80.1603 25.9314 83.2719 25.9314 83.2719L35.3592 86.9126L44.9444 87.7938V87.8095C44.9444 87.8095 45.0085 87.8018 45.03 87.8018C45.0517 87.8018 45.1157 87.8095 45.1157 87.8095V87.7938L54.7008 86.9126L64.1284 83.2719C64.1284 83.2719 67.5488 78.8638 69.7073 72.3814C71.4103 67.2669 71.8953 61.7853 71.8953 61.7853Z" fill="#6FCBCF"/>
</mask>
<g mask="url(#mask5_184_3941)">
<mask id="mask6_184_3941" style="mask-type:luminance" maskUnits="userSpaceOnUse" x="-83" y="-76" width="251" height="251">
<path d="M-82.0321 -75.0703H167.968V174.93H-82.0321V-75.0703Z" fill="white"/>
</mask>
<g mask="url(#mask6_184_3941)">
<g opacity="0.45">
<path d="M27.9183 70.5958C27.7655 68.6684 29.0816 66.0103 26.8811 64.9926C25.7508 64.4697 23.8408 64.2551 22.9663 65.3779C22.6443 65.7912 22.4818 66.3121 22.4515 66.8522C22.1363 68.2276 22.8765 70.2387 23.2221 71.4708C23.629 72.9216 25.0406 78.0242 27.6398 76.6348C29.4115 75.6877 28.0315 72.0234 27.9183 70.5958Z" fill="white"/>
<path d="M30.7445 51.2741C29.5756 49.6067 27.9313 50.1622 26.7611 51.3723C24.1568 52.9576 21.392 59.4339 25.3286 60.0674C27.5982 60.4327 28.2937 57.6668 29.0626 56.1718C29.7678 54.8007 31.892 52.9111 30.7445 51.2741Z" fill="white"/>
</g>
</g>
</g>
</g>
<mask id="mask7_184_3941" style="mask-type:luminance" maskUnits="userSpaceOnUse" x="-81" y="-76" width="250" height="251">
<path d="M-81 -75.0703H169V174.93H-81V-75.0703Z" fill="white"/>
</mask>
<g mask="url(#mask7_184_3941)">
<mask id="mask8_184_3941" style="mask-type:luminance" maskUnits="userSpaceOnUse" x="-81" y="-76" width="250" height="251">
<path d="M-81 -75.0703H169V174.93H-81V-75.0703Z" fill="white"/>
</mask>
<g mask="url(#mask8_184_3941)">
<path d="M64.6067 22.5944C58.9022 14.2969 45.0296 14.2969 45.0296 14.2969C45.0296 14.2969 31.1572 14.2969 25.4527 22.5944C20.2171 30.2099 20.2666 40.6156 20.2666 40.6156L25.3229 47.0981H45.0296H64.7364L69.7926 40.6156C69.7926 40.6156 69.8425 30.2099 64.6067 22.5944Z" fill="#6FCBCF"/>
<mask id="mask9_184_3941" style="mask-type:alpha" maskUnits="userSpaceOnUse" x="20" y="14" width="50" height="34">
<path d="M64.6067 22.5944C58.9022 14.2969 45.0296 14.2969 45.0296 14.2969C45.0296 14.2969 31.1572 14.2969 25.4527 22.5944C20.2171 30.2099 20.2666 40.6156 20.2666 40.6156L25.3229 47.0981H45.0296H64.7364L69.7926 40.6156C69.7926 40.6156 69.8425 30.2099 64.6067 22.5944Z" fill="#D4F0F1"/>
</mask>
<g mask="url(#mask9_184_3941)">
<path d="M64.5442 18.2194C58.8397 9.92188 44.9671 9.92188 44.9671 9.92188C44.9671 9.92188 31.0947 9.92188 25.3902 18.2194C20.1546 25.8349 20.2041 36.2406 20.2041 36.2406L25.2604 42.7231H44.9671H64.6739L69.7301 36.2406C69.7301 36.2406 69.78 25.8349 64.5442 18.2194Z" fill="#D4F0F1"/>
</g>
</g>
<mask id="mask10_184_3941" style="mask-type:alpha" maskUnits="userSpaceOnUse" x="20" y="14" width="50" height="34">
<path d="M64.6067 22.5944C58.9022 14.2969 45.0296 14.2969 45.0296 14.2969C45.0296 14.2969 31.1572 14.2969 25.4527 22.5944C20.2171 30.2099 20.2666 40.6156 20.2666 40.6156L25.3229 47.0981H45.0296H64.7364L69.7926 40.6156C69.7926 40.6156 69.8425 30.2099 64.6067 22.5944Z" fill="#D4F0F1"/>
</mask>
<g mask="url(#mask10_184_3941)">
<mask id="mask11_184_3941" style="mask-type:luminance" maskUnits="userSpaceOnUse" x="-83" y="-76" width="251" height="251">
<path d="M-82.0576 -75.0703H167.942V174.93H-82.0576V-75.0703Z" fill="white"/>
</mask>
<g mask="url(#mask11_184_3941)">
<path d="M56.548 24.28C51.2324 20.2608 36.7116 20.2608 31.396 24.28C25.625 28.6433 25.8211 39.0601 25.8211 39.0601H43.9719H62.1229C62.1229 39.0601 62.3189 28.6433 56.548 24.28Z" fill="#E36256"/>
<mask id="mask12_184_3941" style="mask-type:alpha" maskUnits="userSpaceOnUse" x="25" y="21" width="38" height="19">
<path d="M56.548 24.28C51.2324 20.2608 36.7116 20.2608 31.396 24.28C25.625 28.6433 25.8211 39.0601 25.8211 39.0601H43.9719H62.1229C62.1229 39.0601 62.3189 28.6433 56.548 24.28Z" fill="#B978B1"/>
</mask>
<g mask="url(#mask12_184_3941)">
<path d="M56.548 26.6589C51.2324 22.6398 36.7116 22.6398 31.396 26.6589C25.625 31.0222 25.8211 41.439 25.8211 41.439H43.9719H62.1229C62.1229 41.439 62.3189 31.0222 56.548 26.6589Z" fill="#B978B1"/>
</g>
</g>
</g>
<mask id="mask13_184_3941" style="mask-type:luminance" maskUnits="userSpaceOnUse" x="-81" y="-76" width="250" height="251">
<path d="M-81 -75.0703H169V174.93H-81V-75.0703Z" fill="white"/>
</mask>
<g mask="url(#mask13_184_3941)">
<path d="M50.1507 15.8558C50.1507 16.2855 49.8023 16.6337 49.3726 16.6337H40.6862C40.2566 16.6337 39.9082 16.2855 39.9082 15.8558V13.1333C39.9082 12.7037 40.2566 12.3555 40.6862 12.3555H49.3726C49.8023 12.3555 50.1507 12.7037 50.1507 13.1333V15.8558Z" fill="#D4F0F1"/>
<mask id="mask14_184_3941" style="mask-type:alpha" maskUnits="userSpaceOnUse" x="39" y="12" width="12" height="5">
<path d="M50.1214 15.8558C50.1214 16.2855 49.773 16.6337 49.3433 16.6337H40.6569C40.2273 16.6337 39.8789 16.2855 39.8789 15.8558V13.1333C39.8789 12.7037 40.2273 12.3555 40.6569 12.3555H49.3433C49.773 12.3555 50.1214 12.7037 50.1214 13.1333V15.8558Z" fill="#D4F0F1"/>
</mask>
<g mask="url(#mask14_184_3941)">
<path d="M60.3089 14.2113C60.3089 14.6409 59.9605 14.9892 59.5308 14.9892H50.8444C50.4148 14.9892 50.0664 14.6409 50.0664 14.2113V11.4888C50.0664 11.0592 50.4148 10.7109 50.8444 10.7109H59.5308C59.9605 10.7109 60.3089 11.0592 60.3089 11.4888V14.2113Z" fill="#6FCBCF"/>
</g>
</g>
<mask id="mask15_184_3941" style="mask-type:luminance" maskUnits="userSpaceOnUse" x="-83" y="-77" width="251" height="251">
<path d="M-82.0576 -76.8203H167.942V173.18H-82.0576V-76.8203Z" fill="white"/>
</mask>
<g mask="url(#mask15_184_3941)">
<path d="M49.1015 31.5626C48.9347 31.5576 48.794 31.69 48.789 31.8576C48.7884 31.8761 48.734 33.239 47.8674 33.954C47.0394 34.6371 45.5382 34.8658 44.8094 34.8636C44.1285 34.8934 42.5793 34.6371 41.7513 33.954C40.8847 33.239 40.8304 31.8761 40.8298 31.8576C40.8248 31.69 40.684 31.5576 40.5173 31.5626C40.3494 31.5674 40.2172 31.7073 40.2218 31.8751C40.2238 31.9423 40.2803 33.5288 41.3643 34.423C42.4708 35.336 43.8983 35.4749 44.6649 35.4749C45.5797 35.4749 47.148 35.336 48.2545 34.423C49.3385 33.5288 49.3949 31.9423 49.3968 31.8751C49.4014 31.7073 49.2694 31.5674 49.1015 31.5626Z" fill="#3BE3EC"/>
<path d="M39.2928 27.9535C39.2928 28.9439 38.4899 29.7469 37.4994 29.7469C36.5089 29.7469 35.7061 28.9439 35.7061 27.9535C35.7061 26.963 36.5089 26.1602 37.4994 26.1602C38.4899 26.1602 39.2928 26.963 39.2928 27.9535Z" fill="#3BE3EC"/>
<path d="M53.2723 27.266C53.2723 28.2564 52.4694 29.0594 51.4789 29.0594C50.4884 29.0594 49.6855 28.2564 49.6855 27.266C49.6855 26.2755 50.4884 25.4727 51.4789 25.4727C52.4694 25.4727 53.2723 26.2755 53.2723 27.266Z" fill="#3BE3EC"/>
</g>
</g>
<mask id="mask16_184_3941" style="mask-type:luminance" maskUnits="userSpaceOnUse" x="-81" y="-76" width="251" height="251">
<path d="M-80.9902 -75.0703H169.01V174.93H-80.9902V-75.0703Z" fill="white"/>
</mask>
<g mask="url(#mask16_184_3941)">
<path d="M24.4044 48.499C24.4044 48.499 3.43566 45.1135 0.854915 46.1868C-1.72596 47.2602 1.26604 51.8634 7.53591 55.6428C13.6199 59.3102 17.1627 60.3094 17.1627 60.3094L24.4044 48.499Z" fill="#D4F0F1"/>
<path d="M0.854827 46.1862C1.1127 46.0789 1.51433 46.0169 2.02758 45.9922C2.8672 47.9277 5.4842 50.5666 9.34445 52.8934C13.5213 55.4113 16.6927 56.8604 19.5966 56.3396L17.1628 60.3087C17.1628 60.3087 13.62 59.3096 7.53595 55.6422C1.2662 51.8628 -1.72592 47.2596 0.854827 46.1862Z" fill="#A9E6E9"/>
<path d="M10.4452 48.5245C9.85067 47.5793 7.74404 47.0126 6.75304 47.066C6.24354 47.0935 5.90617 47.2682 5.71429 47.5086C5.24729 47.8023 5.29167 48.1806 5.63117 48.5601C5.79404 48.8982 6.12467 49.186 6.58029 49.2807L6.57854 49.2632C8.51492 50.3373 11.9488 50.9151 10.4452 48.5245Z" fill="white"/>
</g>
<mask id="mask17_184_3941" style="mask-type:luminance" maskUnits="userSpaceOnUse" x="-80" y="-76" width="251" height="251">
<path d="M170.985 -75.0703H-79.0146V174.93H170.985V-75.0703Z" fill="white"/>
</mask>
<g mask="url(#mask17_184_3941)">
<path d="M65.5907 48.499C65.5907 48.499 86.5595 45.1135 89.1402 46.1868C91.7211 47.2602 88.7291 51.8634 82.4592 55.6428C76.3752 59.3102 72.8325 60.3094 72.8325 60.3094L65.5907 48.499Z" fill="#D4F0F1"/>
<path d="M89.1403 46.1862C88.8824 46.0789 88.4808 46.0169 87.9675 45.9922C87.1279 47.9277 84.5109 50.5666 80.6507 52.8934C76.4738 55.4113 73.3024 56.8604 70.3985 56.3396L72.8323 60.3087C72.8323 60.3087 76.3752 59.3096 82.4592 55.6422C88.7289 51.8628 91.721 47.2596 89.1403 46.1862Z" fill="#A9E6E9"/>
<path d="M79.55 48.5245C80.1445 47.5793 82.2511 47.0126 83.2421 47.066C83.7516 47.0935 84.089 47.2682 84.2808 47.5086C84.7478 47.8023 84.7035 48.1806 84.364 48.5601C84.2011 48.8982 83.8705 49.186 83.4148 49.2807L83.4166 49.2632C81.4802 50.3373 78.0463 50.9151 79.55 48.5245Z" fill="white"/>
</g>
</g>
</g>
<mask id="mask18_184_3941" style="mask-type:luminance" maskUnits="userSpaceOnUse" x="-82" y="-72" width="250" height="251">
<path d="M-82 -71.002H168V178.998H-82V-71.002Z" fill="white"/>
</mask>
<g mask="url(#mask18_184_3941)">
<g opacity="0.0315625">
<path d="M81.3618 12.4292L83.0471 12.1687L83.7879 10.6328L84.5567 12.1551L86.2463 12.3851L85.0361 13.5864L85.3394 15.2647L83.8229 14.4847L82.3208 15.2918L82.5937 13.6087L81.3618 12.4292Z" fill="#E7E62A"/>
</g>
<g opacity="0.531563">
<path d="M82.6333 24.2752L85.1268 23.8897L86.2229 21.6172L87.3601 23.8696L89.8601 24.2097L88.0693 25.9872L88.5184 28.4701L86.2746 27.3162L84.0521 28.5104L84.4559 26.0199L82.6333 24.2752Z" fill="#E7E62A"/>
</g>
<g opacity="0.781563">
<path d="M66.228 20.6176L68.2229 19.073L68.0814 16.5537L70.167 17.974L72.5192 17.0608L71.8132 19.4832L73.4083 21.4378L70.8864 21.5151L69.5202 23.6362L68.6675 21.2615L66.228 20.6176Z" fill="#E7E62A"/>
</g>
<path d="M54.3602 7.57286L55.0637 5.07587L53.4055 3.08101L55.9977 2.97832L57.3828 0.785156L58.2812 3.21852L60.7953 3.85816L58.7586 5.46464L58.9272 8.05313L56.77 6.61257L54.3602 7.57286Z" fill="#E7E62A"/>
<path d="M23.4332 16.6799L22.6731 14.7084L20.6179 14.2168L22.2582 12.8847L22.0908 10.7783L23.8646 11.9266L25.816 11.1164L25.2719 13.1581L26.6456 14.7637L24.5357 14.8773L23.4332 16.6799Z" fill="#E7E62A"/>
<path d="M13.5942 33.0675L11.441 31.6207L9.02843 32.5739L9.73939 30.0791L8.08716 28.0792L10.6796 27.9842L12.0711 25.7949L12.9624 28.2311L15.4747 28.8779L13.433 30.4784L13.5942 33.0675Z" fill="#E7E62A"/>
</g>
</g>
<defs>
<clipPath id="clip0_184_3941">
<rect width="90" height="124" fill="white"/>
</clipPath>
</defs>
</svg>
