<svg width="196" height="66" viewBox="0 0 196 66" fill="none" xmlns="http://www.w3.org/2000/svg">
<path d="M65.0142 25.0848H68.2536V35.1621C68.1208 35.1955 67.9131 35.2371 67.6307 35.2871C67.3482 35.3371 67.0576 35.3621 66.7585 35.3621C66.1272 35.3621 65.6787 35.2454 65.4129 35.012C65.1471 34.7787 65.0142 34.3869 65.0142 33.8367V25.0848ZM68.2536 28.8857H65.0142V20.0086C65.1637 19.9753 65.3797 19.9336 65.6621 19.8836C65.9445 19.8335 66.2269 19.8086 66.5093 19.8086C67.124 19.8086 67.5642 19.917 67.83 20.1337C68.1124 20.3504 68.2536 20.7504 68.2536 21.3339V28.8857Z" fill="#4B371C"/>
<path d="M73.0923 23.5094L75.9828 23.4344C76.0492 24.0845 76.0991 24.7597 76.1323 25.4599C76.1656 26.1601 76.1905 26.8519 76.2071 27.5353C76.2237 28.2189 76.232 28.8773 76.232 29.5108V35.1621C76.0991 35.1955 75.8915 35.2371 75.609 35.2871C75.3432 35.3371 75.0608 35.3621 74.7618 35.3621C74.1637 35.3621 73.7318 35.2538 73.4661 35.0371C73.2168 34.8037 73.0923 34.4202 73.0923 33.8868V23.5094ZM85.9502 31.6363L83.0597 31.7113C82.9268 30.4277 82.852 29.1773 82.8353 27.9604C82.8188 26.7435 82.8105 25.5849 82.8105 24.4846V19.9836C82.9433 19.9502 83.1427 19.917 83.4086 19.8836C83.6909 19.8335 83.9733 19.8086 84.2558 19.8086C84.8704 19.8086 85.3023 19.917 85.5515 20.1337C85.8173 20.3504 85.9502 20.7338 85.9502 21.2839V31.6363ZM85.9502 30.561V28.8857V34.7869C85.7675 34.9537 85.5016 35.0871 85.1529 35.1871C84.8205 35.3038 84.4219 35.3621 83.9568 35.3621C83.4583 35.3621 82.9932 35.2788 82.5612 35.112C82.146 34.9287 81.7888 34.562 81.4898 34.0118L77.9513 27.5353C77.7354 27.1353 77.5194 26.7268 77.3034 26.3101C77.0875 25.8933 76.8799 25.4849 76.6806 25.0848C76.4812 24.668 76.3068 24.2762 76.1572 23.9095L73.0923 24.6097V20.5587C73.275 20.3254 73.5491 20.1419 73.9146 20.0086C74.28 19.8753 74.6705 19.8086 75.0857 19.8086C75.6007 19.8086 76.0659 19.9002 76.4812 20.0836C76.9131 20.267 77.2702 20.6338 77.5527 21.1839L81.1409 27.6603C81.3569 28.0438 81.5646 28.4522 81.7639 28.8857C81.9798 29.3024 82.1875 29.7191 82.3869 30.1359C82.5862 30.5361 82.7607 30.9194 82.9101 31.2862L85.9502 30.561Z" fill="#4B371C"/>
<path d="M93.972 28.9868L90.7825 28.9618V21.7602C90.7825 21.2267 90.9319 20.8017 91.231 20.4849C91.5466 20.1682 91.9702 20.0098 92.5018 20.0098C92.8009 20.0098 93.0915 20.0348 93.374 20.0848C93.6564 20.1349 93.8558 20.1848 93.972 20.2349V28.9868ZM92.4769 29.237V26.6364H99.9275C100.011 26.7696 100.085 26.9447 100.152 27.1614C100.235 27.3781 100.276 27.6199 100.276 27.8866C100.276 28.3367 100.168 28.6784 99.9524 28.9119C99.7531 29.1286 99.479 29.237 99.1301 29.237H92.4769ZM92.5018 22.6604V20.0098H100.8C100.883 20.1431 100.958 20.3266 101.024 20.5599C101.09 20.7766 101.124 21.0184 101.124 21.2851C101.124 21.7352 101.016 22.0769 100.8 22.3103C100.6 22.5437 100.326 22.6604 99.9774 22.6604H92.5018ZM90.7825 27.1115H94.0219V35.1633C93.889 35.1967 93.6813 35.2383 93.3989 35.2883C93.1164 35.3383 92.8258 35.3633 92.5268 35.3633C91.8955 35.3633 91.4469 35.2466 91.1811 35.0132C90.9154 34.7799 90.7825 34.3881 90.7825 33.8379V27.1115Z" fill="#4B371C"/>
<path d="M104.847 25.1848H108.086V35.012L106.566 35.2371C106.051 35.2371 105.636 35.0787 105.32 34.762C105.005 34.4452 104.847 34.0202 104.847 33.4867V25.1848ZM106.566 35.2371V32.5615H114.49C114.59 32.6782 114.673 32.8532 114.739 33.0866C114.822 33.32 114.864 33.5701 114.864 33.8367C114.864 34.2869 114.756 34.6369 114.54 34.887C114.34 35.1204 114.058 35.2371 113.693 35.2371H106.566ZM108.086 28.9107H104.847V20.0086C104.979 19.9753 105.187 19.9336 105.469 19.8836C105.769 19.8335 106.059 19.8086 106.342 19.8086C106.94 19.8086 107.38 19.917 107.663 20.1337C107.945 20.3504 108.086 20.7504 108.086 21.3339V28.9107Z" fill="#4B371C"/>
<path d="M118.473 25.0359H121.637V35.0132C121.505 35.0466 121.305 35.0966 121.04 35.1633C120.774 35.2133 120.492 35.2383 120.193 35.2383C119.661 35.2383 119.237 35.0799 118.922 34.7632C118.623 34.4464 118.473 34.0214 118.473 33.4879V25.0359ZM121.637 30.1121H118.473V21.7602C118.473 21.2267 118.623 20.8017 118.922 20.4849C119.237 20.1682 119.661 20.0098 120.193 20.0098C120.492 20.0098 120.774 20.0348 121.04 20.0848C121.305 20.1349 121.505 20.1848 121.637 20.2349V30.1121ZM120.193 28.7368V26.1362H127.718C127.801 26.2696 127.876 26.4446 127.942 26.6613C128.008 26.878 128.042 27.1197 128.042 27.3865C128.042 27.8366 127.942 28.1783 127.743 28.4118C127.544 28.6285 127.261 28.7368 126.896 28.7368H120.193ZM120.193 35.2383V32.6127H128.54C128.639 32.7461 128.723 32.9294 128.789 33.1628C128.856 33.3795 128.889 33.6212 128.889 33.888C128.889 34.3381 128.789 34.6798 128.59 34.9133C128.39 35.13 128.108 35.2383 127.743 35.2383H120.193ZM120.193 22.6104V20.0098H128.44C128.524 20.1431 128.598 20.3182 128.665 20.5349C128.748 20.7516 128.789 20.9934 128.789 21.2601C128.789 21.7102 128.682 22.0519 128.465 22.2853C128.266 22.502 127.992 22.6104 127.643 22.6104H120.193Z" fill="#4B371C"/>
<path d="M144.243 21.9599C144.243 22.2767 144.152 22.5683 143.97 22.8351C143.786 23.0851 143.579 23.2769 143.346 23.4102C142.931 23.1101 142.45 22.8435 141.901 22.61C141.37 22.3766 140.713 22.26 139.932 22.26C139.002 22.26 138.189 22.4684 137.491 22.8851C136.81 23.3018 136.27 23.9103 135.871 24.7105C135.489 25.494 135.298 26.461 135.298 27.6112C135.298 29.3616 135.73 30.6869 136.593 31.5871C137.458 32.4706 138.62 32.9124 140.082 32.9124C140.846 32.9124 141.502 32.8041 142.051 32.5873C142.615 32.3706 143.114 32.1289 143.545 31.8621C143.779 32.0123 143.97 32.2122 144.119 32.4623C144.269 32.7123 144.343 33.0124 144.343 33.3625C144.343 33.6293 144.269 33.8876 144.119 34.1376C143.97 34.3711 143.72 34.5795 143.371 34.7629C143.039 34.9628 142.565 35.1463 141.951 35.3129C141.353 35.4964 140.605 35.5881 139.709 35.5881C138.263 35.5881 136.951 35.2963 135.771 34.7128C134.608 34.1294 133.678 33.2541 132.98 32.0872C132.299 30.9036 131.959 29.4117 131.959 27.6112C131.959 25.8775 132.299 24.4188 132.98 23.2352C133.678 22.0349 134.6 21.1347 135.746 20.5346C136.892 19.9178 138.155 19.6094 139.534 19.6094C140.497 19.6094 141.328 19.7177 142.025 19.9344C142.74 20.1512 143.289 20.4428 143.67 20.8096C144.052 21.1597 144.243 21.5432 144.243 21.9599Z" fill="#4B371C"/>
<path d="M152.137 22.6604L152.087 20.0098H159.189C159.271 20.1431 159.347 20.3266 159.413 20.5599C159.496 20.7766 159.538 21.0184 159.538 21.2851C159.538 21.7352 159.43 22.0769 159.214 22.3103C159.015 22.5437 158.732 22.6604 158.367 22.6604H152.137ZM154.554 20.0098L154.629 22.6604H147.502C147.419 22.527 147.336 22.3437 147.253 22.1102C147.186 21.8769 147.153 21.6351 147.153 21.3851C147.153 20.9183 147.253 20.5766 147.453 20.3599C147.668 20.1265 147.959 20.0098 148.325 20.0098H154.554ZM151.688 21.9852H154.928V35.1633C154.795 35.1967 154.587 35.2383 154.305 35.2883C154.023 35.3383 153.731 35.3633 153.433 35.3633C152.818 35.3633 152.369 35.2466 152.087 35.0132C151.821 34.7799 151.688 34.3881 151.688 33.8379V21.9852Z" fill="#4B371C"/>
<path d="M176.673 27.5862C176.673 29.3199 176.341 30.7869 175.677 31.9872C175.012 33.1708 174.107 34.0711 172.961 34.6878C171.831 35.2879 170.543 35.5881 169.098 35.5881C167.653 35.5881 166.357 35.2879 165.211 34.6878C164.065 34.0711 163.159 33.1708 162.495 31.9872C161.847 30.7869 161.523 29.3199 161.523 27.5862C161.523 25.8525 161.856 24.3938 162.52 23.2102C163.201 22.0266 164.106 21.1347 165.236 20.5346C166.382 19.9178 167.67 19.6094 169.098 19.6094C170.51 19.6094 171.789 19.9178 172.936 20.5346C174.082 21.1347 174.988 22.0266 175.652 23.2102C176.333 24.3938 176.673 25.8525 176.673 27.5862ZM173.334 27.5862C173.334 25.8691 172.952 24.5522 172.188 23.6353C171.424 22.7184 170.394 22.26 169.098 22.26C167.819 22.26 166.789 22.7184 166.008 23.6353C165.245 24.5355 164.862 25.8525 164.862 27.5862C164.862 29.3199 165.245 30.6453 166.008 31.5621C166.789 32.4623 167.819 32.9124 169.098 32.9124C170.394 32.9124 171.424 32.4623 172.188 31.5621C172.952 30.6453 173.334 29.3199 173.334 27.5862Z" fill="#4B371C"/>
<path d="M66.3177 42.2362L66.3047 41.5449H68.157C68.1786 41.5797 68.1981 41.6275 68.2155 41.6883C68.2371 41.7449 68.248 41.8079 68.248 41.8775C68.248 41.9949 68.2198 42.0841 68.1635 42.1449C68.1115 42.2058 68.0379 42.2362 67.9425 42.2362H66.3177ZM66.9481 41.5449L66.9676 42.2362H65.1088C65.0871 42.2015 65.0655 42.1536 65.0438 42.0927C65.0265 42.0318 65.0178 41.9688 65.0178 41.9036C65.0178 41.7818 65.0438 41.6928 65.0958 41.6362C65.1522 41.5754 65.2279 41.5449 65.3233 41.5449H66.9481ZM66.2007 42.0601H67.0456V45.4973C67.0109 45.506 66.9568 45.5168 66.8832 45.5299C66.8095 45.5429 66.7336 45.5494 66.6557 45.5494C66.4954 45.5494 66.3784 45.519 66.3047 45.4581C66.2354 45.3973 66.2007 45.2951 66.2007 45.1516V42.0601Z" fill="#4B371C"/>
<path d="M74.6611 42.8559H75.4863V45.4581C75.451 45.4669 75.3991 45.4799 75.3305 45.4973C75.2609 45.5103 75.1874 45.5168 75.109 45.5168C74.9708 45.5168 74.8601 45.4756 74.7777 45.3929C74.6993 45.3104 74.6611 45.1994 74.6611 45.0604V42.8559ZM75.4863 44.1798H74.6611V42.0014C74.6611 41.8623 74.6993 41.7514 74.7777 41.6688C74.8601 41.5862 74.9708 41.5449 75.109 41.5449C75.1874 41.5449 75.2609 41.5514 75.3305 41.5644C75.3991 41.5775 75.451 41.5905 75.4863 41.6036V44.1798ZM75.109 43.8211V43.1428H77.0719C77.0935 43.1776 77.1131 43.2233 77.1307 43.2797C77.1474 43.3363 77.1562 43.3993 77.1562 43.469C77.1562 43.5863 77.1307 43.6754 77.0788 43.7363C77.0268 43.7929 76.9524 43.8211 76.8573 43.8211H75.109ZM75.109 45.5168V44.832H77.2865C77.312 44.8668 77.3346 44.9147 77.3512 44.9755C77.3689 45.0321 77.3777 45.0951 77.3777 45.1647C77.3777 45.2821 77.3512 45.3712 77.2993 45.432C77.2473 45.4886 77.1738 45.5168 77.0788 45.5168H75.109ZM75.109 42.2232V41.5449H77.2601C77.2817 41.5797 77.3013 41.6253 77.3189 41.6818C77.3405 41.7384 77.3512 41.8014 77.3512 41.871C77.3512 41.9884 77.3228 42.0776 77.2669 42.1384C77.215 42.195 77.1435 42.2232 77.0523 42.2232H75.109Z" fill="#4B371C"/>
<path d="M87.6647 42.0526C87.6647 42.1352 87.6412 42.2113 87.5931 42.2808C87.5461 42.3461 87.4912 42.3961 87.4314 42.4308C87.3227 42.3526 87.1972 42.283 87.0541 42.2222C86.915 42.1613 86.7445 42.1309 86.5406 42.1309C86.2976 42.1309 86.0859 42.1852 85.9036 42.2939C85.7262 42.4026 85.5851 42.5613 85.4812 42.77C85.3813 42.9744 85.3313 43.2266 85.3313 43.5265C85.3313 43.9831 85.444 44.3288 85.6694 44.5636C85.8948 44.794 86.1986 44.9093 86.5798 44.9093C86.7788 44.9093 86.9503 44.881 87.0933 44.8245C87.2403 44.7679 87.3707 44.7049 87.4834 44.6353C87.5432 44.6744 87.5931 44.7266 87.6323 44.7919C87.6715 44.8571 87.6911 44.9354 87.6911 45.0267C87.6911 45.0962 87.6715 45.1636 87.6323 45.2288C87.5931 45.2897 87.5285 45.3441 87.4373 45.3919C87.3511 45.4441 87.2276 45.4919 87.0669 45.5354C86.9111 45.5832 86.716 45.6071 86.4818 45.6071C86.1055 45.6071 85.7625 45.5311 85.4548 45.3789C85.152 45.2267 84.9089 44.9984 84.7276 44.694C84.5493 44.3853 84.4611 43.9961 84.4611 43.5265C84.4611 43.0744 84.5493 42.6939 84.7276 42.3852C84.9089 42.0722 85.15 41.8373 85.4489 41.6808C85.7478 41.5199 86.0771 41.4395 86.4367 41.4395C86.6876 41.4395 86.9042 41.4677 87.0865 41.5243C87.2727 41.5808 87.4158 41.6569 87.5157 41.7525C87.6147 41.8438 87.6647 41.9439 87.6647 42.0526Z" fill="#4B371C"/>
<path d="M94.2611 42.8683H95.1068V45.4968C95.0676 45.5055 95.0108 45.5163 94.9373 45.5294C94.8677 45.5424 94.7942 45.5489 94.7168 45.5489C94.5522 45.5489 94.4346 45.5185 94.366 45.4576C94.2964 45.3967 94.2611 45.2946 94.2611 45.1511V42.8683ZM95.1068 43.8662H94.2611V41.5444C94.2964 41.5357 94.3503 41.5248 94.4238 41.5118C94.5022 41.4987 94.5777 41.4922 94.6512 41.4922C94.807 41.4922 94.9226 41.5205 94.9961 41.577C95.0696 41.6335 95.1068 41.7379 95.1068 41.8901V43.8662ZM96.7248 42.8683H97.5765V45.4968C97.5373 45.5055 97.4804 45.5163 97.4069 45.5294C97.3383 45.5424 97.2619 45.5489 97.1796 45.5489C97.0198 45.5489 96.9022 45.5185 96.8287 45.4576C96.7591 45.3967 96.7248 45.2946 96.7248 45.1511V42.8683ZM97.5765 43.8662H96.7248V41.5444C96.764 41.5357 96.8199 41.5248 96.8934 41.5118C96.9718 41.4987 97.0472 41.4922 97.1207 41.4922C97.2775 41.4922 97.3922 41.5226 97.4657 41.5835C97.5392 41.64 97.5765 41.7444 97.5765 41.8966V43.8662ZM97.206 43.8532H94.6649V43.1684H97.206V43.8532Z" fill="#4B371C"/>
<path d="M104.061 42.4575L104.816 42.4379C104.832 42.6075 104.846 42.7836 104.854 42.9662C104.863 43.1488 104.87 43.3293 104.873 43.5076C104.878 43.6858 104.88 43.8575 104.88 44.0227V45.4968C104.846 45.5055 104.791 45.5163 104.718 45.5294C104.648 45.5424 104.575 45.5489 104.497 45.5489C104.34 45.5489 104.228 45.5206 104.159 45.4642C104.093 45.4033 104.061 45.3032 104.061 45.1642V42.4575ZM107.415 44.5771L106.661 44.5967C106.627 44.2619 106.607 43.9359 106.602 43.6184C106.598 43.301 106.596 42.9988 106.596 42.7118V41.5379C106.631 41.5291 106.683 41.5205 106.752 41.5118C106.826 41.4987 106.899 41.4922 106.973 41.4922C107.133 41.4922 107.246 41.5205 107.311 41.577C107.38 41.6335 107.415 41.7335 107.415 41.877V44.5771ZM107.415 44.2967V43.8597V45.3989C107.368 45.4424 107.298 45.4772 107.207 45.5033C107.121 45.5338 107.017 45.5489 106.895 45.5489C106.765 45.5489 106.643 45.5273 106.531 45.4837C106.423 45.4359 106.33 45.3403 106.251 45.1968L105.329 43.5076C105.272 43.4031 105.216 43.2966 105.16 43.188C105.104 43.0792 105.049 42.9728 104.997 42.8683C104.945 42.7597 104.9 42.6574 104.861 42.5618L104.061 42.7444V41.6878C104.109 41.6269 104.181 41.5792 104.276 41.5444C104.371 41.5096 104.473 41.4922 104.581 41.4922C104.716 41.4922 104.837 41.5161 104.945 41.5639C105.058 41.6118 105.151 41.7074 105.224 41.851L106.16 43.5402C106.217 43.6401 106.271 43.7466 106.323 43.8597C106.38 43.9685 106.434 44.0771 106.486 44.1859C106.537 44.2902 106.583 44.3902 106.622 44.4858L107.415 44.2967Z" fill="#4B371C"/>
<path d="M117.812 43.52C117.812 43.9723 117.725 44.3549 117.553 44.6679C117.379 44.9767 117.143 45.2114 116.844 45.3724C116.549 45.5289 116.213 45.6071 115.837 45.6071C115.459 45.6071 115.121 45.5289 114.822 45.3724C114.524 45.2114 114.287 44.9767 114.114 44.6679C113.945 44.3549 113.861 43.9723 113.861 43.52C113.861 43.0679 113.947 42.6873 114.121 42.3787C114.298 42.07 114.534 41.8373 114.829 41.6808C115.128 41.5199 115.463 41.4395 115.837 41.4395C116.205 41.4395 116.538 41.5199 116.837 41.6808C117.136 41.8373 117.372 42.07 117.546 42.3787C117.723 42.6873 117.812 43.0679 117.812 43.52ZM116.941 43.52C116.941 43.0722 116.841 42.7287 116.642 42.4895C116.443 42.2504 116.175 42.1309 115.837 42.1309C115.503 42.1309 115.234 42.2504 115.03 42.4895C114.831 42.7244 114.731 43.0679 114.731 43.52C114.731 43.9723 114.831 44.3179 115.03 44.557C115.234 44.7919 115.503 44.9093 115.837 44.9093C116.175 44.9093 116.443 44.7919 116.642 44.557C116.841 44.3179 116.941 43.9723 116.941 43.52Z" fill="#4B371C"/>
<path d="M124.641 42.8944H125.486V45.4576L125.089 45.5163C124.955 45.5163 124.847 45.475 124.765 45.3924C124.682 45.3098 124.641 45.1989 124.641 45.0598V42.8944ZM125.089 45.5163V44.8185H127.156C127.182 44.8489 127.204 44.8945 127.22 44.9554C127.243 45.0163 127.254 45.0815 127.254 45.1511C127.254 45.2685 127.225 45.3598 127.169 45.425C127.117 45.4859 127.043 45.5163 126.948 45.5163H125.089ZM125.486 43.8662H124.641V41.5444C124.675 41.5357 124.729 41.5248 124.803 41.5118C124.881 41.4987 124.957 41.4922 125.03 41.4922C125.187 41.4922 125.302 41.5205 125.375 41.577C125.449 41.6335 125.486 41.7379 125.486 41.8901V43.8662Z" fill="#4B371C"/>
<path d="M138.394 43.52C138.394 43.9723 138.306 44.3549 138.133 44.6679C137.96 44.9767 137.724 45.2114 137.425 45.3724C137.13 45.5289 136.794 45.6071 136.418 45.6071C136.041 45.6071 135.702 45.5289 135.404 45.3724C135.105 45.2114 134.868 44.9767 134.695 44.6679C134.526 44.3549 134.441 43.9723 134.441 43.52C134.441 43.0679 134.528 42.6873 134.702 42.3787C134.879 42.07 135.115 41.8373 135.41 41.6808C135.709 41.5199 136.044 41.4395 136.418 41.4395C136.785 41.4395 137.12 41.5199 137.418 41.6808C137.717 41.8373 137.953 42.07 138.127 42.3787C138.304 42.6873 138.394 43.0679 138.394 43.52ZM137.522 43.52C137.522 43.0722 137.422 42.7287 137.223 42.4895C137.024 42.2504 136.755 42.1309 136.418 42.1309C136.084 42.1309 135.815 42.2504 135.611 42.4895C135.412 42.7244 135.312 43.0679 135.312 43.52C135.312 43.9723 135.412 44.3179 135.611 44.557C135.815 44.7919 136.084 44.9093 136.418 44.9093C136.755 44.9093 137.024 44.7919 137.223 44.557C137.422 44.3179 137.522 43.9723 137.522 43.52Z" fill="#4B371C"/>
<path d="M148.789 43.5787V44.9549C148.789 45.0636 148.765 45.1484 148.718 45.2092C148.67 45.2658 148.598 45.3202 148.503 45.3724C148.385 45.4376 148.221 45.4919 148.009 45.5354C147.797 45.5832 147.584 45.6071 147.372 45.6071C146.964 45.6071 146.596 45.5354 146.267 45.3919C145.942 45.244 145.687 45.0179 145.5 44.7135C145.314 44.4049 145.221 44.0114 145.221 43.5331C145.221 43.0722 145.316 42.6873 145.506 42.3787C145.697 42.0657 145.953 41.8308 146.274 41.6743C146.594 41.5178 146.95 41.4395 147.34 41.4395C147.6 41.4395 147.827 41.4677 148.022 41.5243C148.217 41.5765 148.366 41.6504 148.471 41.746C148.579 41.8373 148.632 41.9417 148.632 42.0591C148.632 42.1417 148.609 42.2156 148.561 42.2808C148.518 42.3461 148.464 42.3961 148.399 42.4308C148.29 42.3613 148.154 42.2939 147.99 42.2287C147.825 42.1635 147.628 42.1309 147.398 42.1309C147.147 42.1309 146.921 42.1873 146.722 42.3004C146.527 42.4092 146.374 42.5679 146.261 42.7765C146.148 42.9809 146.091 43.2309 146.091 43.5265C146.091 43.8396 146.148 44.1005 146.261 44.3092C146.374 44.5136 146.527 44.6658 146.722 44.7658C146.916 44.8657 147.138 44.9158 147.385 44.9158C147.51 44.9158 147.625 44.9049 147.729 44.8832C147.834 44.8571 147.913 44.831 147.97 44.8049V43.9049H147.138C147.116 43.8657 147.097 43.8179 147.079 43.7614C147.062 43.7048 147.054 43.6418 147.054 43.5722C147.054 43.4592 147.079 43.3744 147.131 43.3179C147.188 43.2613 147.259 43.2331 147.346 43.2331H148.437C148.546 43.2331 148.63 43.2635 148.691 43.3244C148.756 43.3853 148.789 43.4701 148.789 43.5787Z" fill="#4B371C"/>
<path d="M156.001 42.8683H156.846V45.4968C156.812 45.5055 156.758 45.5163 156.683 45.5294C156.61 45.5424 156.534 45.5489 156.456 45.5489C156.291 45.5489 156.175 45.5185 156.105 45.4576C156.035 45.3967 156.001 45.2946 156.001 45.1511V42.8683ZM156.846 43.8597H156.001V41.5444C156.04 41.5357 156.096 41.5248 156.17 41.5118C156.244 41.4987 156.318 41.4922 156.391 41.4922C156.552 41.4922 156.667 41.5205 156.735 41.577C156.81 41.6335 156.846 41.7379 156.846 41.8901V43.8597Z" fill="#4B371C"/>
<path d="M163.841 42.8559H164.666V45.4581C164.632 45.4669 164.58 45.4799 164.51 45.4973C164.441 45.5103 164.367 45.5168 164.29 45.5168C164.151 45.5168 164.04 45.4756 163.958 45.3929C163.88 45.3104 163.841 45.1994 163.841 45.0604V42.8559ZM164.666 44.1798H163.841V42.0014C163.841 41.8623 163.88 41.7514 163.958 41.6688C164.04 41.5862 164.151 41.5449 164.29 41.5449C164.367 41.5449 164.441 41.5514 164.51 41.5644C164.58 41.5775 164.632 41.5905 164.666 41.6036V44.1798ZM164.29 43.8211V43.1428H166.252C166.274 43.1776 166.293 43.2233 166.311 43.2797C166.328 43.3363 166.337 43.3993 166.337 43.469C166.337 43.5863 166.311 43.6754 166.259 43.7363C166.207 43.7929 166.133 43.8211 166.038 43.8211H164.29ZM164.29 45.5168V44.832H166.466C166.493 44.8668 166.514 44.9147 166.532 44.9755C166.549 45.0321 166.558 45.0951 166.558 45.1647C166.558 45.2821 166.532 45.3712 166.48 45.432C166.427 45.4886 166.354 45.5168 166.259 45.5168H164.29ZM164.29 42.2232V41.5449H166.441C166.463 41.5797 166.482 41.6253 166.499 41.6818C166.521 41.7384 166.532 41.8014 166.532 41.871C166.532 41.9884 166.504 42.0776 166.447 42.1384C166.395 42.195 166.323 42.2232 166.233 42.2232H164.29Z" fill="#4B371C"/>
<path d="M174.987 44.9093C175.239 44.9093 175.42 44.8592 175.533 44.7593C175.65 44.6593 175.708 44.5375 175.708 44.394C175.708 44.2636 175.663 44.1571 175.572 44.0744C175.481 43.9918 175.344 43.9222 175.162 43.8657L174.747 43.7353C174.53 43.6657 174.339 43.5831 174.174 43.4874C174.01 43.3918 173.882 43.2722 173.791 43.1288C173.7 42.9852 173.655 42.8048 173.655 42.5874C173.655 42.2352 173.786 41.9569 174.051 41.7525C174.315 41.5439 174.677 41.4395 175.137 41.4395C175.379 41.4395 175.595 41.4634 175.786 41.5113C175.976 41.559 176.126 41.6287 176.234 41.7199C176.343 41.8069 176.397 41.9113 176.397 42.033C176.397 42.1156 176.375 42.1895 176.332 42.2548C176.293 42.32 176.243 42.3743 176.182 42.4178C176.078 42.3438 175.94 42.2786 175.767 42.2222C175.598 42.1656 175.411 42.1374 175.208 42.1374C174.987 42.1374 174.818 42.1787 174.701 42.2613C174.584 42.3438 174.525 42.4526 174.525 42.5874C174.525 42.6918 174.564 42.7787 174.643 42.8483C174.725 42.9135 174.852 42.9722 175.026 43.0243L175.389 43.1418C175.771 43.2548 176.064 43.4092 176.268 43.6048C176.475 43.8005 176.579 44.0658 176.579 44.4005C176.579 44.7571 176.443 45.0484 176.17 45.2744C175.901 45.4963 175.513 45.6071 175.006 45.6071C174.742 45.6071 174.505 45.5767 174.298 45.5158C174.094 45.4592 173.934 45.381 173.817 45.281C173.7 45.1766 173.641 45.0636 173.641 44.9419C173.641 44.8375 173.67 44.7506 173.726 44.6809C173.786 44.6114 173.856 44.5593 173.934 44.5244C174.042 44.6201 174.185 44.7092 174.362 44.7919C174.545 44.8701 174.752 44.9093 174.987 44.9093Z" fill="#4B371C"/>
<path d="M32.2118 37.9624C32.2118 34.8237 35.1566 32.2793 38.7892 32.2793C38.8183 32.2793 38.8418 32.2997 38.8418 32.3248V52.0726C38.8418 52.6998 38.8418 53.0135 38.6475 53.2084C38.4534 53.4032 38.1408 53.4032 37.5157 53.4032H33.5377C32.9127 53.4032 32.6002 53.4032 32.4059 53.2084C32.2118 53.0135 32.2118 52.6998 32.2118 52.0726V37.9624Z" fill="#4B371C"/>
<path d="M35.5267 30.618C37.3576 30.618 38.8418 29.1287 38.8418 27.2914C38.8418 25.4543 37.3576 23.9648 35.5267 23.9648C33.696 23.9648 32.2118 25.4543 32.2118 27.2914C32.2118 29.1287 33.696 30.618 35.5267 30.618Z" fill="#4B371C"/>
<path d="M18.6267 24.6302V50.9103V52.74C18.6267 53.1074 18.9236 53.4053 19.2897 53.4053H21.113H25.4945C25.8607 53.4053 26.1575 53.1074 26.1575 52.74V49.0807C26.1575 48.7133 25.8607 48.4154 25.4945 48.4154H24.2622C23.896 48.4154 23.5991 48.1175 23.5991 47.7501V24.6302C23.5991 24.2628 23.3024 23.9648 22.9362 23.9648H19.2897C18.9236 23.9648 18.6267 24.2628 18.6267 24.6302Z" fill="#B978B2"/>
<path d="M33.4217 11.8242C33.7878 11.8242 34.0846 12.1221 34.0846 12.4895V16.1488C34.0846 16.5162 33.7878 16.8141 33.4217 16.8141H24.2622C23.896 16.8141 23.5991 17.112 23.5991 17.4794V19.9744C23.5991 20.3419 23.3024 20.6398 22.9362 20.6398H19.2897C18.9236 20.6398 18.6267 20.3419 18.6267 19.9744V14.3192V12.4895C18.6267 12.1221 18.9236 11.8242 19.2897 11.8242H21.113H33.4217Z" fill="#70CBCF"/>
<path d="M52.4271 19.9744V14.3192V12.4895C52.4271 12.1221 52.1302 11.8242 51.7641 11.8242H49.9408H37.6321C37.266 11.8242 36.9691 12.1221 36.9691 12.4895V16.1488C36.9691 16.5162 37.266 16.8141 37.6321 16.8141H46.7916C47.1577 16.8141 47.4545 17.112 47.4545 17.4794V19.9744C47.4545 20.3419 47.7515 20.6398 48.1176 20.6398H51.7641C52.1302 20.6398 52.4271 20.3419 52.4271 19.9744Z" fill="#E7E62A"/>
<path fill-rule="evenodd" clip-rule="evenodd" d="M44.8953 52.74C44.8953 53.1074 45.1921 53.4053 45.5582 53.4053H49.9398H51.7631C52.1292 53.4053 52.4261 53.1074 52.4261 52.74V50.9103V24.6302C52.4261 24.2628 52.1292 23.9648 51.7631 23.9648H48.1166C47.7504 23.9648 47.4536 24.2628 47.4536 24.6302V47.7501C47.4536 48.1175 47.1567 48.4154 46.7906 48.4154H45.5582C45.1921 48.4154 44.8953 48.7133 44.8953 49.0807V52.74Z" fill="#E46356"/>
</svg>
