<svg width="512" height="512" viewBox="0 0 512 512" fill="none" xmlns="http://www.w3.org/2000/svg">
<path d="M65.957 456H462.004" stroke="#470040" stroke-width="3.212" stroke-linecap="round" stroke-linejoin="round"/>
<path d="M83.3398 170.48V456H444.623V170.48H83.3398Z" fill="white"/>
<path d="M83.3398 170.48V456H444.623V170.48H83.3398Z" stroke="#470040" stroke-width="3.212" stroke-miterlimit="10"/>
<path d="M444.622 173.031H83.3398V161.015C83.3398 148.596 93.4078 138.527 105.827 138.527H422.135C434.554 138.527 444.622 148.596 444.622 161.015V173.031Z" fill="#6FCBCF"/>
<path d="M444.622 173.031H83.3398V161.015C83.3398 148.596 93.4078 138.527 105.827 138.527H422.135C434.554 138.527 444.622 148.596 444.622 161.015V173.031Z" stroke="#470040" stroke-width="3.212" stroke-miterlimit="10"/>
<path d="M104.305 155.78C104.305 158.345 102.227 160.424 99.6616 160.424C97.0966 160.424 95.0176 158.345 95.0176 155.78C95.0176 153.215 97.0966 151.137 99.6616 151.137C102.227 151.137 104.305 153.215 104.305 155.78Z" fill="white"/>
<path d="M117.1 155.78C117.1 158.345 115.02 160.424 112.455 160.424C109.891 160.424 107.812 158.345 107.812 155.78C107.812 153.215 109.891 151.137 112.455 151.137C115.02 151.137 117.1 153.215 117.1 155.78Z" fill="white"/>
<path d="M129.897 155.78C129.897 158.345 127.818 160.424 125.253 160.424C122.688 160.424 120.609 158.345 120.609 155.78C120.609 153.215 122.688 151.137 125.253 151.137C127.818 151.137 129.897 153.215 129.897 155.78Z" fill="white"/>
<path d="M160.133 256.56H160.08L153.465 335.127L180.803 325.911L192.705 371.488L142.504 388.058C137.634 389.674 132.592 389.76 127.904 388.561C120.979 386.795 114.845 382.192 111.302 375.491C108.658 370.482 107.727 364.745 108.626 359.157L119.523 258.422L117.114 208.723C116.964 206.261 118.495 203.874 120.882 203.275C124.093 202.483 127.058 204.763 127.251 207.91C127.09 205.105 126.726 199.262 131.821 199.358C134.647 199.412 137.045 201.327 137.227 204.121L136.906 199.004C136.713 195.632 139.828 192.839 143.424 193.802C145.522 194.348 146.946 196.253 147.064 198.394V198.426L147.321 202.794C147.578 199.679 150.799 197.292 154.203 198.416C156.119 199.058 157.425 200.877 157.543 202.911L157.553 202.922L159.256 233.75" fill="white"/>
<path d="M160.133 256.56H160.08L153.465 335.127L180.803 325.911L192.705 371.488L142.504 388.058C137.634 389.674 132.592 389.76 127.904 388.561C120.979 386.795 114.845 382.192 111.302 375.491C108.658 370.482 107.727 364.745 108.626 359.157L119.523 258.422L117.114 208.723C116.964 206.261 118.495 203.874 120.882 203.275C124.093 202.483 127.058 204.763 127.251 207.91C127.09 205.105 126.726 199.262 131.821 199.358C134.647 199.412 137.045 201.327 137.227 204.121L136.906 199.004C136.713 195.632 139.828 192.839 143.424 193.802C145.522 194.348 146.946 196.253 147.064 198.394V198.426L147.321 202.794C147.578 199.679 150.799 197.292 154.203 198.416C156.119 199.058 157.425 200.877 157.543 202.911L157.553 202.922L159.256 233.75" stroke="#470040" stroke-width="3.212" stroke-linecap="round" stroke-linejoin="round"/>
<path d="M238.992 325.756C238.992 325.756 206.56 320.273 199.291 323.541L171.973 325.743L176.336 385.386L218.86 376.391C226.052 374.216 231.413 368.188 232.734 360.792L238.992 325.756Z" fill="#B978B1"/>
<path d="M199.291 323.541L171.973 325.743L176.336 385.386L218.86 376.391" stroke="#470040" stroke-width="3.212" stroke-linecap="round" stroke-linejoin="round"/>
<path d="M153.46 335.133L151.158 344.146" stroke="#470040" stroke-width="3.212" stroke-linecap="round" stroke-linejoin="round"/>
<path d="M357.666 233.685L355.717 202.869L355.728 202.858C355.61 200.824 356.691 198.865 358.511 197.998C361.765 196.489 365.244 198.48 365.865 201.541L365.608 197.174V197.142C365.469 195.001 366.657 192.935 368.68 192.154C372.137 190.773 375.552 193.181 375.766 196.553L376.033 201.402C376.033 198.737 378.153 196.671 380.85 196.296C385.731 195.622 386.202 201.07 386.384 203.971C386.384 200.942 388.996 198.501 392.175 198.897C394.616 199.218 396.425 201.402 396.564 203.864L399.85 251.111L400.021 251.101L415.574 359.157C416.473 364.745 415.542 370.482 412.898 375.491C409.355 382.192 403.232 386.795 396.296 388.561C391.608 389.76 386.566 389.674 381.696 388.058L331.494 371.488L343.397 325.911L370.735 335.127L358.95 254.665" fill="white"/>
<path d="M357.666 233.685L355.717 202.869L355.728 202.858C355.61 200.824 356.691 198.865 358.511 197.998C361.765 196.489 365.244 198.48 365.865 201.541L365.608 197.174V197.142C365.469 195.001 366.657 192.935 368.68 192.154C372.137 190.773 375.552 193.181 375.766 196.553L376.033 201.402C376.033 198.737 378.153 196.671 380.85 196.296C385.731 195.622 386.202 201.07 386.384 203.971C386.384 200.942 388.996 198.501 392.175 198.897C394.616 199.218 396.425 201.402 396.564 203.864L399.85 251.111L400.021 251.101L415.574 359.157C416.473 364.745 415.542 370.482 412.898 375.491C409.355 382.192 403.232 386.795 396.296 388.561C391.608 389.76 386.566 389.674 381.696 388.058L331.494 371.488L343.397 325.911L370.735 335.127L358.95 254.665" stroke="#470040" stroke-width="3.212" stroke-linecap="round" stroke-linejoin="round"/>
<path d="M285.211 325.756C285.211 325.756 317.643 320.273 324.912 323.541L352.23 325.743L347.867 385.386L305.343 376.391C298.151 374.216 292.79 368.188 291.469 360.792L285.211 325.756Z" fill="#B978B1"/>
<path d="M324.913 323.541L352.231 325.743L347.868 385.386L305.344 376.391" stroke="#470040" stroke-width="3.212" stroke-linecap="round" stroke-linejoin="round"/>
<path d="M370.742 335.133L373.044 344.146" stroke="#470040" stroke-width="3.212" stroke-linecap="round" stroke-linejoin="round"/>
<path d="M408.404 233.158H124.601C117.893 233.158 112.455 227.721 112.455 221.013V130.674C112.455 123.966 117.893 118.529 124.601 118.529H408.404C415.112 118.529 420.549 123.966 420.549 130.674V221.013C420.549 227.721 415.112 233.158 408.404 233.158Z" fill="#E46356"/>
<path d="M268.582 327.686L309.822 323.634C320.01 322.633 329.236 329.687 330.94 339.782L350.558 455.999H200.41V344.129C200.41 332.884 209.902 323.973 221.125 324.683L268.582 327.686Z" fill="#B978B1"/>
<path d="M200.41 455.999V344.129" stroke="#470040" stroke-width="3.212" stroke-linecap="round" stroke-linejoin="round"/>
<path d="M330.941 339.781L343.829 416.129" stroke="#470040" stroke-width="3.212" stroke-linecap="round" stroke-linejoin="round"/>
<path d="M284.42 326.117C284.467 336.126 243.481 336.318 243.434 326.309L247.855 283.322L283.06 290.655L284.42 326.117Z" fill="white"/>
<path d="M284.42 326.117C284.467 336.126 243.481 336.318 243.434 326.309L247.855 283.322L283.06 290.655L284.42 326.117Z" stroke="#470040" stroke-width="3.212" stroke-linecap="round" stroke-linejoin="round"/>
<path d="M247.758 296.887C231.87 284.612 225.592 264.405 225.592 264.405L256.414 230.896C257.553 231.233 284.49 231.222 299.196 258.497C311.248 280.85 298.638 300.4 268.961 304.356" fill="white"/>
<path d="M247.758 296.887C231.87 284.612 225.592 264.405 225.592 264.405L256.414 230.896C257.553 231.233 284.49 231.222 299.196 258.497C311.248 280.85 298.638 300.4 268.961 304.356" stroke="#470040" stroke-width="3.212" stroke-linecap="round" stroke-linejoin="round"/>
<path d="M289.381 231.784C289.381 250.457 246.783 258.956 246.783 258.956C244.053 262.563 249.598 272.539 247.511 276.35C245.413 280.161 244.31 278.234 244.31 278.234L235.683 288.639C235.683 288.639 211.995 278.213 213.494 264.876C215.003 251.539 225.792 250.04 225.792 250.04C225.792 250.04 215.709 241.209 220.258 234.744C223.566 230.056 231.776 229.307 236.036 229.264C233.949 228.782 236.784 217.937 244.851 214.751C266.613 206.157 289.381 202.382 289.381 231.784Z" fill="#470040"/>
<path d="M269.353 262.77C267.004 263.284 265.178 265.319 264.719 267.933L269.353 262.77Z" fill="white"/>
<path d="M269.353 262.77C267.004 263.284 265.178 265.319 264.719 267.933" stroke="#470040" stroke-width="3.212" stroke-linecap="round" stroke-linejoin="round"/>
<path d="M283.918 250.457C281.569 250.971 279.744 253.007 279.285 255.621L283.918 250.457Z" fill="white"/>
<path d="M283.918 250.457C281.569 250.971 279.744 253.007 279.285 255.621" stroke="#470040" stroke-width="3.212" stroke-linecap="round" stroke-linejoin="round"/>
<path d="M244.928 278.259C244.928 278.259 230.845 274.078 226.71 278.659C222.575 283.24 234.276 300.225 241.266 298.623C248.256 297.021 251.842 291.966 251.842 291.966" fill="white"/>
<path d="M244.928 278.259C244.928 278.259 230.845 274.078 226.71 278.659C222.575 283.24 234.276 300.225 241.266 298.623C248.256 297.021 251.842 291.966 251.842 291.966" stroke="#470040" stroke-width="3.212" stroke-linecap="round" stroke-linejoin="round"/>
<path d="M239.413 284.274C238.693 283.809 237.875 283.495 237.029 283.359C236.498 283.274 235.945 283.259 235.433 283.423C234.921 283.587 234.455 283.95 234.26 284.451C233.984 285.16 234.292 285.957 234.669 286.618C235.357 287.823 236.295 288.885 237.404 289.718" stroke="#470040" stroke-width="3.212" stroke-linecap="round" stroke-linejoin="round"/>
<path d="M281.305 265.064C283.118 267.056 284.932 269.047 286.745 271.039C287.839 272.24 288.96 273.495 289.298 275.037C289.636 276.579 288.949 278.497 287.24 279.329" fill="white"/>
<path d="M281.305 265.064C283.118 267.056 284.932 269.047 286.745 271.039C287.839 272.24 288.96 273.495 289.298 275.037C289.636 276.579 288.949 278.497 287.24 279.329" stroke="#470040" stroke-width="3.212" stroke-linecap="round" stroke-linejoin="round"/>
<path d="M273.275 286.371C274.267 287.688 275.746 288.627 277.36 288.963C278.974 289.299 280.706 289.03 282.141 288.219" stroke="#470040" stroke-width="3.212" stroke-linecap="round" stroke-linejoin="round"/>
<path d="M149.195 238.344L166.629 229.671C170.15 227.712 174.571 229.243 176.155 232.925C176.733 234.306 176.851 235.804 176.519 237.185C176.134 238.769 175.203 240.204 173.79 241.189L166.714 246.07C160.463 250.095 160.131 256.56 160.131 256.56" fill="white"/>
<path d="M149.195 238.344L166.629 229.671C170.15 227.712 174.571 229.243 176.155 232.925C176.733 234.306 176.851 235.804 176.519 237.185C176.134 238.769 175.203 240.204 173.79 241.189L166.714 246.07C160.463 250.095 160.131 256.56 160.131 256.56" stroke="#470040" stroke-width="3.212" stroke-linecap="round" stroke-linejoin="round"/>
<path d="M358.949 254.666C358.125 252.536 356.155 248.972 351.702 246.799L344.103 242.785C342.583 241.971 341.49 240.666 340.923 239.135C340.431 237.797 340.366 236.298 340.784 234.864C341.919 231.021 346.125 228.976 349.861 230.507L371.703 240.804" fill="white"/>
<path d="M358.949 254.666C358.125 252.536 356.155 248.972 351.702 246.799L344.103 242.785C342.583 241.971 341.49 240.666 340.923 239.135C340.431 237.797 340.366 236.298 340.784 234.864C341.919 231.021 346.125 228.976 349.861 230.507L371.703 240.804" stroke="#470040" stroke-width="3.212" stroke-linecap="round" stroke-linejoin="round"/>
<path d="M169.299 159.315C169.935 158.783 170.606 158.516 171.314 158.516C172.633 158.516 173.293 159.432 173.293 161.265C173.293 163.469 173.006 164.983 172.43 165.806C171.854 166.63 171.08 167.041 170.109 167.041C169.005 167.041 168.292 166.459 167.968 165.295C167.824 164.75 167.656 164.422 167.464 164.311C167.272 164.2 166.786 164.144 166.006 164.144C164.183 164.144 161.814 165.846 158.899 169.251C155.984 172.656 154.527 175.629 154.527 178.167C154.527 179.269 154.878 180.219 155.58 181.017C156.282 181.816 157.191 182.215 158.306 182.215C159.314 182.215 160.246 182.042 161.103 181.695C161.96 181.348 163.29 180.6 165.089 179.448C166.12 178.804 166.87 178.482 167.338 178.482C167.985 178.482 168.513 178.693 168.921 179.114C169.328 179.535 169.533 180.067 169.533 180.711C169.533 181.33 169.317 181.887 168.885 182.382C168.453 182.878 167.518 183.58 166.079 184.49C164.64 185.4 163.203 186.094 161.77 186.57C160.336 187.047 158.923 187.286 157.532 187.286C155.085 187.286 153.121 186.459 151.64 184.806C150.159 183.153 149.418 181.206 149.418 178.965C149.418 174.966 151.426 170.654 155.445 166.029C159.463 161.404 163.241 159.092 166.78 159.092C167.86 159.092 168.699 159.167 169.299 159.315Z" fill="white"/>
<path d="M173.32 180.284C173.32 177.189 174.408 174.297 176.585 171.61C178.762 168.923 181.561 167.58 184.979 167.58C186.946 167.58 188.49 168.27 189.612 169.651C190.734 171.031 191.294 172.855 191.294 175.121C191.294 178.377 190.265 181.324 188.208 183.961C186.151 186.599 183.587 187.917 180.517 187.917C178.382 187.917 176.648 187.195 175.317 185.753C173.985 184.311 173.32 182.488 173.32 180.284ZM178.358 179.541C178.358 180.594 178.606 181.435 179.104 182.066C179.602 182.698 180.318 183.014 181.254 183.014C182.814 183.014 184.055 182.336 184.979 180.98C185.902 179.625 186.364 177.882 186.364 175.752C186.364 173.573 185.555 172.483 183.936 172.483C182.353 172.483 181.026 173.272 179.959 174.851C178.892 176.43 178.358 177.994 178.358 179.541Z" fill="white"/>
<path d="M200.963 170.383C203.11 168.204 204.999 167.114 206.63 167.114C208.501 167.114 209.731 167.852 210.319 169.325C211.962 167.975 213.839 167.3 215.95 167.3C218.853 167.3 220.304 169.114 220.304 172.742C220.304 173.559 220.268 174.624 220.196 175.936C220.184 176.159 220.148 178.029 220.088 181.545C220.052 183.44 220.004 184.837 219.944 185.734C219.884 186.632 219.555 187.303 218.955 187.749C218.355 188.195 217.725 188.417 217.066 188.417C216.298 188.417 215.753 188.207 215.429 187.786C215.105 187.365 214.943 186.554 214.943 185.353L215.356 175.491C215.356 173.25 215.117 172.129 214.637 172.129C214.397 172.129 213.692 172.442 212.523 173.067C211.354 173.692 210.583 174.154 210.211 174.451C210.019 175.516 209.881 177.546 209.797 180.542C209.629 184.331 209.437 186.529 209.221 187.136C209.005 187.742 208.643 188.228 208.133 188.594C207.623 188.959 207.074 189.142 206.486 189.142C205.839 189.142 205.314 188.94 204.912 188.538C204.51 188.136 204.31 187.656 204.31 187.099L204.561 185.019C204.669 184.079 204.771 182.548 204.867 180.431C205.023 177.459 205.191 175.379 205.371 174.191C205.491 173.423 205.533 172.791 205.497 172.296C203.901 173.138 202.168 174.643 200.297 176.81L198.822 185.409C198.75 186.053 198.438 186.569 197.886 186.959C197.334 187.349 196.675 187.544 195.907 187.544C194.623 187.544 193.982 186.771 193.982 185.223C193.982 184.678 194.048 184.004 194.18 183.199L195.206 176.327C195.47 174.594 195.655 173.158 195.763 172.018C195.919 170.235 196.327 168.82 196.987 167.774C197.646 166.728 198.365 166.205 199.145 166.205C199.781 166.205 200.318 166.437 200.756 166.901C201.194 167.365 201.413 167.888 201.413 168.47C201.413 168.631 201.263 169.269 200.963 170.383Z" fill="white"/>
<path d="M226.809 187.397C226.149 187.397 225.621 187.202 225.225 186.812C224.829 186.422 224.631 185.924 224.631 185.317L225.135 181.528C225.459 178.978 225.891 176.47 226.431 174.006C226.851 172.186 227.12 170.793 227.24 169.827C227.336 169.146 227.663 168.561 228.221 168.072C228.779 167.583 229.411 167.338 230.119 167.338C230.743 167.338 231.249 167.53 231.639 167.914C232.029 168.298 232.224 168.799 232.224 169.418C232.224 169.914 231.96 171.344 231.433 173.709C230.905 176.074 230.506 178.358 230.236 180.562C229.966 182.766 229.763 184.239 229.625 184.982C229.487 185.725 229.151 186.314 228.617 186.747C228.083 187.18 227.48 187.397 226.809 187.397ZM228.68 162.157C228.68 161.303 229.021 160.565 229.705 159.946C230.389 159.327 231.138 159.018 231.954 159.018C232.638 159.018 233.22 159.244 233.7 159.696C234.179 160.148 234.419 160.695 234.419 161.339C234.419 162.169 234.08 162.903 233.403 163.54C232.725 164.178 231.96 164.497 231.108 164.497C230.412 164.497 229.834 164.268 229.373 163.81C228.911 163.352 228.68 162.801 228.68 162.157Z" fill="white"/>
<path d="M242.486 169.659C244.513 167.839 246.492 166.929 248.424 166.929C251.446 166.929 252.957 168.724 252.957 172.315C252.957 173.293 252.856 174.438 252.652 175.751L252.436 177.088C252.136 178.945 251.986 180.592 251.986 182.028C251.986 183.712 251.943 184.897 251.86 185.585C251.776 186.272 251.468 186.873 250.934 187.387C250.4 187.901 249.762 188.158 249.018 188.158C247.59 188.158 246.876 187.445 246.876 186.021C246.876 182.889 246.966 180.589 247.146 179.122C247.326 177.655 247.626 176.023 248.046 174.228C248.214 173.535 248.298 173.046 248.298 172.761C248.298 172.142 248.094 171.832 247.686 171.832C246.546 171.832 245.335 172.528 244.052 173.921C242.768 175.314 241.799 176.738 241.146 178.193C240.492 179.648 240.093 181.496 239.949 183.737C239.901 184.814 239.806 185.56 239.662 185.975C239.518 186.39 239.203 186.786 238.717 187.164C238.231 187.541 237.647 187.73 236.963 187.73C236.339 187.73 235.826 187.544 235.424 187.173C235.022 186.801 234.822 186.325 234.822 185.743L234.966 183.737C235.062 182.375 235.445 180.209 236.117 177.237C236.764 174.488 237.136 172.588 237.232 171.535C237.328 170.371 237.427 169.479 237.529 168.86C237.631 168.241 237.955 167.699 238.501 167.235C239.047 166.771 239.686 166.539 240.417 166.539C241.977 166.539 242.666 167.504 242.486 169.436V169.659Z" fill="white"/>
<path d="M266.604 185.837C265.225 187.125 263.605 187.769 261.747 187.769C259.563 187.769 257.863 187.125 256.646 185.837C255.429 184.549 254.82 182.921 254.82 180.952C254.82 177.621 256.001 174.597 258.364 171.879C260.727 169.161 263.966 167.803 268.08 167.803C270.347 167.803 271.895 168.372 272.722 169.511C273.993 169.672 274.629 170.384 274.629 171.647C274.629 172.353 274.299 173.721 273.64 175.752C272.741 178.525 271.966 181.596 271.318 184.964C270.527 189.521 269.171 192.712 267.252 194.538C265.333 196.365 262.635 197.278 259.156 197.278C254.802 197.278 252.625 196.442 252.625 194.771C252.625 194.103 252.856 193.498 253.317 192.959C253.779 192.42 254.412 192.152 255.216 192.152C255.779 192.152 256.541 192.251 257.5 192.449C258.544 192.684 259.432 192.802 260.163 192.802C261.902 192.802 263.276 192.251 264.284 191.149C265.291 190.046 266.064 188.276 266.604 185.837ZM269.483 172.78C268.691 172.272 267.942 172.019 267.234 172.019C264.907 172.019 263.09 172.88 261.783 174.601C260.475 176.322 259.821 178.241 259.821 180.358C259.821 182.389 260.709 183.404 262.484 183.404C263.383 183.404 264.358 182.916 265.408 181.937C266.458 180.959 267.177 179.993 267.567 179.039C267.957 178.086 268.595 175.999 269.483 172.78Z" fill="white"/>
<path d="M292.816 182.513C292.816 181.51 293.116 180.69 293.717 180.052C294.317 179.415 295.042 179.096 295.894 179.096C296.938 179.096 297.65 179.666 298.034 180.805C298.467 182.328 299.888 183.089 302.299 183.089C304.254 183.089 306.369 182.622 308.641 181.687C310.914 180.752 312.051 179.474 312.051 177.852C312.051 176.75 311.628 175.991 310.782 175.576C309.936 175.161 308.116 174.93 305.321 174.88C303.15 174.831 301.271 174.376 299.681 173.515C298.092 172.655 297.297 171.5 297.297 170.051C297.297 167.625 298.719 165.274 301.562 163.002C304.404 160.73 307.45 159.594 310.701 159.594C311.936 159.594 313.43 159.901 315.181 160.514C316.933 161.127 317.808 161.836 317.808 162.641C317.808 163.21 317.526 163.808 316.962 164.433C316.399 165.058 315.715 165.371 314.911 165.371C314.3 165.371 313.466 165.24 312.41 164.98C311.427 164.732 310.599 164.609 309.928 164.609C308.356 164.609 306.776 165.015 305.187 165.826C303.597 166.637 302.803 167.525 302.803 168.491C302.803 169.308 303.582 169.84 305.142 170.088L309.315 170.293C310.959 170.367 312.404 170.689 313.651 171.258C314.899 171.827 315.835 172.617 316.458 173.626C317.082 174.635 317.395 175.833 317.395 177.22C317.395 180.675 315.793 183.328 312.59 185.179C309.388 187.03 305.652 187.955 301.381 187.955C298.647 187.955 296.535 187.42 295.048 186.349C293.561 185.278 292.816 183.999 292.816 182.513Z" fill="white"/>
<path d="M319.758 180.284C319.758 177.189 320.846 174.297 323.023 171.61C325.201 168.923 327.998 167.58 331.417 167.58C333.384 167.58 334.929 168.27 336.05 169.651C337.171 171.031 337.732 172.855 337.732 175.121C337.732 178.377 336.703 181.324 334.646 183.961C332.588 186.599 330.025 187.917 326.955 187.917C324.819 187.917 323.087 187.195 321.755 185.753C320.424 184.311 319.758 182.488 319.758 180.284ZM324.796 179.541C324.796 180.594 325.045 181.435 325.543 182.066C326.04 182.698 326.756 183.014 327.692 183.014C329.252 183.014 330.493 182.336 331.417 180.98C332.341 179.625 332.803 177.882 332.803 175.752C332.803 173.573 331.993 172.483 330.373 172.483C328.79 172.483 327.464 173.272 326.397 174.851C325.329 176.43 324.796 177.994 324.796 179.541Z" fill="white"/>
<path d="M340.242 180.284C340.242 177.189 341.331 174.297 343.508 171.61C345.686 168.923 348.482 167.58 351.901 167.58C353.868 167.58 355.413 168.27 356.534 169.651C357.655 171.031 358.217 172.855 358.217 175.121C358.217 178.377 357.188 181.324 355.131 183.961C353.073 186.599 350.509 187.917 347.439 187.917C345.303 187.917 343.571 187.195 342.239 185.753C340.908 184.311 340.242 182.488 340.242 180.284ZM345.28 179.541C345.28 180.594 345.529 181.435 346.027 182.066C346.524 182.698 347.241 183.014 348.177 183.014C349.737 183.014 350.977 182.336 351.901 180.98C352.825 179.625 353.287 177.882 353.287 175.752C353.287 173.573 352.477 172.483 350.857 172.483C349.274 172.483 347.949 173.272 346.882 174.851C345.814 176.43 345.28 177.994 345.28 179.541Z" fill="white"/>
<path d="M368.244 169.659C370.271 167.839 372.251 166.929 374.182 166.929C377.205 166.929 378.716 168.724 378.716 172.315C378.716 173.293 378.614 174.438 378.41 175.751L378.194 177.088C377.894 178.945 377.744 180.592 377.744 182.028C377.744 183.712 377.702 184.897 377.618 185.585C377.534 186.272 377.225 186.873 376.691 187.387C376.158 187.901 375.519 188.158 374.775 188.158C373.348 188.158 372.635 187.445 372.635 186.021C372.635 182.889 372.724 180.589 372.904 179.122C373.084 177.655 373.384 176.023 373.804 174.228C373.972 173.535 374.056 173.046 374.056 172.761C374.056 172.142 373.851 171.832 373.444 171.832C372.304 171.832 371.093 172.528 369.81 173.921C368.527 175.314 367.557 176.738 366.904 178.193C366.25 179.648 365.852 181.496 365.708 183.737C365.659 184.814 365.564 185.56 365.42 185.975C365.276 186.39 364.961 186.786 364.476 187.164C363.99 187.541 363.405 187.73 362.721 187.73C362.098 187.73 361.584 187.544 361.183 187.173C360.781 186.801 360.58 186.325 360.58 185.743L360.724 183.737C360.82 182.375 361.203 180.209 361.875 177.237C362.523 174.488 362.894 172.588 362.991 171.535C363.087 170.371 363.185 169.479 363.288 168.86C363.39 168.241 363.714 167.699 364.26 167.235C364.805 166.771 365.444 166.539 366.176 166.539C367.735 166.539 368.425 167.504 368.244 169.436V169.659Z" fill="white"/>
<path d="M284.31 258.553C285.478 259.992 287.222 260.524 288.197 259.732C289.163 258.945 288.996 257.129 287.814 255.687C286.631 254.244 284.888 253.712 283.922 254.499C282.952 255.3 283.128 257.111 284.31 258.553Z" fill="#470040"/>
<path d="M269.739 270.867C270.921 272.309 272.659 272.834 273.634 272.041C274.601 271.254 274.425 269.444 273.251 267.996C272.069 266.554 270.325 266.021 269.355 266.822C268.388 267.609 268.565 269.419 269.739 270.867Z" fill="#470040"/>
<path d="M110.647 67.6191C107.762 73.2841 107.405 80.3181 110.264 85.9971C113.123 91.6761 119.332 95.6711 125.681 95.3401C132.03 95.0091 137.998 90.0131 138.907 83.7211C139.403 80.2851 137.957 76.1611 134.619 75.2091C132.261 74.5361 129.716 75.6721 127.905 77.3261C123.435 81.4091 122.484 88.5381 124.945 94.0691C127.406 99.6001 132.787 103.503 138.63 105.089C144.473 106.675 150.725 106.147 156.576 104.591" stroke="#470040" stroke-width="3.212" stroke-linecap="round" stroke-linejoin="round"/>
<path d="M285.029 60.8157C280.097 56.8037 273.296 54.9767 267.143 56.5777C260.99 58.1787 255.78 63.4087 254.768 69.6857C253.756 75.9627 257.385 82.8467 263.346 85.0587C266.6 86.2667 270.937 85.7187 272.57 82.6557C273.724 80.4917 273.147 77.7647 271.911 75.6467C268.859 70.4187 262.09 67.9907 256.165 69.2337C250.24 70.4767 245.293 74.9167 242.514 80.2957C239.735 85.6747 238.937 91.8977 239.228 97.9447" stroke="#470040" stroke-width="3.212" stroke-linecap="round" stroke-linejoin="round"/>
<path d="M372.786 61.9316C372.224 65.4546 370.204 68.7216 367.305 70.8006C365.561 72.0516 363.257 72.8826 361.275 72.0586C359.293 71.2346 358.378 68.1746 360.086 66.8756C361.633 65.6996 364.044 66.8546 364.853 68.6216C365.662 70.3886 365.353 72.4406 365.028 74.3566C364.172 79.4076 363.281 84.5606 360.856 89.0726C358.431 93.5846 354.155 97.4236 349.059 97.9446" stroke="#470040" stroke-width="3.212" stroke-linecap="round" stroke-linejoin="round"/>
<path d="M462.004 288.806C468.479 289.054 474.909 285.003 477.481 279.055C478.576 276.524 478.991 273.558 477.914 271.019C476.837 268.48 473.989 266.605 471.307 267.249C470.301 267.491 469.348 268.095 468.861 269.008C468.374 269.921 468.442 271.152 469.16 271.897C470.356 273.138 472.462 272.51 473.901 271.561C477.777 269.004 480.377 264.606 480.751 259.978C481.125 255.35 479.263 250.592 475.848 247.447" stroke="#470040" stroke-width="3.212" stroke-linecap="round" stroke-linejoin="round"/>
<path d="M34.1965 292.316C30.5765 298.3 30.2085 306.123 33.2515 312.42C34.3405 314.674 35.9315 316.813 38.2005 317.873C40.4695 318.933 43.5015 318.618 45.0535 316.653C46.6055 314.688 45.7965 311.165 43.3675 310.557C42.0145 310.218 40.5515 310.808 39.5545 311.784C38.5575 312.76 37.9595 314.071 37.5165 315.394C35.8075 320.492 36.1495 326.246 38.4495 331.106C40.7495 335.966 44.9835 339.878 50.0095 341.788" stroke="#470040" stroke-width="3.212" stroke-linecap="round" stroke-linejoin="round"/>
<g opacity="0.473684">
<path d="M67.1096 365.608L63.5711 367.835C61.91 368.871 59.7267 368.375 58.6886 366.725L56.4605 363.186C55.4224 361.536 55.9187 359.353 57.5686 358.315L61.1106 356.076C62.7605 355.038 64.9424 355.534 65.9924 357.186L68.2177 360.736C69.2558 362.386 68.7595 364.569 67.1096 365.608Z" fill="#E7E629"/>
</g>
<g opacity="0.0666667">
<path d="M66.9859 286.503L66.8989 286.558C66.8581 286.583 66.8045 286.571 66.779 286.531L66.7243 286.444C66.6988 286.403 66.7109 286.35 66.7515 286.324L66.8385 286.269C66.879 286.244 66.9326 286.256 66.9584 286.296L67.0131 286.384C67.0386 286.424 67.0264 286.478 66.9859 286.503Z" fill="#E7E629"/>
</g>
<g opacity="0.846154">
<path d="M457.192 215.749L456.236 216.352C455.787 216.631 455.197 216.497 454.916 216.052L454.315 215.095C454.034 214.649 454.168 214.059 454.614 213.779L455.571 213.174C456.017 212.893 456.606 213.027 456.89 213.474L457.491 214.433C457.772 214.879 457.638 215.469 457.192 215.749Z" fill="#E7E629"/>
</g>
<g opacity="0.473684">
<path d="M465.117 364.058L462.437 365.745C461.179 366.529 459.527 366.153 458.741 364.904L457.054 362.224C456.267 360.975 456.643 359.322 457.892 358.536L460.574 356.84C461.823 356.054 463.476 356.43 464.271 357.681L465.956 360.37C466.742 361.619 466.366 363.271 465.117 364.058Z" fill="#E7E629"/>
</g>
</svg>
