<svg width="297" height="60" viewBox="0 0 297 60" fill="none" xmlns="http://www.w3.org/2000/svg">
<path d="M29.9323 35.2793C32.7484 35.2793 35.025 37.5685 35.025 40.3975C35.025 43.2266 32.7484 45.5158 29.9323 45.5158C27.1162 45.5158 24.8396 43.2266 24.8396 40.3975C24.8396 37.5685 27.1162 35.2793 29.9323 35.2793Z" fill="#FF373D"/>
<path d="M35.1865 30.3227C35.1757 30.2039 35.1757 30.0851 35.1757 29.9664C35.1865 28.6274 34.6901 27.3316 33.7407 26.3814L33.5249 26.1655C32.5862 25.226 31.313 24.7185 29.9859 24.7293C29.9643 24.7293 29.9319 24.7293 29.9103 24.7293C29.8888 24.7293 29.8564 24.7293 29.8348 24.7293C28.5077 24.7077 27.2345 25.226 26.2958 26.1655L26.08 26.3814C25.1305 27.3316 24.645 28.6274 24.645 29.9664C24.645 30.0851 24.645 30.2039 24.6342 30.3227C24.4939 32.8386 22.4979 34.901 19.9839 35.1062C16.8225 35.3762 14.2114 32.7414 14.4704 29.5668C14.6754 27.0509 16.7362 25.0533 19.2286 24.9021C19.3365 24.8913 19.466 24.8913 19.5739 24.8913C20.9118 24.9021 22.1958 24.4054 23.1452 23.4552L23.361 23.2392C24.3105 22.289 24.7961 20.9932 24.7961 19.6543C24.7961 19.4815 24.8068 19.2979 24.8176 19.1252C25.0442 16.6524 27.0619 14.6872 29.5327 14.5036C32.5214 14.2984 35.003 16.6632 35.003 19.6003C35.003 19.6219 35.003 19.6543 35.003 19.6758C34.9815 21.004 35.4994 22.289 36.4381 23.2284L36.6539 23.4444C37.6033 24.3946 38.8873 24.8913 40.2252 24.8805C40.3331 24.8805 40.4518 24.8805 40.5705 24.8913C43.0845 25.0317 45.1237 27.0401 45.3287 29.556C45.5985 32.7306 42.9766 35.3546 39.8152 35.0954C37.3228 34.901 35.3375 32.8278 35.1865 30.3227Z" fill="#FF373D"/>
<path d="M72.8128 37.4613L71.297 33.9849H63.4232L61.9073 37.4613H60.0547L66.6232 22.7128H68.0759L74.6654 37.4613H72.8128ZM64.0758 32.51H70.6443L67.3601 25.0093L64.0758 32.51ZM88.4551 37.4613H86.3709L82.1392 31.3933L77.9076 37.4613H75.8233L81.0866 29.8974L76.076 22.7128H78.1602L82.1182 28.4015L86.0761 22.7128H88.1604L83.1708 29.8974L88.4551 37.4613ZM102.561 37.4613H100.476L96.2447 31.3933L92.0131 37.4613H89.9288L95.1921 29.8974L90.1815 22.7128H92.2657L96.2236 28.4015L100.182 22.7128H102.266L97.2763 29.8974L102.561 37.4613ZM106.308 35.8179H113.319V37.4613H105.887H104.561V22.7128H106.308H113.129V24.3562H106.308V29.2443H111.613V30.8455H106.308V35.8179ZM117.277 35.8179H123.887V37.4613H115.529V22.7128H117.277V35.8179ZM141.824 22.7128V24.3562H137.74V37.4613H135.993V24.3562H131.887V22.7128H141.824ZM145.677 35.8179H152.688V37.4613H145.256H143.93V22.7128H145.677H152.498V24.3562H145.677V29.2443H150.982V30.8455H145.677V35.8179ZM167.067 35.8811C165.719 37.0399 164.014 37.672 162.119 37.672C158.288 37.672 154.582 34.5537 154.582 30.087C154.582 25.6204 158.288 22.5021 162.119 22.5021C163.993 22.5021 165.677 23.1342 167.004 24.2509L165.93 25.4729C164.898 24.6512 163.572 24.1666 162.246 24.1666C159.235 24.1666 156.393 26.6106 156.393 30.087C156.393 33.5635 159.235 36.0075 162.246 36.0075C163.593 36.0075 164.94 35.5019 165.972 34.6591L167.067 35.8811ZM178.309 22.7128H180.056V37.4613H178.309V31.0141H170.814V37.4613H169.067V22.7128H170.814V29.3707H178.309V22.7128ZM192.857 22.7128H194.604V37.4613H193.257L184.33 25.9153V37.4613H182.583V22.7128H183.93L192.857 34.2798V22.7128ZM204.352 22.5021C208.183 22.5021 211.889 25.6204 211.889 30.087C211.889 34.5537 208.183 37.672 204.352 37.672C200.499 37.672 196.815 34.5537 196.815 30.087C196.815 25.6204 200.499 22.5021 204.352 22.5021ZM204.352 36.0075C207.236 36.0075 210.078 33.5635 210.078 30.087C210.078 26.6106 207.236 24.1666 204.352 24.1666C201.446 24.1666 198.625 26.6106 198.625 30.087C198.625 33.5635 201.446 36.0075 204.352 36.0075ZM215.846 35.8179H222.457V37.4613H214.099V22.7128H215.846V35.8179ZM231.784 22.5021C235.615 22.5021 239.321 25.6204 239.321 30.087C239.321 34.5537 235.615 37.672 231.784 37.672C227.931 37.672 224.247 34.5537 224.247 30.087C224.247 25.6204 227.931 22.5021 231.784 22.5021ZM231.784 36.0075C234.668 36.0075 237.51 33.5635 237.51 30.087C237.51 26.6106 234.668 24.1666 231.784 24.1666C228.878 24.1666 226.057 26.6106 226.057 30.087C226.057 33.5635 228.878 36.0075 231.784 36.0075ZM255.489 30.0449C255.805 34.7644 252.584 37.672 248.752 37.672C244.815 37.672 241.215 34.5537 241.215 30.087C241.215 25.6204 244.9 22.5021 248.752 22.5021C250.605 22.5021 252.289 23.1342 253.615 24.2509L252.542 25.4729C251.51 24.6512 250.184 24.1666 248.857 24.1666C245.847 24.1666 243.026 26.6106 243.026 30.087C243.026 33.5635 245.763 36.0075 248.752 36.0075C251.363 36.0075 253.447 34.5959 253.847 31.5619H249.552V30.0449H255.489ZM259.468 22.7128V37.4613H257.721V22.7128H259.468ZM263.742 35.8179H270.753V37.4613H263.321H261.995V22.7128H263.742H270.563V24.3562H263.742V29.2443H269.047V30.8455H263.742V35.8179ZM277.49 22.46C279.784 22.46 281.469 23.9769 282.1 25.5571L280.774 26.2735C280.1 24.9251 279.026 24.0402 277.49 24.0402C275.868 24.0402 274.753 24.9672 274.753 26.2524C274.753 27.4534 275.511 28.2119 277.111 28.8229L278.184 29.2232C280.837 30.2135 282.5 31.3512 282.5 33.6899C282.5 36.2182 280.079 37.7773 277.574 37.7773C275.068 37.7773 273.005 36.2603 272.437 34.1534L273.847 33.4792C274.353 35.0383 275.679 36.1761 277.574 36.1761C279.258 36.1761 280.69 35.2069 280.69 33.711C280.69 32.0254 279.511 31.3933 277.763 30.7191L276.668 30.2977C274.437 29.455 273.005 28.2962 273.005 26.2103C273.005 24.0612 274.9 22.46 277.49 22.46Z" fill="#FF373D"/>
</svg>
