<svg width="1440" height="291" viewBox="0 0 1440 291" fill="none" xmlns="http://www.w3.org/2000/svg">
<path d="M145.053 170.822C158.706 170.822 169.744 181.925 169.744 195.646C169.744 209.367 158.706 220.469 145.053 220.469C131.399 220.469 120.361 209.367 120.361 195.646C120.361 181.925 131.399 170.822 145.053 170.822Z" fill="#FF373D"/>
<path d="M170.528 146.783C170.475 146.207 170.475 145.631 170.475 145.055C170.528 138.561 168.121 132.276 163.518 127.668L162.471 126.62C157.92 122.064 151.747 119.603 145.313 119.655C145.208 119.655 145.051 119.655 144.946 119.655C144.842 119.655 144.685 119.655 144.58 119.655C138.146 119.55 131.973 122.064 127.421 126.62L126.375 127.668C121.772 132.276 119.418 138.561 119.418 145.055C119.418 145.631 119.418 146.207 119.365 146.783C118.685 158.985 109.007 168.988 96.8182 169.983C81.4904 171.292 68.8305 158.514 70.0861 143.117C71.08 130.915 81.0719 121.226 93.1562 120.493C93.6794 120.44 94.3071 120.44 94.8303 120.44C101.317 120.493 107.542 118.084 112.146 113.475L113.192 112.428C117.796 107.819 120.15 101.535 120.15 95.0409C120.15 94.2029 120.202 93.3126 120.255 92.4747C121.353 80.4819 131.136 70.9505 143.115 70.0602C157.606 69.0652 169.638 80.5343 169.638 94.779C169.638 94.8837 169.638 95.0409 169.638 95.1456C169.534 101.587 172.045 107.819 176.596 112.375L177.642 113.423C182.246 118.031 188.471 120.44 194.958 120.388C195.481 120.388 196.057 120.388 196.632 120.44C208.821 121.121 218.708 130.862 219.702 143.064C221.01 158.461 208.298 171.187 192.97 169.93C180.886 168.988 171.26 158.933 170.528 146.783Z" fill="#FF373D"/>
<path d="M352.957 181.405L345.608 164.544H307.432L300.082 181.405H291.1L322.947 109.875H329.99L361.94 181.405H352.957ZM310.596 157.391H342.444L326.52 121.013L310.596 157.391ZM428.799 181.405H418.693L398.176 151.975L377.659 181.405H367.554L393.073 144.72L368.779 109.875H378.884L398.074 137.465L417.264 109.875H427.37L403.178 144.72L428.799 181.405ZM497.189 181.405H487.084L466.567 151.975L446.05 181.405H435.944L461.463 144.72L437.169 109.875H447.274L466.464 137.465L485.655 109.875H495.76L471.568 144.72L497.189 181.405ZM515.358 173.435H549.349V181.405H513.317H506.886V109.875H515.358H548.431V117.845H515.358V141.552H541.081V149.319H515.358V173.435ZM568.539 173.435H600.591V181.405H560.067V109.875H568.539V173.435ZM687.559 109.875V117.845H667.756V181.405H659.284V117.845H639.379V109.875H687.559ZM706.238 173.435H740.229V181.405H704.197H697.766V109.875H706.238H739.311V117.845H706.238V141.552H731.961V149.319H706.238V173.435ZM809.946 173.741C803.414 179.361 795.146 182.427 785.959 182.427C767.381 182.427 749.416 167.303 749.416 145.64C749.416 123.976 767.381 108.853 785.959 108.853C795.044 108.853 803.21 111.919 809.64 117.334L804.434 123.261C799.433 119.276 793.002 116.926 786.571 116.926C771.975 116.926 758.194 128.779 758.194 145.64C758.194 162.501 771.975 174.354 786.571 174.354C793.104 174.354 799.637 171.902 804.639 167.814L809.946 173.741ZM864.454 109.875H872.927V181.405H864.454V150.136H828.116V181.405H819.644V109.875H828.116V142.166H864.454V109.875ZM934.988 109.875H943.46V181.405H936.928L893.648 125.407V181.405H885.176V109.875H891.708L934.988 165.975V109.875ZM990.721 108.853C1009.3 108.853 1027.26 123.976 1027.26 145.64C1027.26 167.303 1009.3 182.427 990.721 182.427C972.041 182.427 954.178 167.303 954.178 145.64C954.178 123.976 972.041 108.853 990.721 108.853ZM990.721 174.354C1004.71 174.354 1018.49 162.501 1018.49 145.64C1018.49 128.779 1004.71 116.926 990.721 116.926C976.635 116.926 962.957 128.779 962.957 145.64C962.957 162.501 976.635 174.354 990.721 174.354ZM1046.45 173.435H1078.51V181.405H1037.98V109.875H1046.45V173.435ZM1123.72 108.853C1142.3 108.853 1160.27 123.976 1160.27 145.64C1160.27 167.303 1142.3 182.427 1123.72 182.427C1105.04 182.427 1087.18 167.303 1087.18 145.64C1087.18 123.976 1105.04 108.853 1123.72 108.853ZM1123.72 174.354C1137.71 174.354 1151.49 162.501 1151.49 145.64C1151.49 128.779 1137.71 116.926 1123.72 116.926C1109.64 116.926 1095.96 128.779 1095.96 145.64C1095.96 162.501 1109.64 174.354 1123.72 174.354ZM1238.66 145.436C1240.19 168.325 1224.57 182.427 1206 182.427C1186.91 182.427 1169.45 167.303 1169.45 145.64C1169.45 123.976 1187.32 108.853 1206 108.853C1214.98 108.853 1223.15 111.919 1229.58 117.334L1224.37 123.261C1219.37 119.276 1212.94 116.926 1206.51 116.926C1191.91 116.926 1178.23 128.779 1178.23 145.64C1178.23 162.501 1191.5 174.354 1206 174.354C1218.65 174.354 1228.76 167.508 1230.7 152.793H1209.88V145.436H1238.66ZM1257.95 109.875V181.405H1249.48V109.875H1257.95ZM1278.67 173.435H1312.67V181.405H1276.63H1270.2V109.875H1278.67H1311.75V117.845H1278.67V141.552H1304.4V149.319H1278.67V173.435ZM1345.33 108.649C1356.46 108.649 1364.62 116.006 1367.68 123.67L1361.25 127.144C1357.99 120.604 1352.78 116.313 1345.33 116.313C1337.47 116.313 1332.06 120.809 1332.06 127.042C1332.06 132.867 1335.73 136.545 1343.49 139.509L1348.7 141.45C1361.56 146.253 1369.62 151.771 1369.62 163.114C1369.62 175.376 1357.88 182.938 1345.74 182.938C1333.59 182.938 1323.59 175.58 1320.83 165.362L1327.67 162.092C1330.12 169.654 1336.55 175.172 1345.74 175.172C1353.9 175.172 1360.84 170.471 1360.84 163.216C1360.84 155.041 1355.13 151.975 1346.66 148.706L1341.35 146.662C1330.53 142.574 1323.59 136.954 1323.59 126.838C1323.59 116.415 1332.77 108.649 1345.33 108.649Z" fill="#FF373D"/>
</svg>
