<svg width="81" height="19" viewBox="0 0 81 19" fill="none" xmlns="http://www.w3.org/2000/svg">
<mask id="mask0_40000522_2038" style="mask-type:luminance" maskUnits="userSpaceOnUse" x="0" y="0" width="81" height="19">
<path d="M80.6001 0.460938H0.600098V18.5417H80.6001V0.460938Z" fill="white"/>
</mask>
<g mask="url(#mask0_40000522_2038)">
<path d="M39.6149 5.15531C37.9896 5.15531 36.3877 5.85291 35.1648 7.22443V0.460938H32.7446V11.8477C32.7446 11.8474 32.7446 11.848 32.7446 11.8477C32.7446 15.5443 35.7419 18.5417 39.4392 18.5417C43.1365 18.5417 46.1337 15.5451 46.1337 11.8485C46.1337 8.15203 43.3121 5.15531 39.6149 5.15531ZM39.4392 15.9637C37.1659 15.9637 35.3231 14.1213 35.3231 11.8485C35.3231 9.57572 37.1659 7.73323 39.4392 7.73323C41.7125 7.73323 43.5553 9.57572 43.5553 11.8485C43.5553 14.1213 41.7125 15.9637 39.4392 15.9637Z" fill="#121212"/>
<path d="M54.609 5.15531C52.9837 5.15531 51.3819 5.85291 50.1589 7.22443V0.460938H47.7388V11.8477C47.7388 11.8474 47.7388 11.848 47.7388 11.8477C47.7388 15.5443 50.736 18.5417 54.4333 18.5417C58.1306 18.5417 61.1279 15.5451 61.1279 11.8485C61.1279 8.15203 58.3062 5.15531 54.609 5.15531ZM54.4333 15.9637C52.1601 15.9637 50.3172 14.1213 50.3172 11.8485C50.3172 9.57572 52.1601 7.73323 54.4333 7.73323C56.7066 7.73323 58.5494 9.57572 58.5494 11.8485C58.5494 14.1213 56.7066 15.9637 54.4333 15.9637Z" fill="#121212"/>
<path d="M19.1274 13.0181V5.51562H21.7232V12.9946C21.7232 14.9056 22.8323 16.1325 24.6966 16.1325C26.5844 16.1325 27.6699 14.9528 27.6699 12.9946V5.51562H30.2893V13.0181C30.2893 16.4863 28.1891 18.5389 24.6966 18.5389C21.2984 18.5389 19.1274 16.4156 19.1274 13.0181Z" fill="#121212"/>
<path d="M65.8111 0.460938H63.2153V18.235H65.8111V0.460938Z" fill="#121212"/>
<path d="M80.5062 12.8788H70.5714C70.949 14.8606 72.3414 16.2054 74.7956 16.2054C76.2351 16.2054 77.9813 15.6627 79.114 14.837L80.1996 16.748C78.9016 17.7153 76.8486 18.5175 74.7011 18.5175C69.9343 18.5175 67.8813 15.1908 67.8813 11.8407C67.8813 9.92959 68.4713 8.34882 69.6749 7.09835C70.8783 5.84793 72.4595 5.21094 74.3708 5.21094C76.1878 5.21094 77.6981 5.77719 78.8544 6.93318C80.0108 8.08927 80.6005 9.64639 80.6005 11.6282C80.6005 11.9822 80.5769 12.4069 80.5062 12.8788ZM70.5714 10.7553H77.9813C77.769 8.7499 76.2823 7.45233 74.3708 7.45233C72.4121 7.45233 70.949 8.7735 70.5714 10.7553Z" fill="#121212"/>
<path d="M10.8864 5.15531C9.26108 5.15531 7.65919 5.85291 6.43623 7.22443V0.460938H4.01611V11.8477C4.01611 11.8474 4.01611 11.848 4.01611 11.8477C4.01611 15.5443 7.01335 18.5417 10.7107 18.5417C14.408 18.5417 17.4053 15.5451 17.4053 11.8485C17.4053 8.15203 14.5837 5.15531 10.8864 5.15531ZM10.7107 15.9637C8.43741 15.9637 6.59456 14.1213 6.59456 11.8485C6.59456 9.57572 8.43741 7.73323 10.7107 7.73323C12.9839 7.73323 14.8268 9.57572 14.8268 11.8485C14.8268 14.1213 12.9839 15.9637 10.7107 15.9637Z" fill="#121212"/>
<path d="M2.25556 15.2344C1.34125 15.2344 0.600098 15.9755 0.600098 16.8895C0.600098 17.8036 1.34125 18.5447 2.25556 18.5447C3.16987 18.5447 3.91102 17.8036 3.91102 16.8895C3.91102 15.9755 3.16987 15.2344 2.25556 15.2344Z" fill="#0947D7"/>
</g>
</svg>
