<svg width="113" height="27" viewBox="0 0 113 27" fill="none" xmlns="http://www.w3.org/2000/svg">
<g clip-path="url(#clip0_40000522_2050)">
<path d="M15.2925 15.5692L22.8851 19.8293L23.16 16.5999L21.0643 14.3496L17.9551 13.8342L15.2925 15.5692Z" fill="#F15A22"/>
<path d="M16.5815 0.896729L22.8858 19.8268L29.1901 13.5053L16.5815 0.896729Z" fill="#F58220"/>
<path d="M15.5501 10.9124L15.2925 15.5676L24.9808 13.5062L15.5501 10.9124Z" fill="#0057A8"/>
<path d="M10.6903 20.2398L11.9443 18.5736L11.721 16.5466L8.62894 14.5368L3.95654 13.5061L10.6903 20.2398Z" fill="#EF4123"/>
<path d="M3.95654 13.5057L11.721 16.5462L15.8952 1.58423L3.95654 13.5057Z" fill="#F15A22"/>
<path d="M10.689 20.2384L16.581 26.1304L22.0951 20.5992L11.7196 16.5452L10.689 20.2384Z" fill="#F58220"/>
<path d="M103.846 13.6397V14.4471C103.846 15.495 102.901 16.2851 101.665 16.2851C100.548 16.2851 100.05 15.598 100.05 14.9453V14.9109C100.05 14.3269 100.376 13.6226 101.939 13.6226H103.846V13.6397ZM102.008 9.74035C100.909 9.74035 100.136 10.0324 99.5174 10.3416L99.4487 10.3759L99.7923 11.3723L99.861 11.3379C100.411 11.0802 101.046 10.8226 101.871 10.8226C103.108 10.8226 103.812 11.3894 103.812 12.7121H101.802C99.9297 12.7121 98.8475 13.5367 98.8475 14.9624V14.9968C98.8475 16.4913 100.153 17.2643 101.441 17.2643C102.627 17.2643 103.382 16.7146 103.812 16.1821V17.1097H104.911V12.7121C104.911 11.8017 104.671 11.0459 104.19 10.5477C103.726 10.0152 102.97 9.74035 102.008 9.74035ZM37.591 6.87164L36.4058 7.55876V17.1097H37.591V6.87164ZM90.396 7.33545H89.1763V7.66183V8.60661H90.396V7.33545ZM42.8647 9.74035C41.9199 9.74035 41.164 10.1354 40.6315 10.9428V9.89495H39.4806V17.1097H40.6315V12.987C40.6315 11.733 41.4389 10.8569 42.5726 10.8569C43.6892 10.8569 44.3591 11.6299 44.3591 12.9183V17.1097H45.5101V12.6606C45.5101 11.8017 45.2696 11.0802 44.8058 10.5649C44.342 10.0324 43.672 9.74035 42.8647 9.74035ZM57.1223 13.5023V13.5367C57.1223 15.0483 56.0917 16.1821 54.7174 16.1821C53.3604 16.1821 52.2953 15.014 52.2953 13.5195V13.4851C52.2953 11.9735 53.326 10.8226 54.6831 10.8226C56.0573 10.8226 57.1223 12.0078 57.1223 13.5023ZM54.7174 9.74035C53.7211 9.74035 52.8107 10.1354 52.1407 10.8569C51.488 11.5612 51.1272 12.506 51.1272 13.5023V13.5367C51.1272 15.6324 52.6904 17.2643 54.7002 17.2643C55.6966 17.2643 56.607 16.8692 57.2941 16.1477C57.9469 15.4434 58.3248 14.4986 58.3248 13.5023V13.468C58.3076 11.3894 56.7272 9.74035 54.7174 9.74035ZM60.8671 11.4753V9.89495H59.7162V17.1097H60.8671V14.2238C60.8671 12.2999 61.8806 11.0115 63.461 11.0115H63.6156V9.77471H63.5469C62.4303 9.72318 61.4512 10.3588 60.8671 11.4753ZM72.5309 9.74035C71.5346 9.74035 70.7616 10.1698 70.1604 11.0631C69.7137 10.2042 68.9579 9.74035 67.9788 9.74035C66.8966 9.74035 66.2782 10.3244 65.8831 10.9085V9.89495H64.7321V17.1097H65.8831V13.0042C65.8831 11.7502 66.6389 10.8569 67.6867 10.8569C68.7346 10.8569 69.353 11.6127 69.353 12.8839V17.1097H70.5039V12.9698C70.5039 12.3342 70.6929 11.7845 71.0364 11.4066C71.3456 11.0631 71.7923 10.8569 72.2904 10.8569C73.3555 10.8569 73.9567 11.6127 73.9567 12.9183V17.1097H75.1076V12.6606C75.1076 10.8569 74.1285 9.74035 72.5309 9.74035ZM87.7849 10.9772V9.89495H85.6205V7.38698L84.4696 8.05692V9.89495H83.2156V10.9772H84.4696V15.1686C84.4696 16.9723 85.7064 17.2299 86.445 17.2299C86.9088 17.2299 87.3039 17.1269 87.699 16.9207L87.7334 16.9035V15.8385L87.6303 15.89C87.2867 16.0618 87.0291 16.1305 86.6855 16.1305C85.964 16.1305 85.6205 15.7698 85.6205 15.0311V10.9772H87.7849ZM97.3702 15.1514C96.7518 15.8385 96.099 16.1821 95.3604 16.1821C94.0205 16.1821 92.9555 15.014 92.9555 13.5195V13.4851C92.9555 11.9907 93.9861 10.8226 95.2917 10.8226C96.2193 10.8226 96.7861 11.3207 97.2843 11.8704L97.3358 11.9391L98.1088 11.0974L98.0573 11.0459C97.5248 10.4447 96.7174 9.75753 95.3088 9.75753C94.3469 9.75753 93.4536 10.1526 92.7837 10.8741C92.1309 11.5784 91.7702 12.5232 91.7702 13.5195V13.5539C91.7702 14.5502 92.1309 15.4778 92.7837 16.1821C93.4536 16.9035 94.3469 17.2986 95.3088 17.2986C96.7346 17.2986 97.5591 16.56 98.126 15.9072L98.1775 15.8557L97.4389 15.117L97.3702 15.1514ZM81.3432 13.6397V14.4471C81.3432 15.495 80.3984 16.2851 79.1616 16.2851C78.045 16.2851 77.5469 15.598 77.5469 14.9453V14.9109C77.5469 14.3269 77.8732 13.6226 79.4364 13.6226H81.3432V13.6397ZM79.5051 9.74035C78.4058 9.74035 77.6328 10.0324 77.0144 10.3416L76.9456 10.3759L77.2892 11.3723L77.3579 11.3379C77.9076 11.0802 78.5432 10.8226 79.3677 10.8226C80.6045 10.8226 81.3088 11.3894 81.3088 12.7121H79.299C77.4266 12.7121 76.3444 13.5367 76.3444 14.9624V14.9968C76.3444 16.4913 77.6499 17.2643 78.9383 17.2643C80.1236 17.2643 80.8794 16.7146 81.326 16.1821V17.1097H82.4254V12.7121C82.4254 11.8017 82.1849 11.0459 81.7211 10.5477C81.2229 10.0152 80.4843 9.74035 79.5051 9.74035ZM48.7739 9.22502C48.7739 8.19434 49.0487 7.79925 49.8561 7.79925C50.1653 7.79925 50.4229 7.85079 50.818 7.97103L50.8867 7.98821V6.92318L50.8696 6.906C50.526 6.76858 50.1996 6.71704 49.7358 6.71704C49.1174 6.71704 48.5849 6.92318 48.2413 7.28392C47.8463 7.69619 47.6401 8.34894 47.6401 9.15631V9.87778H46.3861V10.96H47.6401V17.0925H48.791V10.96H50.9555V9.87778H48.791V9.22502H48.7739ZM90.3616 9.89495H89.2107V10.668V17.1097H90.3616V9.89495ZM105.375 9.89495V10.0324H105.633V10.7367H105.787V10.0324H106.045V9.89495H105.375ZM106.2 10.7367H106.337V10.1354L106.595 10.5305L106.852 10.1354V10.7367H107.007V9.89495H106.852L106.595 10.2901L106.337 9.89495H106.182V10.7367H106.2Z" fill="#414042"/>
</g>
<defs>
<clipPath id="clip0_40000522_2050">
<rect width="112" height="25.519" fill="white" transform="translate(0.399902 0.740479)"/>
</clipPath>
</defs>
</svg>
