<svg width="81" height="59" viewBox="0 0 81 59" fill="none" xmlns="http://www.w3.org/2000/svg">
<path fill-rule="evenodd" clip-rule="evenodd" d="M35.3722 16.8156C35.5033 18.0936 36.1002 19.2773 37.0476 20.138C37.9949 20.9985 39.2255 21.4749 40.5013 21.4749C41.7772 21.4749 43.0077 20.9985 43.9551 20.138C44.9025 19.2773 45.4995 18.0936 45.6306 16.8156C45.6479 16.6409 45.6565 16.4639 45.6565 16.2846C45.6624 15.599 45.5333 14.9191 45.2769 14.2841C45.0204 13.6491 44.6416 13.0715 44.1623 12.5847C43.683 12.0979 43.1127 11.7115 42.4844 11.4477C41.856 11.1841 41.1821 11.0483 40.5013 11.0483C39.8207 11.0483 39.1467 11.1841 38.5183 11.4477C37.89 11.7115 37.3197 12.0979 36.8404 12.5847C36.3612 13.0715 35.9823 13.6491 35.7259 14.2841C35.4694 14.9191 35.3404 15.599 35.3462 16.2846C35.3462 16.4632 35.3549 16.6407 35.3722 16.8156ZM26.6003 16.2003C26.6003 13.4314 27.4155 10.7245 28.9431 8.42217C30.4706 6.11982 32.6417 4.32534 35.1819 3.26568C37.7221 2.20602 40.5173 1.92876 43.214 2.46897C45.9107 3.00918 48.3878 4.3426 50.332 6.30059C52.2761 8.25859 53.6001 10.7532 54.1364 13.469C54.6728 16.1848 54.3974 18.9998 53.3452 21.5579C52.2928 24.1162 50.5109 26.3026 48.2247 27.8409C45.9385 29.3791 43.2507 30.2001 40.5011 30.2C38.6757 30.2 36.868 29.8379 35.1815 29.1343C33.4949 28.4307 31.9625 27.3995 30.6717 26.0995C29.3808 24.7995 28.3569 23.2562 27.6584 21.5578C26.9598 19.8592 26.6003 18.0388 26.6003 16.2003Z" fill="#FF2400"/>
<g clip-path="url(#clip0_40000136_45633)">
<path d="M9.88906 49.8615C9.88906 53.0103 7.79467 54.3826 5.81793 54.3826C3.60553 54.3826 1.89917 52.6942 1.89917 50.0023C1.89917 47.1522 3.68925 45.4812 5.95287 45.4812C8.30128 45.4812 9.88906 47.2577 9.88906 49.8615ZM3.40243 49.9493C3.40243 51.8145 4.43318 53.2218 5.88577 53.2218C7.30469 53.2218 8.36888 51.8318 8.36888 49.9145C8.36888 48.4715 7.67585 46.642 5.9192 46.642C4.16255 46.642 3.40243 48.3313 3.40243 49.9493Z" fill="#333333"/>
<path d="M18.6074 51.8689C18.6074 52.7483 18.624 53.524 18.675 54.191H17.3576L17.2733 52.8014H17.239C16.9636 53.2909 16.5683 53.6954 16.0934 53.9736C15.6186 54.2518 15.0814 54.3937 14.5367 54.3847C13.2524 54.3847 11.7156 53.646 11.7156 50.6538V45.6765H13.2021V50.3912C13.2021 52.0098 13.6753 53.1001 15.0266 53.1001C15.4501 53.0927 15.862 52.9552 16.2106 52.7048C16.5593 52.4544 16.8292 52.1023 16.9864 51.6928C17.076 51.4394 17.1216 51.1714 17.1211 50.9014V45.6765H18.6074V51.8689Z" fill="#333333"/>
<path d="M26.2291 52.6052C26.8176 52.989 27.4939 53.2021 28.188 53.2223C29.2692 53.2223 29.7772 52.6596 29.7772 51.9558C29.7772 51.2166 29.3548 50.8118 28.257 50.3896C26.7871 49.8443 26.0946 48.9997 26.0946 47.9797C26.0946 46.6074 27.1591 45.4814 28.9158 45.4814C29.6183 45.4743 30.3107 45.6561 30.9259 46.0093L30.5545 47.1353C30.0518 46.8124 29.4727 46.6418 28.8821 46.6425C28.0035 46.6425 27.5135 47.1701 27.5135 47.8038C27.5135 48.5076 28.0035 48.8238 29.068 49.2462C30.4869 49.8095 31.2128 50.5478 31.2128 51.8149C31.2128 53.3101 30.098 54.3836 28.1557 54.3836C27.353 54.3937 26.5616 54.1874 25.8582 53.7847L26.2291 52.6052Z" fill="#333333"/>
<path d="M40.7577 52.6052C41.3462 52.9889 42.0228 53.2019 42.7174 53.2223C43.7977 53.2223 44.3062 52.6596 44.3062 51.9558C44.3062 51.2166 43.8839 50.8118 42.7862 50.3896C41.3164 49.8443 40.6243 48.9997 40.6243 47.9797C40.6243 46.6074 41.6879 45.4814 43.4442 45.4814C44.1468 45.4742 44.8395 45.6561 45.4547 46.0093L45.0833 47.1353C44.5803 46.8125 44.0017 46.6418 43.4107 46.6425C42.5319 46.6425 42.042 47.1701 42.042 47.8038C42.042 48.5076 42.5319 48.8238 43.5968 49.2462C45.0157 49.8095 45.7419 50.5478 45.7419 51.815C45.7419 53.3101 44.6268 54.3836 42.6845 54.3836C41.882 54.3936 41.0907 54.1873 40.3875 53.7847L40.7577 52.6052Z" fill="#333333"/>
<path d="M61.2767 47.9817C61.2767 47.102 61.2599 46.3802 61.2097 45.6772H62.5096L62.5772 47.049H62.6274C62.873 46.5645 63.2432 46.1613 63.6972 45.8846C64.1505 45.6079 64.6696 45.469 65.1954 45.4834C65.7046 45.4776 66.2026 45.6396 66.6181 45.946C67.0336 46.2525 67.3455 46.6879 67.5092 47.1901H67.5434C67.7691 46.758 68.0804 46.3804 68.4556 46.0815C68.9728 45.6687 69.6122 45.4571 70.2627 45.4834C71.3443 45.4834 72.9486 46.2225 72.9486 49.1781V54.1921H71.4962V49.3714C71.4962 47.7351 70.922 46.7502 69.7226 46.7502C69.3263 46.7676 68.9449 46.9122 68.6299 47.1641C68.3155 47.416 68.0835 47.763 67.9657 48.1576C67.8882 48.4078 67.8485 48.669 67.8472 48.9318V54.1921H66.3948V49.09C66.3948 47.7351 65.8206 46.7502 64.6888 46.7502C63.7598 46.7502 63.0838 47.5244 62.8475 48.2984C62.7644 48.5413 62.7241 48.798 62.7291 49.0558V54.1921H61.2761L61.2767 47.9817Z" fill="#333333"/>
<path d="M75.1424 52.6066C75.7309 52.9903 76.4075 53.2034 77.102 53.2237C78.1824 53.2237 78.6909 52.661 78.6909 51.9571C78.6909 51.218 78.2686 50.8132 77.1709 50.391C75.6993 49.8443 75.0072 48.9997 75.0072 47.9797C75.0072 46.6074 76.0713 45.4814 77.8282 45.4814C78.5303 45.4743 79.223 45.6561 79.8382 46.0093L79.4667 47.1353C78.9638 46.8124 78.3851 46.6417 77.7941 46.6425C76.916 46.6425 76.4261 47.1701 76.4261 47.8038C76.4261 48.5077 76.916 48.8238 77.9802 49.2462C79.3979 49.8095 80.1247 50.5493 80.1247 51.815C80.1247 53.3101 79.0096 54.3836 77.0679 54.3836C76.2655 54.3937 75.4741 54.1874 74.7703 53.7847L75.1424 52.6066Z" fill="#333333"/>
<path d="M38.116 45.7781L36.494 50.6591C36.2917 51.2762 36.1228 52.0808 35.9707 52.3231H35.937C35.8023 52.0808 35.5992 51.2571 35.4128 50.6961L33.6227 45.7781H32.0007L35.025 53.5717C35.0777 53.6915 35.1118 53.8192 35.126 53.9501C35.1074 54.0755 35.0675 54.1963 35.008 54.3069C34.7258 54.9733 34.2975 55.5614 33.7574 56.024C33.3743 56.3593 32.9328 56.615 32.457 56.7769L32.861 58.0709C33.5297 57.9019 34.1462 57.5587 34.6528 57.0737C35.6665 56.1592 36.3927 54.7159 37.4569 51.7952L39.6868 45.7781H38.116Z" fill="#333333"/>
<path d="M59.3853 50.1458C59.425 49.9179 59.4418 49.6864 59.4362 49.4549C59.4362 47.8854 58.7249 45.45 56.0495 45.45C53.6619 45.45 52.2058 47.4865 52.2058 50.0611C52.2058 52.6357 53.714 54.3856 56.2356 54.3856C57.1677 54.3939 58.0892 54.1845 58.9333 53.7726L58.5618 52.5945C57.3153 53.1227 56.3838 53.2282 55.6874 53.0904C55.4039 53.0292 55.1311 52.9221 54.8793 52.7729C53.7773 52.0693 53.6446 50.554 53.6291 50.237C53.6291 50.2165 53.6272 50.1447 53.6272 50.1447L59.3853 50.1458ZM55.9311 46.654C57.6074 46.654 58.0136 48.2055 57.9968 49.1755H53.6452C53.7636 48.2055 54.4241 46.654 55.9311 46.654Z" fill="#333333"/>
<path d="M24.3959 52.6204C24.1243 52.8291 23.8056 52.9612 23.4707 53.0039C22.9559 52.9955 22.6012 52.6243 22.6012 51.5845V46.7475H24.6965V45.7786H22.6012V42.6531L20.9714 43.8088V51.495C20.9714 52.4981 21.2117 53.2541 21.634 53.7111C21.8738 53.9733 22.1768 54.1638 22.5113 54.2628C22.8924 54.3837 23.2964 54.4044 23.6872 54.3232C24.0779 54.2419 24.4432 54.0613 24.7506 53.7972L24.3959 52.6204Z" fill="#333333"/>
<path d="M50.9444 52.6204C50.6709 52.829 50.3509 52.961 50.0148 53.0039C49.5007 52.9955 49.1416 52.6243 49.1416 51.5845V46.7475H51.2371V45.7786H49.1416V42.6531L47.5125 43.8088V51.495C47.5125 52.4981 47.7562 53.2541 48.1785 53.7111C48.4191 53.9735 48.7224 54.1641 49.0579 54.2628C49.4393 54.3837 49.843 54.4044 50.2337 54.3231C50.6244 54.2419 50.9903 54.0612 51.2979 53.7972L50.9444 52.6204Z" fill="#333333"/>
</g>
<defs>
<clipPath id="clip0_40000136_45633">
<rect width="80" height="20" fill="white" transform="translate(0.600342 38.2)"/>
</clipPath>
</defs>
</svg>
