<svg viewBox="0 0 160.2 40" xmlns:xlink="http://www.w3.org/1999/xlink" xmlns="http://www.w3.org/2000/svg" id="Layer_1">
  <defs>
    <style>
      .cls-1 {
        fill: #705af8;
      }

      .cls-2 {
        fill: #383838;
      }

      .cls-3 {
        fill: #fc7878;
      }

      .cls-4, .cls-5 {
        fill: none;
      }

      .cls-6 {
        fill: #12d965;
      }

      .cls-5 {
        clip-rule: evenodd;
      }
    </style>
    <clipPath id="clippath">
      <path d="M-714.001-630.004h-83.739c-10.88,0-19.699,9.006-19.699,20.116s8.59,19.884,19.47,19.884h83.739c10.879,0,19.928-8.773,19.928-19.884s-8.819-20.116-19.699-20.116" class="cls-5"></path>
    </clipPath>
    <clipPath id="clippath-2">
      <path d="M-714.694-595.494c-8.217,0-14.902-6.684-14.902-14.902s6.685-14.902,14.902-14.902,14.902,6.684,14.902,14.902-6.685,14.902-14.902,14.902" class="cls-5"></path>
    </clipPath>
    <clipPath id="clippath-4">
      <circle r="10.196" cy="-610.396" cx="-714.694" class="cls-4"></circle>
    </clipPath>
    <clipPath id="clippath-6">
      <path d="M-782.145-610.396c0-8.217-6.685-14.902-14.902-14.902s-14.902,6.685-14.902,14.902,6.685,14.902,14.902,14.902c3.902,0,7.456-1.507,10.116-3.97v1.577c0,1.321,1.072,2.393,2.394,2.393s2.393-1.072,2.393-2.393v-12.031c0-.047-.002-.092-.004-.133.002-.114.004-.23.004-.345M-797.047-600.28c-5.578,0-10.116-4.538-10.116-10.116s4.537-10.116,10.116-10.116,10.116,4.538,10.116,10.116-4.538,10.116-10.116,10.116" class="cls-5"></path>
    </clipPath>
    <clipPath id="clippath-8">
      <path d="M-764.761-595.494c-8.288,0-15.032-6.685-15.032-14.902s6.744-14.902,15.032-14.902c3.717,0,7.285,1.355,10.047,3.817.99.883,1.072,2.394.182,3.376-.891.982-2.416,1.062-3.406.179-1.876-1.672-4.299-2.591-6.823-2.591-5.629,0-10.209,4.539-10.209,10.12s4.58,10.121,10.209,10.121c2.526,0,4.95-.922,6.826-2.595.99-.884,2.515-.804,3.406.178.891.981.811,2.493-.179,3.376-2.763,2.464-6.333,3.822-10.053,3.822" class="cls-5"></path>
    </clipPath>
    <clipPath id="clippath-10">
      <path d="M-730.434-599.714l-12.494-10.794,12.494-10.571c.985-.84,1.121-2.343.305-3.357-.816-1.013-2.276-1.153-3.261-.313l-13.536,11.56v-9.725c0-1.317-1.037-2.383-2.316-2.383s-2.315,1.066-2.315,2.383v25.035c0,1.317,1.037,2.384,2.315,2.384s2.316-1.067,2.316-2.384v-9.725l13.536,11.56c.433.369.956.549,1.477.549.665,0,1.326-.294,1.784-.862.816-1.014.68-2.517-.305-3.357" class="cls-5"></path>
    </clipPath>
  </defs>
  <path d="M20.821,34.508c-.931-.643-1.783-1.45-2.506-2.364,5.248-1.657,9.064-6.563,9.064-12.341v-10.955c0-.65.143-1.257.394-1.814-.723-.75-1.239-1.685-1.475-2.735-1.024,1.235-1.64,2.821-1.64,4.549v10.955c0,4.806-3.337,8.848-7.826,9.934-.68-1.464-1.067-3.078-1.067-4.735V8.849c0-3.942-3.215-7.149-7.167-7.149S1.432,4.907,1.432,8.849v2.25h2.721v-2.25c0-2.442,1.998-4.435,4.446-4.435s4.446,1.992,4.446,4.435v16.154c0,1.743.336,3.442.938,5.013-4.539-.186-8.313-3.328-9.465-7.541H1.711c1.239,5.856,6.458,10.262,12.687,10.262.315,0,.63-.014.945-.036,1.375,2.128,3.279,3.864,5.47,4.956v-3.149h.007Z" class="cls-2"></path>
  <path d="M37.489,4.478c-.265,1.036-.809,1.957-1.554,2.678.215.521.337,1.093.337,1.685v16.154c0,3.385-1.633,6.592-4.045,8.705v3.392c3.959-2.442,6.766-7.056,6.766-12.098V8.848c0-1.643-.566-3.157-1.504-4.371Z" class="cls-2"></path>
  <path d="M31.919,6.114c1.693,0,3.065-1.369,3.065-3.057s-1.372-3.057-3.065-3.057-3.065,1.369-3.065,3.057,1.372,3.057,3.065,3.057Z" class="cls-6"></path>
  <path d="M29.592,38.229v-3.529l-3.065-1.771-3.072,1.771v3.529l3.072,1.771,3.065-1.771Z" class="cls-3"></path>
  <path d="M5.65,13.968H0v5.636h5.65v-5.636Z" class="cls-1"></path>
  <path d="M58.489,19.118c0,2.636-1.848,4.4-4.297,4.4-2.642,0-3.13-1.979-3.13-3.664v-8.578h-2.37v9.121c0,3.336,1.905,5.321,4.955,5.321,2.07,0,3.645-.95,4.841-2.636v2.307h2.363v-14.114h-2.363v7.843Z" class="cls-2"></path>
  <path d="M70.95,10.954c-2.07,0-3.674.95-4.841,2.657v-2.336h-2.37v14.114h2.37v-7.814c0-2.636,1.848-4.4,4.268-4.4,2.642,0,3.158,1.979,3.158,3.664v8.55h2.37v-9.093c0-3.364-1.905-5.343-4.955-5.343Z" class="cls-2"></path>
  <path d="M80.997,11.275h-2.37v14.114h2.37v-14.114Z" class="cls-2"></path>
  <path d="M80.997,6.011h-2.37v2.5h2.37v-2.5Z" class="cls-2"></path>
  <path d="M95.878,22.239l-4.519-10.964h-4.139v-1.707c0-1.357.68-1.843,1.984-1.843.709,0,1.282.136,1.712.243l.329-1.957c-.516-.193-1.389-.3-2.177-.3-2.585,0-4.218,1.279-4.218,3.907v1.657h-2.42v1.957h2.42v12.157h2.37v-12.157h2.249l5.156,12.107-.379.843c-.544,1.193-1.196,2.143-2.506,2.143-.623,0-1.196-.214-1.69-.543l-1.031,1.736c.816.6,1.769.872,2.886.872,2.635,0,3.781-1.493,4.87-4.343l5.657-14.764h-2.557l-3.996,10.957Z" class="cls-2"></path>
  <path d="M115.443,23.761c-.788,0-1.117-.486-1.117-1.522v-6.678c0-3.257-2.256-4.614-5.471-4.614-2.234,0-4.003.65-5.657,1.793l1.089,1.793c1.303-.979,2.886-1.493,4.411-1.493,1.497,0,3.208.486,3.208,2.064,0,1.793-2.313,1.793-4.49,2.093-2.012.271-4.898.95-4.898,4.236,0,2.686,1.905,4.286,4.82,4.286,1.712,0,3.616-.571,4.87-2.364.215,1.6,1.418,2.25,2.75,2.25.465,0,1.167-.079,1.633-.271l-.301-1.793c-.193.143-.516.221-.845.221ZM111.962,19.961c0,2.686-2.012,3.8-4.082,3.8-1.633,0-2.936-.707-2.936-2.386,0-1.736,1.332-2.114,2.936-2.386,1.74-.3,3.129-.271,4.082-1.464v2.436Z" class="cls-2"></path>
  <path d="M125.074,10.954c-1.934,0-3.702.736-5.034,2.657v-2.336h-2.37v18.836h2.37v-7.028c1.332,1.9,3.101,2.636,5.034,2.636,3.996,0,6.503-3.2,6.503-7.379,0-4.157-2.479-7.386-6.503-7.386ZM124.616,23.546c-2.965,0-4.569-2.307-4.569-5.186s1.575-5.207,4.569-5.207,4.433,2.336,4.433,5.207-1.447,5.186-4.433,5.186Z" class="cls-2"></path>
  <path d="M140.936,10.954c-1.933,0-3.703.736-5.034,2.657v-2.336h-2.37v18.836h2.37v-7.028c1.332,1.9,3.101,2.636,5.034,2.636,3.996,0,6.503-3.2,6.503-7.379.006-4.157-2.471-7.386-6.503-7.386ZM140.478,23.546c-2.965,0-4.568-2.307-4.568-5.186s1.575-5.207,4.568-5.207,4.432,2.336,4.432,5.207-1.439,5.186-4.432,5.186Z" class="cls-2"></path>
  <path d="M154.685,17.004c-1.905-.35-3.509-.679-3.509-2.114,0-1.357,1.497-1.9,2.993-1.9,1.712,0,3.187.65,4.189,1.821l1.576-1.493c-1.118-1.164-3.073-2.364-5.744-2.364-2.75,0-5.307,1.279-5.307,4.15,0,2.772,2.285,3.579,5.064,4.1,2.613.486,3.888.757,3.888,2.2,0,1.521-1.389,2.279-3.294,2.279-1.933,0-3.566-.786-4.655-2.279l-1.74,1.3c1.282,1.929,3.481,3.014,6.26,3.014,3.645,0,5.793-1.821,5.793-4.507.006-3.014-2.686-3.664-5.514-4.207Z" class="cls-2"></path>
</svg>