<svg width="530" height="569" viewBox="0 0 530 569" fill="none" xmlns="http://www.w3.org/2000/svg">
<path d="M691.287 503.813L661.085 473.332H517.328C517.237 473.696 517.079 474.049 516.843 474.322H660.68L690.881 504.803H792.082V503.813H691.287Z" fill="#BABABA"/>
<path d="M691.287 493.856L661.085 463.375H529.277C529.367 463.694 529.401 464.035 529.367 464.376H660.68L690.881 494.857H763.504V493.867H691.298L691.287 493.856Z" fill="#BABABA"/>
<path d="M470.488 300.685C470.488 350.69 430.321 391.217 380.786 391.217C331.251 391.217 291.084 350.678 291.084 300.685C291.084 250.691 331.251 210.152 380.786 210.152C430.321 210.152 470.488 250.691 470.488 300.685Z" fill="url(#paint0_radial_40000378_5716)"/>
<path d="M415.068 300.686C415.068 319.8 399.714 335.285 380.786 335.285C361.858 335.285 346.504 319.789 346.504 300.686C346.504 281.582 361.858 266.086 380.786 266.086C399.714 266.086 415.068 281.582 415.068 300.686Z" fill="url(#paint1_radial_40000378_5716)"/>
<path d="M431.731 320.518L444.391 330.804L438.427 341.226L423.264 335.298C420.829 338.336 418.09 341.112 415.08 343.558L420.953 358.861L410.627 364.88L400.436 352.103C396.873 353.491 393.131 354.526 389.241 355.141L386.75 371.342H374.823L372.331 355.141C368.442 354.526 364.699 353.502 361.137 352.103L350.946 364.88L340.619 358.861L346.493 343.558C343.483 341.1 340.732 338.336 338.308 335.298L323.146 341.226L317.182 330.804L329.842 320.518C328.467 316.911 327.441 313.134 326.843 309.22L310.79 306.706V294.668L326.843 292.154C327.452 288.24 328.467 284.462 329.842 280.855L317.182 270.57L323.146 260.148L338.308 266.076C340.743 263.038 343.483 260.273 346.493 257.816L340.619 242.513L350.946 236.494L361.137 249.271C364.699 247.883 368.442 246.848 372.331 246.244L374.823 230.031H386.75L389.241 246.244C393.131 246.859 396.862 247.883 400.436 249.271L410.627 236.494L420.953 242.513L415.08 257.816C418.09 260.273 420.841 263.038 423.264 266.076L438.427 260.148L444.391 270.57L431.731 280.855C433.106 284.451 434.132 288.228 434.729 292.154L450.783 294.668V306.706L434.729 309.22C434.121 313.134 433.106 316.911 431.731 320.518ZM414.685 300.687C414.685 281.788 399.511 266.474 380.786 266.474C362.061 266.474 346.887 281.788 346.887 300.687C346.887 319.585 362.061 334.9 380.786 334.9C399.511 334.9 414.685 319.585 414.685 300.687Z" fill="#E0E0E0"/>
<path d="M485.054 341.27L510.971 362.319L498.762 383.652L467.727 371.512C462.744 377.724 457.13 383.402 450.963 388.431L462.992 419.765L441.854 432.076L420.998 405.918C413.704 408.763 406.039 410.879 398.091 412.131L392.995 445.297H368.588L363.493 412.131C355.545 410.879 347.879 408.774 340.585 405.918L319.73 432.076L298.592 419.765L310.621 388.431C304.454 383.402 298.84 377.736 293.857 371.512L262.822 383.652L250.624 362.319L276.541 341.27C273.723 333.898 271.626 326.172 270.397 318.151L237.524 313.008V288.375L270.397 283.233C271.626 275.211 273.723 267.474 276.541 260.113L250.624 239.064L262.833 217.731L293.869 229.871C298.851 223.659 304.466 217.981 310.632 212.952L298.603 181.63L319.741 169.308L340.597 195.476C347.902 192.632 355.556 190.516 363.504 189.275L368.6 156.109H393.007L398.102 189.275C406.05 190.516 413.705 192.632 421.01 195.476L441.865 169.319L463.003 181.63L450.974 212.964C457.141 217.993 462.755 223.659 467.738 229.882L498.773 217.742L510.982 239.076L485.065 260.124C487.883 267.497 489.98 275.223 491.209 283.255L524.071 288.398V313.031L491.209 318.174C489.969 326.195 487.883 333.932 485.065 341.293L485.054 341.27ZM467.727 300.686C467.727 252.228 428.8 212.941 380.786 212.941C332.773 212.941 293.846 252.228 293.846 300.686C293.846 349.144 332.773 388.431 380.786 388.431C428.8 388.431 467.727 349.144 467.727 300.686Z" fill="#E0E0E0"/>
<path d="M535.671 300.686C535.671 214.488 466.182 144.367 380.786 144.367C295.39 144.367 225.901 214.488 225.901 300.686C225.901 386.883 295.379 457.004 380.786 457.004C466.193 457.004 535.671 386.883 535.671 300.686ZM534.69 300.686C534.69 386.337 465.652 456.014 380.786 456.014C295.92 456.014 226.882 386.337 226.882 300.686C226.882 215.034 295.92 145.357 380.786 145.357C465.652 145.357 534.69 215.034 534.69 300.686Z" fill="#E0E0E0"/>
<path d="M380.786 119.062C417.018 119.062 450.771 129.927 479.033 148.598V146.22C450.681 127.788 416.951 117.082 380.786 117.082C294.173 117.082 221.516 178.488 203.275 260.418L205.192 260.874C223.229 179.819 295.097 119.073 380.775 119.073L380.786 119.062Z" fill="#E0E0E0"/>
<path d="M532.965 200.195H530.598C549.627 228.992 560.743 263.546 560.743 300.683C560.743 400.83 480.014 482.305 380.786 482.305C281.558 482.305 209.059 408.862 201.461 315.724L199.398 314.814C206.568 409.477 285.188 484.285 380.786 484.285C481.097 484.285 562.716 401.922 562.716 300.672C562.716 263.603 551.769 229.072 532.965 200.184V200.195Z" fill="#E0E0E0"/>
<path d="M250.939 165.36L249.542 163.949C223.613 189.31 204.854 222.089 196.658 258.851L198.575 259.306C206.691 222.909 225.259 190.459 250.928 165.36H250.939Z" fill="#E0E0E0"/>
<path d="M194.414 312.633L192.374 311.734C195.53 367.155 222.282 416.296 262.607 449.075L264.005 447.664C224.255 415.431 197.808 367.132 194.414 312.633Z" fill="#E0E0E0"/>
<path d="M541.026 200.195H538.692C556.944 229.3 567.541 263.763 567.541 300.683C567.541 351.564 547.452 397.792 514.872 431.732L516.27 433.143C549.21 398.839 569.514 352.111 569.514 300.683C569.514 263.819 559.063 229.391 541.026 200.195Z" fill="#E0E0E0"/>
<path d="M479.035 129.259C450.118 112.306 416.558 102.59 380.787 102.59C306.789 102.59 242.226 144.141 208.789 205.331L210.514 206.298C243.613 145.711 307.533 104.57 380.798 104.57C416.625 104.57 450.209 114.411 479.046 131.546V129.248L479.035 129.259Z" fill="#E0E0E0"/>
<path d="M380.787 496.792C321.601 496.792 268.526 469.941 232.857 427.684L231.347 428.958C267.376 471.659 321.004 498.783 380.798 498.783C453.725 498.783 517.487 458.426 551.33 398.693L549.605 397.715C516.101 456.845 452.981 496.792 380.798 496.792H380.787Z" fill="#E0E0E0"/>
<path d="M487.409 176.145C459.068 151.398 422.227 136.311 381.969 136.016V137.005C422.294 137.301 459.158 152.525 487.409 177.465V176.145Z" fill="#E0E0E0"/>
<path d="M504.838 193.906H503.541C519.392 212.429 531.217 234.536 537.598 258.884H538.624C532.3 234.582 520.564 212.475 504.838 193.906Z" fill="#E0E0E0"/>
<path d="M485.278 427.069L484.579 426.363C456.43 450.086 420.231 464.376 380.785 464.376C351.339 464.376 323.697 456.412 299.876 442.508L299.29 443.316C323.28 457.333 351.125 465.366 380.785 465.366C420.502 465.366 456.948 450.962 485.278 427.069Z" fill="#E0E0E0"/>
<path d="M377.335 123.078H384.234V144.866H377.335V123.078Z" fill="#E0E0E0"/>
<path d="M368.89 123.431L370.771 145.137L363.898 145.744L362.017 124.038L368.89 123.431Z" fill="#E0E0E0"/>
<path d="M353.64 125.16L357.389 146.617L350.594 147.826L346.845 126.369L353.64 125.16Z" fill="#E0E0E0"/>
<path d="M338.576 128.212L344.163 149.258L337.499 151.06L331.911 130.014L338.576 128.212Z" fill="#E0E0E0"/>
<path d="M323.852 132.584L331.235 153.059L324.752 155.44L317.368 134.966L323.852 132.584Z" fill="#E0E0E0"/>
<path d="M309.553 138.206L318.677 157.953L312.424 160.896L303.3 141.149L309.553 138.206Z" fill="#E0E0E0"/>
<path d="M295.752 145.164L306.55 164.031L300.575 167.514L289.778 148.647L295.752 145.164Z" fill="#E0E0E0"/>
<path d="M282.684 153.187L295.066 171.035L289.415 175.029L277.032 157.181L282.684 153.187Z" fill="#E0E0E0"/>
<path d="M270.315 162.368L284.191 179.059L278.906 183.534L265.029 166.844L270.315 162.368Z" fill="#E0E0E0"/>
<path d="M482.668 417.798L496.537 434.48L491.252 438.956L477.382 422.274L482.668 417.798Z" fill="#E0E0E0"/>
<path d="M258.799 172.589L274.064 187.996L269.186 192.92L253.921 177.513L258.799 172.589Z" fill="#E0E0E0"/>
<path d="M492.402 408.402L507.659 423.801L502.781 428.724L487.523 413.326L492.402 408.402Z" fill="#E0E0E0"/>
<path d="M248.205 183.792L264.743 197.797L260.308 203.131L243.771 189.126L248.205 183.792Z" fill="#E0E0E0"/>
<path d="M501.28 398.21L517.817 412.215L513.383 417.549L496.845 403.544L501.28 398.21Z" fill="#E0E0E0"/>
<path d="M238.61 195.952L256.294 208.449L252.337 214.153L234.652 201.656L238.61 195.952Z" fill="#E0E0E0"/>
<path d="M509.251 387.212L526.926 399.703L522.969 405.407L505.293 392.916L509.251 387.212Z" fill="#E0E0E0"/>
<path d="M230.098 208.848L248.795 219.742L245.345 225.772L226.649 214.878L230.098 208.848Z" fill="#E0E0E0"/>
<path d="M516.229 375.592L534.915 386.48L531.465 392.511L512.779 381.622L516.229 375.592Z" fill="#E0E0E0"/>
<path d="M222.745 222.429L242.311 231.637L239.395 237.947L219.829 228.739L222.745 222.429Z" fill="#E0E0E0"/>
<path d="M522.187 363.406L541.742 372.609L538.826 378.92L519.271 369.717L522.187 363.406Z" fill="#E0E0E0"/>
<path d="M216.592 236.63L236.879 244.082L234.519 250.625L214.233 243.173L216.592 236.63Z" fill="#E0E0E0"/>
<path d="M527.039 350.685L547.315 358.133L544.956 364.676L524.68 357.228L527.039 350.685Z" fill="#E0E0E0"/>
<path d="M530.792 337.622L551.634 343.258L549.848 349.984L529.006 344.347L530.792 337.622Z" fill="#E0E0E0"/>
<path d="M230.725 337.685L232.512 344.41L211.66 350.053L209.873 343.327L230.725 337.685Z" fill="#E0E0E0"/>
<path d="M549.866 251.372L551.653 258.098L530.812 263.738L529.025 257.012L549.866 251.372Z" fill="#E0E0E0"/>
<path d="M234.529 350.699L236.89 357.242L216.604 364.698L214.244 358.155L234.529 350.699Z" fill="#E0E0E0"/>
<path d="M239.374 363.428L242.29 369.738L222.724 378.946L219.808 372.636L239.374 363.428Z" fill="#E0E0E0"/>
<path d="M245.342 375.588L248.793 381.617L230.099 392.515L226.648 386.485L245.342 375.588Z" fill="#E0E0E0"/>
<path d="M252.33 387.227L256.288 392.93L238.606 405.43L234.648 399.727L252.33 387.227Z" fill="#E0E0E0"/>
<path d="M260.3 398.127L264.734 403.461L248.197 417.466L243.762 412.132L260.3 398.127Z" fill="#E0E0E0"/>
<path d="M269.17 408.456L274.05 413.379L258.787 428.788L253.908 423.865L269.17 408.456Z" fill="#E0E0E0"/>
<path d="M278.894 417.826L284.18 422.301L270.306 438.994L265.02 434.519L278.894 417.826Z" fill="#E0E0E0"/>
<path d="M289.395 426.312L295.047 430.305L282.667 448.155L277.015 444.162L289.395 426.312Z" fill="#E0E0E0"/>
<path d="M300.59 433.87L306.565 437.352L295.771 456.221L289.796 452.739L300.59 433.87Z" fill="#E0E0E0"/>
<path d="M573.807 175.417L586.017 185.327L580.267 195.374L565.646 189.651C563.301 192.575 560.651 195.249 557.754 197.615L563.425 212.372L553.47 218.175L543.651 205.853C540.213 207.195 536.605 208.185 532.863 208.777L530.461 224.398H518.963L516.561 208.777C512.819 208.185 509.211 207.195 505.773 205.853L495.954 218.175L485.999 212.372L491.67 197.615C488.772 195.249 486.123 192.575 483.778 189.651L469.157 195.374L463.407 185.327L475.616 175.417C474.286 171.947 473.305 168.306 472.719 164.529L457.241 162.105V150.5L472.719 148.077C473.305 144.299 474.286 140.658 475.616 137.188L463.407 127.278L469.157 117.232L483.778 122.955C486.123 120.019 488.772 117.357 491.67 114.99L486.01 100.233L495.965 94.4306L505.784 106.753C509.222 105.41 512.83 104.42 516.573 103.829L518.974 88.207H530.473L532.874 103.829C536.617 104.42 540.224 105.41 543.662 106.753L553.482 94.4306L563.436 100.233L557.765 114.99C560.674 117.357 563.312 120.03 565.657 122.955L580.278 117.232L586.028 127.278L573.819 137.188C575.149 140.658 576.13 144.299 576.716 148.077L592.194 150.5V162.105L576.716 164.529C576.13 168.306 575.149 171.947 573.819 175.417H573.807ZM565.646 156.303C565.646 133.479 547.315 114.967 524.689 114.967C502.064 114.967 483.733 133.468 483.733 156.303C483.733 179.138 502.064 197.638 524.689 197.638C547.315 197.638 565.646 179.138 565.646 156.303Z" fill="url(#paint2_linear_40000378_5716)"/>
<path d="M211.482 294.816L219.441 301.278L215.698 307.82L206.172 304.1C204.639 306.011 202.914 307.752 201.031 309.288L204.718 318.902L198.236 322.68L191.832 314.658C189.589 315.535 187.244 316.183 184.798 316.559L183.231 326.742H175.745L174.178 316.559C171.743 316.172 169.387 315.523 167.144 314.658L160.74 322.68L154.258 318.902L157.945 309.288C156.051 307.752 154.326 306.011 152.804 304.1L143.278 307.82L139.535 301.278L147.494 294.816C146.626 292.552 145.983 290.185 145.611 287.716L135.522 286.135V278.58L145.611 276.998C145.995 274.541 146.637 272.163 147.494 269.899L139.535 263.436L143.278 256.882L152.804 260.603C154.337 258.691 156.062 256.951 157.945 255.415L154.258 245.801L160.74 242.023L167.144 250.056C169.387 249.18 171.732 248.531 174.178 248.156L175.745 237.973H183.231L184.798 248.156C187.233 248.531 189.589 249.191 191.832 250.056L198.236 242.023L204.718 245.801L201.031 255.415C202.925 256.962 204.65 258.703 206.172 260.603L215.698 256.882L219.441 263.425L211.482 269.887C212.35 272.151 212.992 274.518 213.364 276.987L223.454 278.568V286.123L213.364 287.705C212.981 290.162 212.339 292.54 211.482 294.804V294.816ZM206.172 282.369C206.172 267.498 194.222 255.437 179.488 255.437C164.754 255.437 152.804 267.498 152.804 282.369C152.804 297.239 164.742 309.3 179.488 309.3C194.233 309.3 206.172 297.239 206.172 282.369Z" fill="url(#paint3_linear_40000378_5716)"/>
<path d="M195.699 282.369C195.699 291.414 188.439 298.73 179.488 298.73C170.537 298.73 163.277 291.403 163.277 282.369C163.277 273.335 170.537 266.008 179.488 266.008C188.439 266.008 195.699 273.335 195.699 282.369Z" fill="url(#paint4_linear_40000378_5716)"/>
<path d="M572.793 226.026C581.203 248.645 585.825 273.141 585.825 298.73C585.825 413.019 494.026 505.667 380.785 505.667C285.232 505.667 204.954 439.699 182.193 350.43L159.297 356.483C184.707 456.015 274.229 529.549 380.774 529.549C507.081 529.549 609.477 426.205 609.477 298.73C609.477 270.194 604.336 242.865 594.945 217.641L572.793 226.026Z" fill="url(#paint5_linear_40000378_5716)"/>
<path d="M165.239 221.438L187.515 229.493C215.529 149.849 290.486 92.6535 378.812 91.8115V67.9297C280.227 68.7716 196.533 132.566 165.239 221.438Z" fill="url(#paint6_linear_40000378_5716)"/>
<path d="M136.841 377.098L106.64 407.579H5.84439V408.58H107.045L137.247 378.099H209.599L210.354 377.098H136.841Z" fill="#BABABA"/>
<path d="M136.841 367.152L106.639 397.633H34.4222V398.623H107.045L137.247 368.142H217.896L218.832 367.152H136.841Z" fill="#BABABA"/>
<path d="M136.84 357.199L106.639 387.68H57.4308V388.681H107.045L137.246 358.2H227.275L228.437 357.199H136.84Z" fill="#BABABA"/>
<path d="M136.841 347.254L106.639 377.735H76.4829V378.725H107.045L137.246 348.244H238.008L239.169 347.254H136.841Z" fill="#BABABA"/>
<path d="M81.9053 378.234C81.9053 381.261 79.4815 383.707 76.4828 383.707C73.4841 383.707 71.0603 381.261 71.0603 378.234C71.0603 375.208 73.4841 372.762 76.4828 372.762C79.4815 372.762 81.9053 375.208 81.9053 378.234Z" fill="url(#paint7_radial_40000378_5716)"/>
<path d="M62.8535 388.18C62.8535 391.206 60.4297 393.652 57.431 393.652C54.4323 393.652 52.0085 391.206 52.0085 388.18C52.0085 385.153 54.4323 382.707 57.431 382.707C60.4297 382.707 62.8535 385.153 62.8535 388.18Z" fill="url(#paint8_radial_40000378_5716)"/>
<path d="M39.5176 398.133C39.5176 401.159 37.0938 403.606 34.0951 403.606C31.0964 403.606 28.6726 401.159 28.6726 398.133C28.6726 395.106 31.0964 392.66 34.0951 392.66C37.0938 392.66 39.5176 395.106 39.5176 398.133Z" fill="url(#paint9_radial_40000378_5716)"/>
<path d="M11.2666 408.078C11.2666 411.105 8.84283 413.551 5.84411 413.551C2.8454 413.551 0.421626 411.105 0.421626 408.078C0.421626 405.052 2.8454 402.605 5.84411 402.605C8.84283 402.605 11.2666 405.052 11.2666 408.078Z" fill="url(#paint10_radial_40000378_5716)"/>
<path d="M589.714 501.459C645.393 445.265 676.057 370.547 676.057 291.074C676.057 211.601 645.393 136.883 589.714 80.6888C534.035 24.4943 460.003 -6.45312 381.258 -6.45312C302.514 -6.45312 228.481 24.4943 172.802 80.6888C117.123 136.883 86.4595 211.601 86.4595 291.074C86.4595 370.547 117.123 445.265 172.802 501.459C228.481 557.654 302.514 588.601 381.258 588.601C460.003 588.601 534.035 557.654 589.714 501.459ZM674.929 291.074C674.929 454.504 543.189 587.463 381.258 587.463C219.327 587.463 87.5868 454.504 87.5868 291.074C87.5868 127.645 219.327 -5.31535 381.258 -5.31535C543.189 -5.31535 674.929 127.645 674.929 291.074Z" fill="#D1D1D1"/>
<path d="M599.601 511.437C657.918 452.58 690.036 374.312 690.036 291.073C690.036 207.834 657.918 129.566 599.601 70.7095C541.284 11.8526 463.735 -20.5625 381.259 -20.5625C298.783 -20.5625 221.244 11.8526 162.916 70.7095C104.599 129.566 72.481 207.834 72.481 291.073C72.481 374.312 104.599 452.58 162.916 511.437C221.233 570.294 298.783 602.709 381.259 602.709C463.735 602.709 541.284 570.294 599.601 511.437ZM688.909 291.073C688.909 462.285 550.9 601.571 381.259 601.571C211.617 601.571 73.6083 462.285 73.6083 291.073C73.6083 119.861 211.617 -19.4247 381.259 -19.4247C550.9 -19.4247 688.909 119.861 688.909 291.073Z" fill="#D1D1D1"/>
<path d="M374.686 608.817V608.794C374.686 608.203 374.224 607.702 373.638 607.668H373.593C368.385 607.531 363.131 607.281 357.968 606.894C357.359 606.837 356.807 607.326 356.762 607.941C356.762 607.975 356.751 607.998 356.751 608.032C356.762 608.601 357.19 609.09 357.754 609.158H357.799C357.799 609.158 357.855 609.17 357.867 609.17C363.041 609.545 368.306 609.807 373.537 609.932H373.559C374.179 609.932 374.675 609.443 374.686 608.817ZM405.023 609.136C405.609 609.102 406.06 608.601 406.072 608.009C406.072 607.975 406.072 607.952 406.072 607.918C406.026 607.304 405.508 606.826 404.865 606.871C399.634 607.258 394.381 607.52 389.24 607.645C388.632 607.668 388.147 608.18 388.147 608.783V608.817C388.147 609.443 388.654 609.932 389.274 609.932H389.297C394.55 609.795 399.837 609.534 405.034 609.136H405.023ZM342.185 607.611C342.783 607.656 343.313 607.213 343.38 606.621C343.38 606.564 343.38 606.519 343.38 606.473C343.38 605.916 342.974 605.449 342.433 605.358H342.388C337.225 604.71 332.028 603.925 326.921 603.026C326.312 602.912 325.726 603.333 325.613 603.947C325.602 604.016 325.602 604.084 325.602 604.152C325.602 604.698 325.997 605.165 326.527 605.267C331.667 606.166 336.887 606.951 342.039 607.6C342.061 607.6 342.084 607.6 342.118 607.6H342.174L342.185 607.611ZM420.693 607.565C425.879 606.917 431.121 606.12 436.273 605.21C436.814 605.108 437.209 604.641 437.209 604.095C437.209 604.027 437.209 603.959 437.186 603.89C437.085 603.276 436.498 602.855 435.89 602.969C430.783 603.868 425.574 604.664 420.423 605.313C419.859 605.381 419.43 605.859 419.43 606.439C419.43 606.485 419.43 606.53 419.442 606.576C419.509 607.145 419.994 607.577 420.558 607.577C420.603 607.577 420.648 607.577 420.693 607.577V607.565ZM312.446 601.285C312.469 601.194 312.469 601.114 312.469 601.023C312.469 600.489 312.108 600.033 311.601 599.92H311.533C306.528 598.759 301.455 597.462 296.472 596.051H296.427C295.841 595.881 295.209 596.245 295.04 596.836C295.018 596.939 295.006 597.041 295.006 597.143C295.006 597.553 295.221 597.929 295.57 598.122H295.48L295.852 598.247C300.88 599.669 306.009 600.978 311.093 602.138C311.184 602.161 311.263 602.172 311.341 602.172C311.871 602.172 312.322 601.797 312.446 601.285ZM451.717 602.07C456.813 600.898 461.954 599.578 466.982 598.156C467.466 598.008 467.804 597.564 467.804 597.064C467.804 596.95 467.804 596.848 467.759 596.745C467.602 596.154 466.959 595.79 466.373 595.96H466.339C461.367 597.382 456.272 598.691 451.221 599.851C450.703 599.965 450.342 600.42 450.342 600.955C450.342 601.046 450.342 601.126 450.365 601.217C450.477 601.729 450.94 602.104 451.469 602.104C451.548 602.104 451.638 602.104 451.717 602.07ZM282.189 592.843C282.234 592.729 282.256 592.604 282.256 592.479C282.256 591.989 281.94 591.557 281.478 591.409C276.529 589.725 271.58 587.916 266.744 586.005C266.18 585.777 265.515 586.073 265.29 586.642C265.233 586.778 265.211 586.915 265.211 587.063C265.211 587.529 265.493 587.95 265.932 588.121C270.847 590.067 275.83 591.898 280.768 593.56C280.881 593.605 281.005 593.616 281.118 593.616C281.602 593.616 282.042 593.309 282.189 592.843ZM482.043 593.469C486.958 591.796 491.918 589.976 496.777 588.041C496.8 588.041 496.822 588.041 496.845 588.019H496.878C497.296 587.825 497.555 587.416 497.555 586.96C497.555 586.824 497.532 586.676 497.476 586.539C497.251 585.971 496.597 585.675 496.022 585.902C491.197 587.814 486.248 589.634 481.321 591.307C480.859 591.466 480.555 591.898 480.555 592.388C480.555 592.513 480.577 592.627 480.611 592.752C480.769 593.218 481.197 593.525 481.682 593.525C481.806 593.525 481.919 593.503 482.043 593.469ZM252.866 581.363C252.934 581.215 252.968 581.055 252.968 580.896C252.968 580.452 252.709 580.043 252.314 579.861C247.591 577.71 242.856 575.412 238.256 573.023L238.11 572.954C237.58 572.738 236.937 572.977 236.678 573.489C236.599 573.648 236.554 573.819 236.554 574.001C236.554 574.422 236.779 574.798 237.14 575.003L237.163 575.025C237.163 575.025 237.208 575.037 237.219 575.048C241.841 577.437 246.576 579.747 251.322 581.909C251.322 581.909 251.356 581.909 251.378 581.931L251.457 581.966C251.581 582.011 251.717 582.034 251.841 582.034C252.28 582.034 252.686 581.772 252.866 581.363ZM511.32 581.852C516.088 579.679 520.846 577.358 525.49 574.946C525.862 574.752 526.099 574.365 526.099 573.933C526.099 573.751 526.054 573.58 525.975 573.421C525.693 572.875 524.994 572.647 524.453 572.932L524.295 573.011C519.775 575.355 515.119 577.619 510.463 579.747C510.44 579.747 510.418 579.747 510.395 579.77H510.373C509.978 579.975 509.73 580.373 509.73 580.816C509.73 580.976 509.764 581.135 509.832 581.283C510.012 581.681 510.418 581.943 510.857 581.943C511.015 581.943 511.173 581.92 511.32 581.852ZM224.852 566.981C224.954 566.81 225.01 566.617 225.01 566.412C225.01 566.014 224.796 565.627 224.446 565.434C219.937 562.794 215.439 560.018 211.087 557.185C210.58 556.844 209.859 557.003 209.532 557.515C209.408 557.697 209.351 557.913 209.351 558.129C209.351 558.516 209.543 558.88 209.859 559.085C214.266 561.964 218.787 564.763 223.319 567.391C223.488 567.493 223.68 567.55 223.883 567.55C224.277 567.55 224.649 567.334 224.852 566.981ZM539.3 567.345C543.798 564.717 548.296 561.93 552.67 559.074L552.885 558.948H552.851C553.088 558.732 553.234 558.425 553.223 558.095C553.223 557.868 553.166 557.663 553.054 557.481C552.727 556.969 551.994 556.81 551.487 557.139C547.146 559.973 542.682 562.737 538.207 565.354C538.184 565.354 538.173 565.366 538.162 565.377L537.992 565.479H538.015C537.756 565.695 537.598 566.014 537.598 566.367C537.598 566.56 537.654 566.754 537.756 566.924C537.959 567.277 538.331 567.493 538.737 567.493C538.928 567.493 539.12 567.448 539.3 567.345ZM198.416 549.858C198.551 549.664 198.63 549.437 198.63 549.198C198.63 548.834 198.45 548.481 198.157 548.265L198.067 548.208C193.884 545.17 189.724 541.984 185.711 538.742H185.688C185.215 538.344 184.471 538.434 184.099 538.912C183.941 539.106 183.862 539.345 183.851 539.606C183.851 539.959 184.009 540.289 184.279 540.505C188.371 543.805 192.599 547.036 196.838 550.119C197.029 550.256 197.266 550.336 197.503 550.336C197.864 550.336 198.202 550.154 198.416 549.858ZM565.714 550.097C569.941 547.025 574.146 543.805 578.216 540.528C578.216 540.528 578.25 540.505 578.261 540.482L578.374 540.391C578.565 540.175 578.689 539.891 578.678 539.595C578.678 539.333 578.599 539.094 578.441 538.89C578.058 538.412 577.325 538.332 576.852 538.708L576.829 538.73C572.805 541.973 568.645 545.159 564.451 548.208C564.429 548.208 564.417 548.231 564.395 548.242L564.372 548.265C564.09 548.481 563.921 548.822 563.932 549.175C563.932 549.414 564 549.642 564.135 549.835C564.35 550.131 564.688 550.301 565.06 550.301C565.297 550.301 565.522 550.233 565.714 550.097ZM173.795 530.174C173.975 529.969 174.077 529.708 174.077 529.435C174.088 529.105 173.942 528.798 173.705 528.57C169.782 525.077 165.915 521.459 162.229 517.829C161.8 517.409 161.056 517.42 160.639 517.852C160.436 518.068 160.323 518.341 160.312 518.637C160.312 518.944 160.436 519.24 160.662 519.468C164.359 523.109 168.237 526.738 172.16 530.231L172.307 530.368C172.499 530.493 172.724 530.561 172.961 530.561C173.276 530.561 173.581 530.425 173.795 530.174ZM590.323 530.265C594.247 526.772 598.125 523.143 601.867 519.456C602.082 519.24 602.206 518.933 602.206 518.626C602.206 518.319 602.093 518.057 601.89 517.852C601.462 517.408 600.717 517.409 600.289 517.829C596.569 521.493 592.702 525.111 588.824 528.559C588.576 528.786 588.441 529.093 588.441 529.423C588.441 529.696 588.542 529.969 588.723 530.174C588.937 530.413 589.252 530.55 589.568 530.55C589.85 530.55 590.109 530.459 590.323 530.265ZM151.248 508.147C151.474 507.931 151.609 507.624 151.609 507.294C151.609 507.009 151.496 506.748 151.305 506.531C147.787 502.72 144.304 498.738 140.944 494.71C140.561 494.243 139.817 494.187 139.366 494.573C139.107 494.79 138.96 495.108 138.96 495.45C138.96 495.711 139.062 495.973 139.22 496.178C142.602 500.228 146.119 504.233 149.659 508.09C149.873 508.318 150.166 508.454 150.482 508.454C150.764 508.454 151.034 508.34 151.248 508.147ZM612.87 508.079C616.444 504.199 619.95 500.194 623.309 496.155C623.467 495.961 623.569 495.7 623.569 495.438C623.569 495.097 623.422 494.778 623.163 494.551C622.701 494.164 621.957 494.232 621.584 494.699C618.259 498.692 614.775 502.674 611.224 506.531C611.033 506.736 610.92 507.009 610.92 507.294C610.92 507.612 611.044 507.919 611.281 508.136C611.484 508.329 611.754 508.443 612.047 508.443C612.34 508.443 612.656 508.306 612.87 508.079ZM130.979 483.981C131.261 483.753 131.419 483.423 131.419 483.059C131.419 482.82 131.34 482.581 131.193 482.388C128.059 478.224 124.981 473.911 122.05 469.588C121.712 469.087 120.979 468.939 120.483 469.292C120.179 469.497 119.987 469.861 119.987 470.236C119.987 470.464 120.066 470.68 120.19 470.874C123.11 475.174 126.199 479.498 129.355 483.708C129.367 483.708 129.378 483.742 129.389 483.765L129.412 483.787C129.626 484.049 129.953 484.208 130.291 484.208C130.539 484.208 130.776 484.129 130.979 483.981ZM633.14 483.73C636.296 479.532 639.385 475.209 642.327 470.874C642.327 470.851 642.35 470.839 642.361 470.817L642.418 470.737C642.508 470.566 642.553 470.384 642.553 470.191C642.553 469.804 642.373 469.451 642.068 469.247C641.561 468.894 640.839 469.042 640.501 469.542C637.559 473.877 634.481 478.189 631.347 482.354C631.201 482.559 631.122 482.786 631.122 483.036C631.122 483.4 631.28 483.73 631.561 483.947C631.764 484.106 631.99 484.186 632.249 484.186C632.599 484.186 632.925 484.015 633.14 483.73ZM113.178 457.914C113.516 457.698 113.719 457.334 113.719 456.936C113.719 456.731 113.663 456.526 113.561 456.356C110.867 451.918 108.229 447.333 105.727 442.702C105.433 442.179 104.723 441.963 104.193 442.259C103.833 442.452 103.607 442.839 103.607 443.26C103.607 443.442 103.652 443.624 103.742 443.783L103.765 443.84C106.256 448.437 108.906 453.045 111.634 457.539C111.837 457.88 112.197 458.085 112.592 458.085C112.806 458.085 113.009 458.028 113.178 457.914ZM650.929 457.459C653.657 452.976 656.318 448.334 658.832 443.681C658.922 443.522 658.967 443.328 658.967 443.146C658.967 442.725 658.742 442.338 658.381 442.145C657.851 441.849 657.141 442.065 656.848 442.6C654.356 447.208 651.718 451.805 649.001 456.276C648.9 456.458 648.844 456.663 648.844 456.868C648.844 457.266 649.035 457.63 649.385 457.835C649.554 457.949 649.768 458.005 649.971 458.005C650.354 458.005 650.726 457.801 650.929 457.459ZM98.0606 430.21C98.4439 430.028 98.6919 429.618 98.6919 429.186C98.6919 429.015 98.6581 428.844 98.5792 428.696C96.302 423.929 94.1375 419.105 92.1421 414.338C91.9053 413.78 91.2289 413.496 90.6653 413.735C90.2482 413.917 89.9776 414.326 89.9776 414.781C89.9776 414.941 90.0114 415.089 90.0677 415.225C92.097 420.072 94.2727 424.93 96.5499 429.686C96.7416 430.073 97.1362 430.323 97.5646 430.323C97.7337 430.323 97.9028 430.289 98.0606 430.21ZM666.047 429.527C668.324 424.76 670.511 419.879 672.54 415.009C672.596 414.873 672.63 414.725 672.63 414.565C672.63 414.11 672.36 413.701 671.943 413.519C671.379 413.28 670.703 413.564 670.466 414.122C668.459 418.923 666.283 423.77 664.017 428.537C663.939 428.685 663.905 428.856 663.905 429.026C663.905 429.459 664.153 429.868 664.536 430.05C664.694 430.13 664.852 430.164 665.021 430.164C665.46 430.164 665.855 429.925 666.047 429.527ZM85.7501 401.151C86.1898 400.98 86.4941 400.559 86.4941 400.082C86.4941 399.945 86.4716 399.808 86.4265 399.683C84.634 394.723 82.9543 389.694 81.4324 384.722C81.252 384.141 80.6094 383.8 80.0232 383.982C79.5497 384.13 79.2228 384.562 79.2228 385.063C79.2228 385.177 79.2454 385.29 79.2792 385.404C80.8237 390.433 82.5034 395.485 84.2846 400.4C84.2846 400.423 84.2845 400.446 84.3071 400.468V400.502C84.4875 400.935 84.9046 401.219 85.3668 401.219C85.5021 401.219 85.6261 401.197 85.7501 401.151ZM678.312 400.184C680.116 395.178 681.807 390.092 683.34 385.063C683.374 384.961 683.396 384.847 683.396 384.733C683.396 384.232 683.069 383.789 682.596 383.652C682.01 383.47 681.367 383.811 681.187 384.403L681.164 384.471C679.642 389.466 677.974 394.484 676.193 399.399C676.148 399.524 676.125 399.661 676.125 399.797C676.125 400.264 676.429 400.696 676.869 400.855C676.993 400.901 677.128 400.923 677.252 400.923C677.726 400.923 678.154 400.628 678.312 400.184ZM76.3707 370.92C76.878 370.784 77.2162 370.34 77.2275 369.817C77.2275 369.726 77.2161 369.623 77.1823 369.532C75.8972 364.435 74.736 359.258 73.7101 354.15C73.5862 353.535 72.9661 353.137 72.3799 353.262C71.85 353.365 71.478 353.831 71.478 354.366C71.478 354.445 71.478 354.525 71.5005 354.593C72.5377 359.793 73.7214 365.004 75.0065 370.101C75.1306 370.602 75.5815 370.955 76.0888 370.955C76.1903 370.955 76.2805 370.955 76.3707 370.92ZM687.601 369.76C688.887 364.64 690.059 359.429 691.085 354.252C691.107 354.184 691.107 354.104 691.107 354.025C691.107 353.49 690.724 353.023 690.205 352.921C689.608 352.796 688.999 353.205 688.875 353.808V353.877H688.864C687.838 359.019 686.677 364.173 685.414 369.202C685.392 369.293 685.38 369.384 685.38 369.487C685.38 369.999 685.73 370.454 686.226 370.579C686.316 370.602 686.418 370.613 686.508 370.613C687.026 370.613 687.466 370.272 687.601 369.76ZM70.0463 339.893C70.5875 339.814 71.0045 339.325 71.0045 338.778C71.0045 338.71 71.0045 338.653 71.0045 338.596C70.2267 333.397 69.5728 328.117 69.0656 322.941C68.9979 322.315 68.4455 321.86 67.8254 321.917C67.2505 321.973 66.8109 322.463 66.8109 323.043C66.8109 323.089 66.8109 323.123 66.8109 323.168C67.3182 328.368 67.9833 333.681 68.7612 338.938C68.8513 339.495 69.3248 339.905 69.8772 339.905C69.9335 339.905 69.9899 339.905 70.0463 339.905V339.893ZM693.802 338.596C694.58 333.385 695.222 328.072 695.741 322.815C695.741 322.781 695.741 322.736 695.741 322.702C695.741 322.11 695.301 321.632 694.715 321.575C694.095 321.518 693.542 321.974 693.486 322.599C692.979 327.833 692.325 333.101 691.558 338.255C691.558 338.323 691.558 338.38 691.558 338.426C691.558 338.995 691.964 339.461 692.528 339.552C692.584 339.552 692.641 339.552 692.686 339.552C693.249 339.552 693.723 339.142 693.802 338.585V338.596ZM66.8109 308.389C67.4084 308.354 67.8818 307.865 67.8818 307.262V307.194C67.6225 301.915 67.4872 296.613 67.4872 291.413C67.4872 290.787 66.9799 290.275 66.3599 290.275C66.0555 290.275 65.7737 290.4 65.5594 290.617C65.3453 290.821 65.2325 291.117 65.2325 291.413C65.2325 296.704 65.3678 302.051 65.6271 307.308C65.6609 307.922 66.157 308.389 66.7545 308.389H66.8109ZM696.902 306.955C697.161 301.744 697.285 296.396 697.285 291.072V290.389C697.285 289.763 696.778 289.251 696.158 289.251C695.853 289.251 695.572 289.365 695.357 289.581C695.143 289.797 695.03 290.082 695.03 290.389V291.072C695.03 296.305 694.906 301.607 694.647 306.853V306.909C694.647 307.512 695.121 308.013 695.718 308.047H695.775C696.383 308.047 696.879 307.569 696.902 306.955ZM67.848 275.632C68.096 270.376 68.4793 265.074 68.9866 259.885V259.772C68.9866 259.191 68.5469 258.702 67.972 258.645C67.3294 258.588 66.7996 259.043 66.7432 259.669C66.2359 264.903 65.8526 270.228 65.5933 275.53V275.587C65.5933 276.19 66.0668 276.679 66.6643 276.713H66.7206C67.3294 276.713 67.8142 276.235 67.848 275.632ZM695.797 275.689C696.406 275.655 696.868 275.154 696.868 274.551V274.494C696.597 269.215 696.203 263.879 695.673 258.634C695.617 258.019 695.053 257.564 694.444 257.621C693.858 257.678 693.43 258.167 693.43 258.748V258.861C693.948 264.038 694.354 269.34 694.613 274.608C694.647 275.211 695.143 275.689 695.741 275.689H695.797ZM70.8918 244.218C71.6584 239.053 72.549 233.842 73.5636 228.733C73.5636 228.71 73.5636 228.688 73.5636 228.665V228.597C73.5636 228.597 73.5636 228.494 73.5636 228.437C73.5636 227.903 73.1803 227.436 72.6505 227.334C72.0643 227.209 71.478 227.595 71.3427 228.176V228.221C71.3427 228.221 71.3202 228.278 71.3202 228.289C70.2943 233.432 69.3925 238.689 68.6259 243.888C68.6259 243.945 68.6259 244.002 68.6259 244.059C68.6259 244.628 69.0317 245.094 69.5953 245.185C69.6517 245.185 69.6968 245.185 69.7532 245.185C70.3056 245.185 70.7903 244.764 70.8693 244.207L70.8918 244.218ZM692.753 244.161C693.317 244.082 693.712 243.604 693.712 243.035C693.712 242.978 693.711 242.921 693.7 242.864C692.922 237.642 691.998 232.385 690.95 227.209C690.826 226.606 690.228 226.196 689.619 226.321C689.101 226.435 688.717 226.901 688.717 227.436C688.717 227.504 688.729 227.584 688.74 227.664C689.777 232.795 690.69 238.029 691.479 243.206C691.558 243.763 692.032 244.173 692.584 244.173C692.641 244.173 692.697 244.173 692.753 244.173V244.161ZM77.0245 213.271C78.2872 208.185 79.7076 203.076 81.2295 198.07C81.2633 197.956 81.2858 197.843 81.2858 197.729C81.2858 197.228 80.9589 196.796 80.4854 196.648C79.8992 196.466 79.2566 196.819 79.0762 197.399C77.5318 202.485 76.1001 207.639 74.8375 212.713C74.8149 212.816 74.8036 212.907 74.8036 212.998C74.8036 213.521 75.1531 213.965 75.6492 214.101C75.7393 214.124 75.8408 214.136 75.931 214.136C76.4496 214.136 76.8893 213.783 77.0245 213.271ZM686.621 213.1C687.117 212.975 687.466 212.52 687.466 211.997C687.466 211.906 687.455 211.814 687.432 211.735V211.689C686.125 206.592 684.682 201.449 683.137 196.42C682.957 195.829 682.314 195.487 681.728 195.67C681.254 195.817 680.939 196.25 680.939 196.75C680.939 196.864 680.939 196.978 680.984 197.092C682.517 202.087 683.96 207.195 685.245 212.281C685.369 212.782 685.82 213.134 686.339 213.134C686.429 213.134 686.53 213.123 686.621 213.1ZM86.201 183.063C87.9709 178.114 89.8987 173.153 91.9053 168.329C91.973 168.192 91.9955 168.044 91.9955 167.885C91.9955 167.43 91.725 167.02 91.3079 166.85C90.7442 166.599 90.0678 166.884 89.8311 167.453C87.8019 172.322 85.8629 177.317 84.0704 182.289C84.0253 182.414 84.0027 182.551 84.0027 182.676C84.0027 183.154 84.3071 183.586 84.7468 183.746C84.8708 183.791 85.0061 183.814 85.1301 183.814C85.6036 183.814 86.032 183.507 86.1898 183.063H86.201ZM677.421 182.813C677.872 182.653 678.166 182.221 678.166 181.743C678.166 181.607 678.143 181.482 678.098 181.356C676.283 176.373 674.344 171.412 672.315 166.599C672.089 166.042 671.402 165.758 670.838 165.996C670.421 166.178 670.15 166.588 670.15 167.043C670.15 167.202 670.184 167.35 670.24 167.487L670.263 167.521C672.281 172.334 674.197 177.249 675.978 182.141C676.136 182.585 676.565 182.881 677.038 182.881C677.173 182.881 677.297 182.858 677.421 182.813ZM98.2523 154.095V154.141L98.3537 153.913C100.597 149.214 102.998 144.481 105.501 139.85C105.591 139.68 105.636 139.498 105.636 139.304C105.636 138.883 105.411 138.508 105.05 138.303C104.52 138.019 103.81 138.223 103.517 138.758C101.026 143.4 98.6017 148.168 96.3245 152.935C96.2569 153.083 96.2117 153.253 96.2117 153.424C96.2117 153.856 96.4711 154.266 96.8544 154.448C97.0122 154.528 97.17 154.562 97.3391 154.562C97.6998 154.562 98.038 154.38 98.2523 154.095ZM665.291 153.674C665.686 153.481 665.934 153.083 665.934 152.639C665.934 152.468 665.889 152.309 665.821 152.15C663.544 147.417 661.12 142.661 658.606 138.041C658.324 137.518 657.614 137.302 657.073 137.586C656.712 137.791 656.487 138.178 656.487 138.599C656.487 138.781 656.543 138.974 656.633 139.134C659.114 143.708 661.526 148.418 663.792 153.151C663.984 153.538 664.367 153.788 664.807 153.788C664.976 153.788 665.145 153.743 665.291 153.674ZM113.336 126.163C116.042 121.692 118.894 117.22 121.825 112.885C121.96 112.692 122.028 112.476 122.028 112.248C122.028 111.873 121.847 111.52 121.532 111.304C121.036 110.962 120.303 111.099 119.965 111.6C117 116.003 114.114 120.497 111.408 124.968C111.296 125.15 111.239 125.355 111.239 125.56C111.239 125.958 111.442 126.322 111.78 126.539C111.961 126.641 112.164 126.709 112.367 126.709C112.761 126.709 113.122 126.504 113.336 126.163ZM650.332 125.879C650.67 125.662 650.873 125.298 650.873 124.9C650.873 124.695 650.816 124.491 650.704 124.309C647.998 119.871 645.123 115.388 642.136 110.985C641.798 110.485 641.065 110.348 640.569 110.689C640.253 110.906 640.073 111.258 640.073 111.645C640.073 111.873 640.152 112.089 640.276 112.271L640.298 112.305C643.218 116.606 646.07 121.054 648.787 125.503C648.99 125.844 649.351 126.049 649.745 126.049C649.948 126.049 650.162 125.992 650.332 125.879ZM130.866 100.176V100.199L130.968 100.063C134.09 95.8984 137.371 91.7341 140.719 87.7064C140.888 87.5016 140.978 87.2513 140.99 86.9896C140.99 86.6483 140.843 86.3297 140.584 86.1021C140.122 85.7153 139.377 85.7836 138.994 86.2501C135.635 90.2892 132.332 94.4761 129.164 98.6859C129.017 98.8793 128.938 99.1183 128.938 99.3686C128.938 99.7327 129.096 100.063 129.389 100.279C129.581 100.427 129.818 100.506 130.066 100.506C130.37 100.506 130.652 100.393 130.866 100.176ZM632.7 99.7099C632.982 99.4823 633.151 99.1524 633.151 98.7883C633.151 98.538 633.061 98.3104 632.914 98.117C629.758 93.9186 626.443 89.743 623.073 85.7039C622.689 85.2375 621.934 85.1806 621.483 85.5674C621.224 85.795 621.077 86.1135 621.088 86.4549C621.088 86.7165 621.179 86.9782 621.348 87.1717L621.438 87.2741C624.752 91.2562 628.01 95.3636 631.122 99.4937C631.336 99.7782 631.663 99.9375 632.024 99.9375C632.272 99.9375 632.508 99.8578 632.7 99.7099ZM151.068 75.8622C154.585 72.0393 158.249 68.2391 161.981 64.5528C162.206 64.3366 162.33 64.0408 162.319 63.7222C162.319 63.4264 162.206 63.1533 162.003 62.9485C161.586 62.5048 160.842 62.5048 160.414 62.9258C156.626 66.6576 152.917 70.4919 149.411 74.3148C149.219 74.5196 149.118 74.7927 149.118 75.0771C149.118 75.3957 149.242 75.7029 149.478 75.9191C149.681 76.1239 149.952 76.2263 150.245 76.2263C150.538 76.2263 150.854 76.0898 151.068 75.8622ZM612.577 75.4185C612.803 75.1909 612.938 74.8837 612.938 74.5651C612.938 74.2807 612.825 74.019 612.633 73.8028C609.082 69.9572 605.385 66.1343 601.619 62.4365C601.18 62.0155 600.447 62.0269 600.019 62.4593C599.816 62.6754 599.703 62.9485 599.703 63.2443C599.703 63.5402 599.816 63.836 600.03 64.0521V64.0749C603.75 67.7158 607.436 71.5045 610.988 75.3616C611.19 75.5891 611.495 75.7143 611.81 75.7143C612.092 75.7143 612.363 75.6119 612.577 75.4185ZM173.457 53.8008C177.335 50.3192 181.359 46.9059 185.407 43.6405C185.677 43.4243 185.824 43.0944 185.824 42.7417C185.824 42.4914 185.734 42.2411 185.576 42.0477C185.204 41.5812 184.482 41.4901 184.009 41.8542C184.009 41.8542 183.986 41.8884 183.975 41.8997C179.894 45.1993 175.858 48.624 171.969 52.1055C171.721 52.3217 171.586 52.6289 171.586 52.9703C171.586 53.2433 171.687 53.505 171.867 53.7098C172.082 53.9487 172.386 54.0853 172.713 54.0853C172.983 54.0853 173.254 53.9942 173.457 53.8008ZM590.154 53.2433C590.335 53.0385 590.436 52.7768 590.436 52.5038C590.436 52.1738 590.301 51.8552 590.053 51.6391C586.152 48.1689 582.083 44.7328 577.968 41.4219C577.506 41.0464 576.762 41.126 576.39 41.6039C576.232 41.8087 576.142 42.0476 576.142 42.3093C576.142 42.662 576.299 42.9806 576.57 43.2082C580.606 46.4394 584.642 49.8528 588.565 53.3457C588.768 53.5278 589.038 53.6302 589.309 53.6302C589.636 53.6302 589.94 53.4936 590.154 53.2433ZM197.852 34.0946C202.012 31.0681 206.33 28.0758 210.704 25.22C210.704 25.2086 210.727 25.1973 210.749 25.1859L210.907 25.0835H210.873C211.121 24.8673 211.256 24.5601 211.256 24.2301C211.256 24.014 211.189 23.7978 211.076 23.6157C210.749 23.1038 210.028 22.9445 209.52 23.2744C205.124 26.153 200.761 29.1681 196.533 32.2514C196.229 32.4676 196.06 32.8089 196.06 33.1844C196.06 33.4233 196.139 33.6509 196.274 33.8443C196.488 34.1401 196.827 34.3108 197.187 34.3108C197.424 34.3108 197.65 34.2425 197.852 34.0946ZM565.657 33.412C565.793 33.2185 565.872 32.991 565.872 32.7521C565.872 32.4449 565.748 32.1377 565.522 31.9215H565.545L565.398 31.8191C565.398 31.8191 565.375 31.8191 565.353 31.7963C561.137 28.7357 556.763 25.732 552.366 22.8648C551.859 22.5349 551.137 22.6942 550.81 23.2062C550.698 23.3882 550.63 23.6044 550.63 23.8205C550.63 24.2074 550.822 24.5715 551.148 24.7763C555.5 27.6093 559.84 30.5903 564.034 33.6395L564.102 33.685C564.293 33.8216 564.507 33.8898 564.744 33.8898C565.105 33.8898 565.443 33.7078 565.657 33.412ZM224.063 16.937C228.493 14.3429 233.082 11.8057 237.693 9.40499C237.715 9.39361 237.738 9.38224 237.76 9.37086H237.794C238.155 9.15468 238.369 8.77922 238.369 8.35824C238.369 8.1762 238.335 8.00553 238.245 7.84624C237.974 7.30011 237.264 7.07256 236.734 7.34563C232.123 9.74632 227.479 12.3063 222.924 14.9687C222.586 15.1735 222.361 15.549 222.372 15.9586C222.372 16.1634 222.417 16.3568 222.519 16.5274C222.721 16.8801 223.093 17.0963 223.499 17.0963C223.691 17.0963 223.883 17.0394 224.063 16.937ZM539.323 16.1292C539.424 15.9585 539.469 15.7537 539.469 15.5603C539.469 15.1507 539.255 14.7753 538.906 14.5705C534.374 11.9422 529.718 9.38224 525.051 6.97016C524.51 6.68572 523.811 6.91327 523.529 7.4594C523.45 7.63007 523.405 7.80073 523.405 7.98278C523.405 8.41513 523.641 8.80197 524.025 8.99539C528.681 11.4075 533.314 13.9447 537.778 16.5502C537.959 16.6412 538.15 16.6981 538.342 16.6981C538.748 16.6981 539.12 16.4819 539.323 16.1292ZM251.818 2.5101C256.542 0.34833 261.378 -1.72241 266.192 -3.63387C266.62 -3.80453 266.902 -4.22551 266.902 -4.692C266.902 -4.8399 266.879 -4.97644 266.823 -5.11297C266.597 -5.68186 265.932 -5.97768 265.357 -5.75012C260.499 -3.81591 255.628 -1.73379 250.882 0.439352C250.477 0.621395 250.217 1.03099 250.229 1.47472C250.229 1.63401 250.262 1.7933 250.319 1.94121C250.51 2.35081 250.905 2.61249 251.356 2.61249C251.514 2.61249 251.672 2.57836 251.818 2.5101ZM511.399 1.57712C511.455 1.41784 511.489 1.26993 511.489 1.09926C511.489 0.655531 511.23 0.245932 510.824 0.0638885C506.032 -2.10925 501.14 -4.18 496.27 -6.10283C495.706 -6.33039 495.03 -6.03457 494.815 -5.4543C494.759 -5.31777 494.737 -5.18124 494.737 -5.04471C494.737 -4.56684 495.018 -4.15724 495.447 -3.98658H495.469C500.306 -2.06375 505.164 -0.00437927 509.899 2.14601C510.046 2.21428 510.204 2.24841 510.361 2.24841C510.801 2.24841 511.207 1.98672 511.399 1.57712ZM280.881 -9.06104C285.762 -10.7222 290.779 -12.2923 295.784 -13.7145C295.795 -13.7145 295.807 -13.7145 295.818 -13.7145L296.179 -13.8283H296.077C296.415 -14.0331 296.641 -14.3972 296.641 -14.8068C296.641 -14.9092 296.618 -15.023 296.596 -15.114C296.427 -15.7056 295.795 -16.0697 295.209 -15.9104C290.204 -14.4768 285.142 -12.8953 280.159 -11.2C279.697 -11.0408 279.393 -10.6084 279.393 -10.1305C279.393 -10.0054 279.404 -9.88023 279.449 -9.76646C279.607 -9.29997 280.035 -8.98139 280.52 -8.98139C280.633 -8.98139 280.757 -9.00415 280.881 -9.04966V-9.06104ZM482.144 -10.085C482.178 -10.2102 482.201 -10.324 482.201 -10.4491C482.201 -10.9384 481.885 -11.3707 481.434 -11.53C476.474 -13.2025 471.401 -14.7613 466.361 -16.1835C465.775 -16.3542 465.144 -15.9787 464.975 -15.3984C464.952 -15.296 464.93 -15.1822 464.941 -15.0798C464.941 -14.5792 465.279 -14.1241 465.764 -13.9876C470.792 -12.5768 475.831 -11.018 480.712 -9.36823C480.825 -9.3341 480.949 -9.31135 481.073 -9.31135C481.558 -9.31135 481.986 -9.61855 482.144 -10.085ZM310.969 -17.6285L311.161 -17.674C316.133 -18.8231 321.228 -19.8585 326.301 -20.7687C326.842 -20.8597 327.226 -21.3376 327.226 -21.8837C327.226 -21.952 327.226 -22.0203 327.226 -22.0885C327.113 -22.6915 326.549 -23.1125 325.918 -23.0101H325.884C320.732 -22.0771 315.546 -21.019 310.485 -19.8471C309.966 -19.7333 309.605 -19.2782 309.605 -18.7435C309.605 -18.6638 309.617 -18.5728 309.628 -18.4932C309.752 -17.9698 310.203 -17.6057 310.733 -17.6057C310.812 -17.6057 310.902 -17.6057 310.981 -17.6285H310.969ZM451.943 -18.7093C451.943 -18.789 451.965 -18.88 451.965 -18.971C451.965 -19.5058 451.605 -19.9495 451.086 -20.0747C445.979 -21.2352 440.782 -22.2819 435.642 -23.1808C435.01 -23.2946 434.435 -22.8622 434.334 -22.2478C434.323 -22.1795 434.323 -22.1113 434.323 -22.0544C434.323 -21.4969 434.717 -21.0304 435.258 -20.9394C440.354 -20.0405 445.517 -19.0052 450.59 -17.856C450.669 -17.8333 450.759 -17.8219 450.838 -17.8219C451.368 -17.8219 451.83 -18.1973 451.943 -18.7093ZM341.768 -23.1239C346.898 -23.7724 352.117 -24.3072 357.258 -24.694C357.28 -24.694 357.303 -24.694 357.326 -24.694H357.371C357.934 -24.7623 358.363 -25.2515 358.374 -25.8204C358.374 -25.8545 358.374 -25.8773 358.374 -25.9114C358.329 -26.5258 357.788 -27.0037 357.168 -26.9582C351.914 -26.56 346.65 -26.0252 341.498 -25.3653C340.934 -25.297 340.506 -24.8192 340.506 -24.2503C340.506 -24.1934 340.506 -24.1479 340.506 -24.1024C340.573 -23.5335 341.058 -23.1011 341.622 -23.1011C341.667 -23.1011 341.723 -23.1125 341.768 -23.1125V-23.1239ZM421.043 -24.2389V-24.3868C421.043 -24.9557 420.614 -25.4336 420.062 -25.5018C414.899 -26.139 409.634 -26.6624 404.392 -27.0378C403.76 -27.0833 403.231 -26.6055 403.186 -25.9911V-25.9001C403.186 -25.3198 403.648 -24.8192 404.223 -24.7737C409.408 -24.3982 414.651 -23.8862 419.791 -23.249C419.836 -23.2377 419.881 -23.2377 419.927 -23.2377C420.501 -23.2377 420.975 -23.67 421.054 -24.2389H421.043ZM388.587 -25.5246H388.62C389.24 -25.5246 389.725 -26.0138 389.748 -26.6396V-26.6624C389.748 -27.2881 389.263 -27.7888 388.643 -27.8001C383.694 -27.9139 378.192 -27.9139 372.883 -27.7774C372.285 -27.7546 371.789 -27.254 371.789 -26.6396V-26.6055C371.8 -26.0025 372.308 -25.5018 372.917 -25.5018H372.95C378.068 -25.6384 383.299 -25.6497 388.587 -25.5246Z" fill="#D1D1D1"/>
<path d="M382.543 543.5C383.163 543.5 383.671 542.988 383.671 542.363C383.671 541.737 383.163 541.225 382.543 541.225H381.258C377.177 541.225 373.051 541.122 369.004 540.929C368.384 540.872 367.854 541.384 367.82 542.01C367.786 542.636 368.271 543.17 368.891 543.205C372.972 543.409 377.143 543.512 381.258 543.512H382.543V543.5ZM365.543 541.873C365.588 541.248 365.115 540.701 364.495 540.667C359.253 540.315 353.965 539.791 348.78 539.097C348.171 539.018 347.596 539.45 347.517 540.076C347.438 540.702 347.866 541.27 348.487 541.35C353.717 542.044 359.05 542.579 364.348 542.932C364.371 542.932 364.393 542.932 364.427 542.932C365.013 542.932 365.509 542.476 365.554 541.873H365.543ZM398.473 542.909C399.995 542.806 401.505 542.681 403.016 542.556C403.636 542.499 404.098 541.953 404.042 541.327C403.985 540.701 403.444 540.224 402.824 540.292C401.325 540.417 399.825 540.542 398.326 540.645C397.706 540.69 397.233 541.225 397.278 541.851C397.323 542.454 397.819 542.909 398.405 542.909C398.428 542.909 398.461 542.909 398.484 542.909H398.473ZM416.578 541.009C421.82 540.258 427.107 539.336 432.281 538.255C432.89 538.13 433.285 537.527 433.161 536.913C433.037 536.298 432.428 535.911 431.831 536.025C426.712 537.095 421.47 538.016 416.273 538.756C415.653 538.847 415.225 539.416 415.315 540.042C415.394 540.61 415.879 541.02 416.431 541.02C416.487 541.02 416.533 541.02 416.589 541.02L416.578 541.009ZM336.311 538.278C336.424 537.664 336.018 537.072 335.409 536.947C333.933 536.662 332.456 536.378 330.979 536.071C330.37 535.946 329.773 536.344 329.649 536.958C329.525 537.573 329.919 538.176 330.528 538.301C332.016 538.608 333.504 538.904 334.992 539.188C335.06 539.2 335.128 539.211 335.206 539.211C335.736 539.211 336.21 538.836 336.311 538.278ZM436.723 537.265C441.154 536.253 445.607 535.104 449.958 533.852C450.556 533.681 450.905 533.044 450.736 532.441C450.567 531.838 449.947 531.486 449.338 531.656C445.02 532.896 440.612 534.034 436.227 535.035C435.618 535.172 435.235 535.786 435.382 536.401C435.506 536.924 435.968 537.288 436.475 537.288C436.554 537.288 436.644 537.288 436.723 537.254V537.265ZM316.414 533.761C316.583 533.158 316.222 532.532 315.625 532.362C311.296 531.167 306.944 529.836 302.672 528.391C302.085 528.186 301.443 528.516 301.24 529.108C301.048 529.711 301.364 530.348 301.95 530.553C306.256 532.009 310.653 533.351 315.016 534.557C315.117 534.58 315.219 534.603 315.309 534.603C315.805 534.603 316.256 534.273 316.391 533.761H316.414ZM299.075 528.357C299.278 527.765 298.974 527.116 298.388 526.9C293.45 525.137 288.49 523.168 283.665 521.086C283.09 520.836 282.425 521.109 282.188 521.689C281.94 522.27 282.21 522.941 282.785 523.18C287.655 525.296 292.661 527.264 297.644 529.051C297.768 529.096 297.892 529.119 298.027 529.119C298.489 529.119 298.929 528.823 299.087 528.357H299.075ZM465.143 528.96C466.575 528.448 467.995 527.913 469.416 527.378C470.002 527.151 470.295 526.502 470.07 525.91C469.856 525.319 469.202 525.023 468.616 525.251C467.206 525.785 465.797 526.309 464.377 526.821C463.791 527.037 463.486 527.685 463.689 528.277C463.858 528.744 464.287 529.028 464.749 529.028C464.873 529.028 464.997 529.005 465.132 528.96H465.143ZM482.042 522.167C486.878 520.017 491.703 517.673 496.393 515.215C496.945 514.931 497.16 514.237 496.878 513.679C496.585 513.122 495.908 512.906 495.356 513.19C490.711 515.625 485.931 517.946 481.129 520.074C480.554 520.324 480.306 520.995 480.554 521.576C480.734 521.997 481.151 522.258 481.591 522.258C481.738 522.258 481.896 522.224 482.042 522.167ZM271.861 516.877C272.143 516.319 271.906 515.625 271.354 515.352C270.001 514.681 268.66 513.987 267.318 513.293C266.766 512.997 266.089 513.224 265.796 513.782C265.514 514.339 265.729 515.022 266.281 515.318C267.634 516.023 268.987 516.717 270.351 517.4C270.509 517.48 270.678 517.514 270.847 517.514C271.264 517.514 271.659 517.286 271.861 516.877ZM500.406 513.076C504.386 510.892 508.365 508.571 512.221 506.182C512.751 505.852 512.92 505.146 512.593 504.611C512.266 504.077 511.567 503.906 511.037 504.236C507.216 506.614 503.281 508.912 499.335 511.074C498.783 511.37 498.58 512.064 498.884 512.621C499.087 512.997 499.471 513.213 499.877 513.213C500.057 513.213 500.237 513.167 500.418 513.076H500.406ZM253.914 507.058C254.241 506.523 254.061 505.817 253.531 505.499C249.687 503.166 245.854 500.686 242.122 498.126C241.604 497.773 240.905 497.91 240.555 498.433C240.206 498.957 240.341 499.662 240.848 500.015C244.614 502.598 248.48 505.101 252.358 507.456C252.539 507.57 252.742 507.615 252.945 507.615C253.328 507.615 253.7 507.422 253.914 507.069V507.058ZM238.673 497.102C239.033 496.59 238.909 495.885 238.402 495.521C234.118 492.46 229.879 489.229 225.798 485.906C225.314 485.508 224.603 485.588 224.209 486.077C223.814 486.566 223.893 487.283 224.378 487.681C228.504 491.038 232.777 494.292 237.106 497.375C237.297 497.512 237.534 497.58 237.759 497.58C238.109 497.58 238.458 497.409 238.684 497.102H238.673ZM525.501 497.318C526.741 496.431 527.97 495.543 529.187 494.633C529.695 494.258 529.796 493.552 529.424 493.04C529.052 492.528 528.353 492.426 527.846 492.801C526.64 493.7 525.422 494.588 524.193 495.464C523.686 495.828 523.562 496.533 523.923 497.045C524.137 497.364 524.486 497.523 524.847 497.523C525.073 497.523 525.298 497.455 525.501 497.318ZM539.965 486.179C544.046 482.789 548.081 479.228 551.948 475.575C552.399 475.143 552.422 474.426 552.005 473.971C551.576 473.516 550.866 473.482 550.415 473.914C546.582 477.521 542.591 481.06 538.544 484.416C538.059 484.814 537.992 485.531 538.386 486.02C538.612 486.293 538.928 486.441 539.254 486.441C539.502 486.441 539.762 486.362 539.965 486.179ZM215.573 478.647C215.991 478.181 215.957 477.464 215.495 477.043C214.378 476.031 213.262 475.007 212.169 473.96C211.718 473.527 210.996 473.55 210.579 474.017C210.151 474.472 210.185 475.2 210.636 475.621C211.741 476.668 212.868 477.703 213.995 478.727C214.209 478.921 214.48 479.023 214.751 479.023C215.055 479.023 215.371 478.898 215.585 478.647H215.573ZM555.251 472.412C558.509 469.227 561.722 465.916 564.8 462.559C565.228 462.093 565.194 461.376 564.744 460.955C564.281 460.523 563.571 460.557 563.154 461.012C560.099 464.334 556.92 467.622 553.684 470.785C553.233 471.218 553.222 471.946 553.662 472.39C553.887 472.617 554.18 472.731 554.473 472.731C554.767 472.731 555.037 472.629 555.263 472.412H555.251ZM200.918 464.334C201.369 463.902 201.392 463.185 200.963 462.73C197.886 459.442 194.853 456.006 191.945 452.547C191.539 452.069 190.828 452.012 190.355 452.41C189.881 452.82 189.825 453.537 190.22 454.015C193.151 457.508 196.217 460.966 199.317 464.289C199.543 464.528 199.836 464.641 200.14 464.641C200.422 464.641 200.693 464.539 200.918 464.334ZM188.901 450.635C189.385 450.237 189.453 449.52 189.059 449.031C185.744 444.935 182.52 440.68 179.476 436.368C179.115 435.856 178.405 435.742 177.898 436.106C177.391 436.47 177.278 437.187 177.639 437.688C180.716 442.034 183.974 446.335 187.311 450.465C187.537 450.738 187.864 450.886 188.19 450.886C188.439 450.886 188.698 450.806 188.901 450.635ZM575.25 450.408C576.209 449.225 577.156 448.019 578.102 446.813C578.486 446.312 578.396 445.607 577.911 445.22C577.426 444.833 576.716 444.924 576.333 445.413C575.408 446.608 574.461 447.791 573.514 448.974C573.12 449.464 573.187 450.18 573.672 450.579C573.886 450.749 574.134 450.84 574.382 450.84C574.709 450.84 575.036 450.692 575.262 450.419L575.25 450.408ZM586.242 435.742C589.286 431.362 592.217 426.833 594.967 422.271C595.294 421.736 595.125 421.031 594.595 420.712C594.066 420.382 593.367 420.553 593.051 421.088C590.323 425.605 587.414 430.099 584.404 434.434C584.044 434.946 584.168 435.662 584.686 436.015C584.878 436.152 585.114 436.22 585.329 436.22C585.689 436.22 586.028 436.049 586.253 435.731L586.242 435.742ZM171.562 426.629C172.092 426.299 172.239 425.593 171.912 425.058C171.111 423.784 170.311 422.498 169.533 421.201C169.206 420.667 168.518 420.496 167.977 420.826C167.447 421.156 167.278 421.85 167.605 422.385C168.394 423.693 169.195 424.99 170.007 426.276C170.221 426.617 170.581 426.799 170.965 426.799C171.168 426.799 171.382 426.742 171.574 426.617L171.562 426.629ZM597.312 418.311C599.612 414.352 601.822 410.279 603.885 406.217C604.166 405.659 603.952 404.965 603.4 404.681C602.836 404.396 602.16 404.613 601.878 405.17C599.826 409.198 597.639 413.237 595.362 417.162C595.046 417.708 595.227 418.402 595.768 418.721C595.948 418.823 596.14 418.88 596.332 418.88C596.715 418.88 597.098 418.676 597.301 418.311H597.312ZM161.27 408.879C161.822 408.583 162.036 407.901 161.743 407.343C159.658 403.338 157.651 399.22 155.78 395.101C155.52 394.532 154.855 394.282 154.28 394.543C153.716 394.805 153.469 395.476 153.728 396.045C155.61 400.198 157.64 404.351 159.748 408.401C159.951 408.788 160.345 409.004 160.751 409.004C160.931 409.004 161.112 408.959 161.27 408.868V408.879ZM153.367 392.461C153.942 392.211 154.201 391.54 153.953 390.959C151.868 386.124 149.895 381.152 148.114 376.18C147.899 375.588 147.257 375.281 146.671 375.497C146.084 375.713 145.78 376.362 145.994 376.953C147.798 381.971 149.771 386.989 151.879 391.87C152.059 392.302 152.476 392.552 152.916 392.552C153.063 392.552 153.22 392.518 153.367 392.461ZM610.728 391.665C611.336 390.254 611.934 388.843 612.509 387.421C612.746 386.841 612.475 386.181 611.9 385.942C611.325 385.703 610.671 385.976 610.423 386.556C609.848 387.967 609.251 389.367 608.653 390.766C608.405 391.346 608.665 392.018 609.24 392.268C609.386 392.336 609.533 392.359 609.69 392.359C610.13 392.359 610.536 392.109 610.728 391.676V391.665ZM617.379 374.507C619.126 369.478 620.738 364.313 622.159 359.17C622.328 358.567 621.978 357.941 621.381 357.771C620.783 357.6 620.163 357.953 619.994 358.556C618.585 363.653 616.984 368.773 615.259 373.756C615.057 374.348 615.361 374.996 615.947 375.201C616.071 375.247 616.195 375.27 616.319 375.27C616.781 375.27 617.221 374.974 617.379 374.507ZM143.108 364.631C143.706 364.449 144.044 363.812 143.864 363.209C143.435 361.753 143.007 360.296 142.601 358.829C142.432 358.226 141.812 357.873 141.214 358.044C140.617 358.214 140.267 358.84 140.436 359.443C140.842 360.922 141.271 362.39 141.71 363.858C141.857 364.347 142.308 364.665 142.793 364.665C142.905 364.665 143.007 364.654 143.12 364.62L143.108 364.631ZM623.342 354.721C624.481 350.307 625.518 345.779 626.409 341.284C626.533 340.67 626.138 340.067 625.53 339.942C624.921 339.817 624.323 340.215 624.199 340.829C623.309 345.289 622.283 349.761 621.155 354.141C620.998 354.755 621.358 355.37 621.967 355.529C622.069 355.552 622.159 355.563 622.249 355.563C622.745 355.563 623.207 355.222 623.342 354.71V354.721ZM137.956 344.709C138.565 344.572 138.948 343.969 138.824 343.355C137.889 338.929 137.066 334.401 136.378 329.918C136.277 329.304 135.702 328.871 135.093 328.974C134.473 329.076 134.056 329.656 134.157 330.271C134.856 334.799 135.69 339.361 136.626 343.833C136.739 344.368 137.201 344.732 137.731 344.732C137.81 344.732 137.889 344.732 137.968 344.709H137.956ZM134.755 326.698C135.375 326.618 135.803 326.038 135.713 325.412C135.003 320.179 134.45 314.842 134.067 309.563C134.022 308.937 133.481 308.46 132.861 308.516C132.241 308.562 131.779 309.108 131.824 309.734C132.207 315.059 132.771 320.44 133.492 325.72C133.571 326.288 134.056 326.709 134.608 326.709C134.653 326.709 134.71 326.709 134.766 326.709L134.755 326.698ZM629.069 325.435C629.272 323.922 629.464 322.397 629.644 320.873C629.712 320.247 629.272 319.678 628.652 319.61C628.032 319.53 627.469 319.985 627.401 320.611C627.221 322.124 627.029 323.626 626.837 325.128C626.758 325.754 627.187 326.323 627.807 326.402C627.863 326.402 627.908 326.402 627.965 326.402C628.517 326.402 629.002 325.981 629.081 325.412L629.069 325.435ZM630.873 307.151C631.2 301.838 631.369 296.422 631.369 291.074V290.494C631.369 289.868 630.862 289.356 630.242 289.356C629.622 289.356 629.114 289.868 629.114 290.494V291.074C629.114 296.376 628.945 301.735 628.618 307.003C628.585 307.629 629.047 308.175 629.678 308.209C629.701 308.209 629.723 308.209 629.746 308.209C630.332 308.209 630.828 307.743 630.873 307.14V307.151ZM132.342 297.082C132.962 297.07 133.458 296.547 133.447 295.921C133.413 294.408 133.402 292.883 133.402 291.37C133.402 290.744 132.895 290.232 132.275 290.232C131.654 290.232 131.147 290.744 131.147 291.37C131.147 292.906 131.17 294.442 131.192 295.967C131.204 296.593 131.711 297.082 132.32 297.082H132.342ZM630.208 287.058C630.828 287.047 631.324 286.523 631.313 285.898C631.223 281.324 631.008 276.693 630.67 272.131C630.625 271.505 630.095 271.027 629.464 271.084C628.844 271.129 628.382 271.675 628.427 272.301C628.754 276.818 628.968 281.415 629.058 285.954C629.069 286.58 629.577 287.069 630.185 287.069H630.208V287.058ZM133.875 275.441C134.157 270.913 134.552 266.339 135.07 261.834C135.138 261.208 134.698 260.65 134.078 260.571C133.458 260.491 132.906 260.946 132.827 261.572C132.308 266.112 131.891 270.731 131.621 275.305C131.587 275.931 132.049 276.477 132.68 276.511C132.703 276.511 132.726 276.511 132.748 276.511C133.334 276.511 133.83 276.044 133.875 275.441ZM135.645 257.305C136.344 252.06 137.224 246.77 138.249 241.593C138.373 240.978 137.979 240.375 137.37 240.25C136.761 240.125 136.164 240.523 136.04 241.138C135.003 246.371 134.112 251.708 133.402 256.998C133.323 257.624 133.751 258.193 134.371 258.272C134.417 258.272 134.473 258.272 134.518 258.272C135.07 258.272 135.555 257.863 135.634 257.283L135.645 257.305ZM628.032 257.419C628.652 257.328 629.081 256.759 628.99 256.133C628.788 254.609 628.562 253.096 628.325 251.582C628.224 250.957 627.649 250.536 627.04 250.638C626.42 250.74 626.003 251.321 626.104 251.935C626.341 253.437 626.555 254.939 626.77 256.441C626.849 257.01 627.333 257.419 627.886 257.419C627.942 257.419 627.987 257.419 628.043 257.419H628.032ZM624.966 239.385C625.575 239.249 625.958 238.646 625.834 238.032C624.729 232.809 623.433 227.553 622.001 222.421C621.832 221.818 621.212 221.466 620.614 221.636C620.017 221.807 619.667 222.433 619.836 223.036C621.257 228.122 622.531 233.321 623.636 238.509C623.748 239.044 624.211 239.408 624.74 239.408C624.819 239.408 624.898 239.408 624.977 239.385H624.966ZM141.282 228.281C141.654 226.813 142.049 225.345 142.454 223.878C142.624 223.275 142.274 222.649 141.665 222.478C141.068 222.308 140.448 222.66 140.279 223.275C139.873 224.754 139.478 226.233 139.095 227.712C138.937 228.326 139.298 228.941 139.907 229.1C139.997 229.123 140.098 229.134 140.188 229.134C140.696 229.134 141.147 228.793 141.282 228.281ZM619.972 219.429C620.569 219.247 620.907 218.61 620.727 218.007C619.419 213.626 617.965 209.223 616.421 204.922C616.206 204.331 615.564 204.024 614.978 204.24C614.391 204.456 614.087 205.104 614.301 205.696C615.834 209.963 617.266 214.32 618.574 218.667C618.72 219.156 619.171 219.474 619.656 219.474C619.769 219.474 619.87 219.463 619.983 219.429H619.972ZM147.167 208.666C148.643 204.376 150.267 200.075 151.98 195.866C152.217 195.285 151.947 194.626 151.372 194.375C150.797 194.136 150.143 194.409 149.895 194.99C148.17 199.234 146.524 203.58 145.036 207.903C144.833 208.495 145.137 209.143 145.735 209.348C145.859 209.394 145.983 209.417 146.107 209.417C146.569 209.417 147.009 209.121 147.167 208.654V208.666ZM153.75 191.667C155.836 186.809 158.113 181.951 160.503 177.24C160.785 176.683 160.571 176 160.018 175.704C159.466 175.42 158.789 175.636 158.496 176.194C156.084 180.95 153.795 185.853 151.687 190.757C151.439 191.337 151.699 192.009 152.274 192.259C152.42 192.327 152.567 192.35 152.724 192.35C153.164 192.35 153.57 192.1 153.762 191.667H153.75ZM609.938 191.508C610.513 191.258 610.773 190.586 610.525 190.006C609.916 188.607 609.296 187.207 608.665 185.831C608.405 185.262 607.74 185.011 607.165 185.273C606.602 185.535 606.354 186.217 606.613 186.786C607.233 188.163 607.853 189.54 608.45 190.928C608.631 191.36 609.048 191.61 609.488 191.61C609.634 191.61 609.792 191.576 609.938 191.519V191.508ZM602.16 175.022C602.712 174.726 602.926 174.043 602.633 173.486C600.176 168.775 597.526 164.076 594.765 159.514C594.438 158.979 593.739 158.808 593.22 159.138C592.69 159.468 592.521 160.162 592.848 160.709C595.587 165.226 598.214 169.879 600.649 174.544C600.852 174.931 601.247 175.147 601.653 175.147C601.833 175.147 602.013 175.101 602.182 175.01L602.16 175.022ZM166.997 165.237C167.752 163.917 168.53 162.62 169.308 161.312C169.635 160.777 169.465 160.071 168.936 159.741C168.406 159.412 167.707 159.582 167.391 160.128C166.602 161.437 165.824 162.757 165.057 164.088C164.742 164.634 164.922 165.328 165.463 165.646C165.644 165.749 165.835 165.806 166.027 165.806C166.41 165.806 166.794 165.601 166.997 165.237ZM592.003 157.193C592.532 156.852 592.679 156.157 592.352 155.623C589.917 151.766 587.335 147.92 584.709 144.211C584.348 143.699 583.638 143.585 583.142 143.949C582.634 144.313 582.522 145.03 582.882 145.531C585.498 149.206 588.046 153.017 590.458 156.84C590.672 157.181 591.033 157.364 591.405 157.364C591.608 157.364 591.822 157.307 592.014 157.181L592.003 157.193ZM177.954 147.954C180.525 144.234 183.241 140.536 186.015 136.963C186.398 136.463 186.308 135.757 185.823 135.37C185.327 134.984 184.628 135.075 184.245 135.564C181.449 139.171 178.71 142.902 176.117 146.657C175.756 147.169 175.88 147.886 176.398 148.239C176.59 148.375 176.816 148.443 177.041 148.443C177.402 148.443 177.751 148.273 177.966 147.954H177.954ZM188.822 133.402C192.125 129.295 195.608 125.244 199.171 121.353C199.599 120.887 199.565 120.17 199.103 119.749C198.641 119.316 197.931 119.351 197.514 119.817C193.929 123.742 190.411 127.827 187.074 131.968C186.68 132.458 186.759 133.174 187.232 133.573C187.446 133.743 187.694 133.823 187.942 133.823C188.269 133.823 188.596 133.687 188.822 133.402ZM574.856 133.049C575.34 132.651 575.408 131.934 575.014 131.445C574.055 130.262 573.086 129.079 572.105 127.918C571.699 127.44 570.989 127.383 570.515 127.781C570.042 128.191 569.986 128.908 570.38 129.386C571.35 130.546 572.319 131.707 573.266 132.879C573.492 133.152 573.819 133.3 574.146 133.3C574.394 133.3 574.653 133.22 574.856 133.049ZM562.951 119.26C563.402 118.827 563.425 118.11 562.996 117.655C559.366 113.787 555.567 109.964 551.689 106.323C551.238 105.891 550.517 105.925 550.099 106.38C549.671 106.835 549.705 107.563 550.156 107.984C554 111.591 557.765 115.38 561.362 119.214C561.587 119.453 561.88 119.567 562.184 119.567C562.466 119.567 562.737 119.464 562.962 119.26H562.951ZM208.629 111.58C209.711 110.521 210.794 109.475 211.898 108.439C212.349 108.007 212.372 107.29 211.955 106.835C211.526 106.38 210.816 106.357 210.365 106.778C209.26 107.825 208.156 108.883 207.073 109.953C206.622 110.385 206.611 111.113 207.051 111.557C207.276 111.784 207.569 111.898 207.863 111.898C208.156 111.898 208.426 111.796 208.652 111.58H208.629ZM548.408 104.833C548.826 104.366 548.78 103.649 548.318 103.228C544.948 100.168 541.441 97.164 537.913 94.2968C537.428 93.8986 536.718 93.9783 536.323 94.4675C535.929 94.9568 536.008 95.6736 536.492 96.0718C539.998 98.9162 543.471 101.897 546.808 104.924C547.022 105.117 547.292 105.219 547.563 105.219C547.867 105.219 548.183 105.094 548.397 104.844L548.408 104.833ZM223.758 97.915C227.23 95.0364 230.815 92.2033 234.434 89.5182C234.93 89.1427 235.043 88.4373 234.671 87.9253C234.299 87.4247 233.6 87.3109 233.092 87.6864C229.451 90.3943 225.821 93.2501 222.326 96.1514C221.841 96.5496 221.774 97.2664 222.168 97.7557C222.394 98.0287 222.71 98.1653 223.036 98.1653C223.284 98.1653 223.544 98.0856 223.747 97.9036L223.758 97.915ZM238.086 86.8558C242.359 83.7952 246.789 80.837 251.242 78.0608C251.772 77.7309 251.941 77.0255 251.614 76.4907C251.288 75.956 250.589 75.7853 250.059 76.1153C245.561 78.9142 241.096 81.9065 236.779 84.9899C236.271 85.354 236.147 86.0594 236.508 86.5714C236.722 86.8899 237.072 87.0492 237.433 87.0492C237.658 87.0492 237.883 86.981 238.086 86.8444V86.8558ZM525.456 86.1845C525.817 85.6725 525.693 84.9557 525.185 84.603C523.945 83.7156 522.694 82.8509 521.431 81.9862C520.913 81.6334 520.214 81.77 519.864 82.2934C519.515 82.8167 519.65 83.5222 520.169 83.8749C521.42 84.7282 522.66 85.5929 523.889 86.469C524.08 86.6055 524.317 86.6738 524.543 86.6738C524.892 86.6738 525.242 86.5031 525.467 86.1959L525.456 86.1845ZM510.293 76.1153C510.609 75.5805 510.44 74.8751 509.91 74.5565C505.367 71.8031 500.688 69.1635 495.987 66.7059C495.435 66.4101 494.758 66.6376 494.465 67.1951C494.184 67.7526 494.398 68.4353 494.95 68.7311C499.606 71.166 504.251 73.7828 508.749 76.5135C508.929 76.6273 509.132 76.6728 509.324 76.6728C509.707 76.6728 510.079 76.4793 510.293 76.1266V76.1153ZM262.933 71.2115C264.252 70.4833 265.571 69.7779 266.901 69.0725C267.454 68.788 267.668 68.094 267.375 67.5365C267.093 66.9789 266.405 66.7628 265.853 67.0586C264.511 67.764 263.17 68.4808 261.839 69.209C261.287 69.5048 261.095 70.1988 261.388 70.7564C261.591 71.1318 261.975 71.348 262.381 71.348C262.561 71.348 262.753 71.3025 262.922 71.2115H262.933ZM492.414 66.1598C492.695 65.5909 492.459 64.9196 491.906 64.6351C487.837 62.5985 483.654 60.6643 479.472 58.8666C478.908 58.6277 478.243 58.8894 477.995 59.4697C477.747 60.0499 478.017 60.7212 478.592 60.9601C482.73 62.7464 486.867 64.6693 490.903 66.6831C491.061 66.7628 491.23 66.7969 491.399 66.7969C491.816 66.7969 492.211 66.5693 492.414 66.1598ZM281.128 62.1776C285.232 60.3457 289.437 58.6049 293.63 57.0121C294.217 56.7845 294.51 56.136 294.284 55.5443C294.059 54.9527 293.416 54.6569 292.83 54.8844C288.591 56.5001 284.352 58.2522 280.215 60.1068C279.651 60.3571 279.392 61.0284 279.64 61.6087C279.832 62.0296 280.238 62.2913 280.677 62.2913C280.824 62.2913 280.982 62.2572 281.128 62.1889V62.1776ZM297.858 55.4419C302.796 53.667 307.857 52.0173 312.896 50.5609C313.494 50.3902 313.843 49.7531 313.674 49.1501C313.505 48.5471 312.874 48.1943 312.276 48.365C307.192 49.8327 302.085 51.4939 297.102 53.2916C296.516 53.5077 296.212 54.1563 296.415 54.7479C296.584 55.2144 297.012 55.4988 297.475 55.4988C297.599 55.4988 297.723 55.4761 297.858 55.4306V55.4419ZM465.29 54.4635C465.493 53.8718 465.188 53.2233 464.602 53.0071C463.17 52.4951 461.727 51.9945 460.273 51.5053C459.687 51.3005 459.044 51.6304 458.853 52.2221C458.661 52.8137 458.977 53.4622 459.563 53.6556C460.995 54.1335 462.426 54.6341 463.847 55.1348C463.971 55.1803 464.095 55.203 464.219 55.203C464.681 55.203 465.121 54.9072 465.279 54.4407L465.29 54.4635ZM447.997 48.9111C448.166 48.3081 447.805 47.6823 447.207 47.5117C442.101 46.1122 436.892 44.8493 431.706 43.7798C431.086 43.6546 430.5 44.0529 430.376 44.6672C430.252 45.2816 430.647 45.8847 431.256 46.0098C436.396 47.0679 441.559 48.3195 446.621 49.7076C446.723 49.7303 446.824 49.7531 446.914 49.7531C447.41 49.7531 447.861 49.4231 447.997 48.9111ZM326.007 47.159C327.473 46.8176 328.938 46.4991 330.415 46.1919C331.024 46.0667 331.419 45.4637 331.283 44.8493C331.159 44.2349 330.551 43.8367 329.953 43.9732C328.465 44.2918 326.977 44.6104 325.5 44.9517C324.891 45.0882 324.508 45.7026 324.655 46.317C324.779 46.8404 325.241 47.2045 325.748 47.2045C325.827 47.2045 325.917 47.2045 325.996 47.1817L326.007 47.159ZM428.133 44.2349C428.246 43.6205 427.84 43.0289 427.231 42.9037C422.778 42.0731 418.235 41.345 413.737 40.7533C413.117 40.6623 412.553 41.106 412.474 41.7318C412.395 42.3576 412.824 42.9265 413.444 43.0061C417.908 43.5864 422.406 44.3032 426.814 45.1337C426.882 45.1451 426.949 45.1565 427.017 45.1565C427.547 45.1565 428.02 44.7696 428.122 44.2235L428.133 44.2349ZM345.961 43.4385C350.403 42.8013 354.924 42.2779 359.41 41.8797C360.03 41.8228 360.493 41.2767 360.436 40.6509C360.38 40.0251 359.839 39.5587 359.219 39.6155C354.698 40.0138 350.132 40.5371 345.646 41.1857C345.026 41.2767 344.597 41.8456 344.687 42.4714C344.766 43.0402 345.251 43.4498 345.803 43.4498C345.86 43.4498 345.905 43.4498 345.961 43.4498V43.4385ZM363.908 41.527C369.128 41.1629 374.438 40.9581 379.691 40.924C380.311 40.924 380.819 40.412 380.807 39.7748C380.807 39.1491 380.3 38.6484 379.68 38.6484C374.381 38.6826 369.015 38.8874 363.751 39.2515C363.131 39.297 362.657 39.8431 362.702 40.4689C362.747 41.0719 363.243 41.527 363.83 41.527C363.852 41.527 363.886 41.527 363.908 41.527ZM398.935 40.412C398.98 39.7862 398.506 39.2401 397.886 39.206C396.376 39.1036 394.854 39.0239 393.343 38.9443C392.723 38.9101 392.193 39.3994 392.16 40.0251C392.126 40.6509 392.61 41.1857 393.231 41.2198C394.741 41.2881 396.241 41.3791 397.74 41.4815C397.762 41.4815 397.785 41.4815 397.819 41.4815C398.405 41.4815 398.901 41.015 398.946 40.4234L398.935 40.412Z" fill="#D1D1D1"/>
<defs>
<radialGradient id="paint0_radial_40000378_5716" cx="0" cy="0" r="1" gradientUnits="userSpaceOnUse" gradientTransform="translate(380.786 300.685) scale(89.7022 90.5325)">
<stop stop-color="white" stop-opacity="0"/>
<stop offset="0.38" stop-color="white" stop-opacity="0"/>
<stop offset="0.47" stop-color="#FDFDFD" stop-opacity="0.02"/>
<stop offset="0.56" stop-color="#F9F9F9" stop-opacity="0.08"/>
<stop offset="0.65" stop-color="#F2F2F2" stop-opacity="0.19"/>
<stop offset="0.74" stop-color="#E8E8E8" stop-opacity="0.34"/>
<stop offset="0.83" stop-color="#DCDCDC" stop-opacity="0.53"/>
<stop offset="0.92" stop-color="#CCCCCC" stop-opacity="0.76"/>
<stop offset="1" stop-color="#BDBDBD"/>
</radialGradient>
<radialGradient id="paint1_radial_40000378_5716" cx="0" cy="0" r="1" gradientUnits="userSpaceOnUse" gradientTransform="translate(380.786 300.686) scale(34.2823 34.5996)">
<stop stop-color="white" stop-opacity="0"/>
<stop offset="0.38" stop-color="white" stop-opacity="0"/>
<stop offset="0.47" stop-color="#FDFDFD" stop-opacity="0.02"/>
<stop offset="0.56" stop-color="#F9F9F9" stop-opacity="0.08"/>
<stop offset="0.65" stop-color="#F2F2F2" stop-opacity="0.19"/>
<stop offset="0.74" stop-color="#E8E8E8" stop-opacity="0.34"/>
<stop offset="0.83" stop-color="#DCDCDC" stop-opacity="0.53"/>
<stop offset="0.92" stop-color="#CCCCCC" stop-opacity="0.76"/>
<stop offset="1" stop-color="#BDBDBD"/>
</radialGradient>
<linearGradient id="paint2_linear_40000378_5716" x1="457.196" y1="156.303" x2="592.183" y2="156.303" gradientUnits="userSpaceOnUse">
<stop stop-color="#C7C7C7" stop-opacity="0.88"/>
<stop offset="0.27" stop-color="#CACACA" stop-opacity="0.9"/>
<stop offset="0.68" stop-color="#D5D5D5" stop-opacity="0.95"/>
<stop offset="1" stop-color="#E0E0E0"/>
</linearGradient>
<linearGradient id="paint3_linear_40000378_5716" x1="135.522" y1="282.369" x2="223.465" y2="282.369" gradientUnits="userSpaceOnUse">
<stop stop-color="#C7C7C7" stop-opacity="0.88"/>
<stop offset="0.27" stop-color="#CACACA" stop-opacity="0.9"/>
<stop offset="0.68" stop-color="#D5D5D5" stop-opacity="0.95"/>
<stop offset="1" stop-color="#E0E0E0"/>
</linearGradient>
<linearGradient id="paint4_linear_40000378_5716" x1="163.277" y1="282.369" x2="195.71" y2="282.369" gradientUnits="userSpaceOnUse">
<stop stop-color="#C7C7C7" stop-opacity="0.88"/>
<stop offset="0.27" stop-color="#CACACA" stop-opacity="0.9"/>
<stop offset="0.68" stop-color="#D5D5D5" stop-opacity="0.95"/>
<stop offset="1" stop-color="#E0E0E0"/>
</linearGradient>
<linearGradient id="paint5_linear_40000378_5716" x1="159.308" y1="373.595" x2="609.488" y2="373.595" gradientUnits="userSpaceOnUse">
<stop stop-color="#E0E0E0" stop-opacity="0.2"/>
<stop offset="0.13" stop-color="#DBDBDB" stop-opacity="0.33"/>
<stop offset="0.41" stop-color="#D2D2D2" stop-opacity="0.57"/>
<stop offset="0.66" stop-color="#CCCCCC" stop-opacity="0.74"/>
<stop offset="0.86" stop-color="#C8C8C8" stop-opacity="0.85"/>
<stop offset="1" stop-color="#C7C7C7" stop-opacity="0.88"/>
</linearGradient>
<linearGradient id="paint6_linear_40000378_5716" x1="165.239" y1="148.711" x2="378.812" y2="148.711" gradientUnits="userSpaceOnUse">
<stop stop-color="#C7C7C7" stop-opacity="0.88"/>
<stop offset="0.14" stop-color="#C8C8C8" stop-opacity="0.85"/>
<stop offset="0.34" stop-color="#CCCCCC" stop-opacity="0.74"/>
<stop offset="0.59" stop-color="#D2D2D2" stop-opacity="0.57"/>
<stop offset="0.87" stop-color="#DBDBDB" stop-opacity="0.33"/>
<stop offset="1" stop-color="#E0E0E0" stop-opacity="0.2"/>
</linearGradient>
<radialGradient id="paint7_radial_40000378_5716" cx="0" cy="0" r="1" gradientUnits="userSpaceOnUse" gradientTransform="translate(76.4828 378.234) rotate(180) scale(5.42249 5.47268)">
<stop stop-color="#C7C7C7" stop-opacity="0.88"/>
<stop offset="0.14" stop-color="#C8C8C8" stop-opacity="0.85"/>
<stop offset="0.34" stop-color="#CCCCCC" stop-opacity="0.74"/>
<stop offset="0.59" stop-color="#D2D2D2" stop-opacity="0.57"/>
<stop offset="0.87" stop-color="#DBDBDB" stop-opacity="0.33"/>
<stop offset="1" stop-color="#E0E0E0" stop-opacity="0.2"/>
</radialGradient>
<radialGradient id="paint8_radial_40000378_5716" cx="0" cy="0" r="1" gradientUnits="userSpaceOnUse" gradientTransform="translate(57.431 388.18) scale(5.42249 5.47268)">
<stop stop-color="#C7C7C7" stop-opacity="0.88"/>
<stop offset="0.14" stop-color="#C8C8C8" stop-opacity="0.85"/>
<stop offset="0.34" stop-color="#CCCCCC" stop-opacity="0.74"/>
<stop offset="0.59" stop-color="#D2D2D2" stop-opacity="0.57"/>
<stop offset="0.87" stop-color="#DBDBDB" stop-opacity="0.33"/>
<stop offset="1" stop-color="#E0E0E0" stop-opacity="0.2"/>
</radialGradient>
<radialGradient id="paint9_radial_40000378_5716" cx="0" cy="0" r="1" gradientUnits="userSpaceOnUse" gradientTransform="translate(34.0951 398.121) scale(5.42249 5.47268)">
<stop stop-color="#C7C7C7" stop-opacity="0.88"/>
<stop offset="0.14" stop-color="#C8C8C8" stop-opacity="0.85"/>
<stop offset="0.34" stop-color="#CCCCCC" stop-opacity="0.74"/>
<stop offset="0.59" stop-color="#D2D2D2" stop-opacity="0.57"/>
<stop offset="0.87" stop-color="#DBDBDB" stop-opacity="0.33"/>
<stop offset="1" stop-color="#E0E0E0" stop-opacity="0.2"/>
</radialGradient>
<radialGradient id="paint10_radial_40000378_5716" cx="0" cy="0" r="1" gradientUnits="userSpaceOnUse" gradientTransform="translate(5.84411 408.078) scale(5.42249 5.47268)">
<stop stop-color="#C7C7C7" stop-opacity="0.88"/>
<stop offset="0.14" stop-color="#C8C8C8" stop-opacity="0.85"/>
<stop offset="0.34" stop-color="#CCCCCC" stop-opacity="0.74"/>
<stop offset="0.59" stop-color="#D2D2D2" stop-opacity="0.57"/>
<stop offset="0.87" stop-color="#DBDBDB" stop-opacity="0.33"/>
<stop offset="1" stop-color="#E0E0E0" stop-opacity="0.2"/>
</radialGradient>
</defs>
</svg>
