<svg width="56" height="56" viewBox="0 0 56 56" fill="none" xmlns="http://www.w3.org/2000/svg">
<path d="M32.9999 4.125C34.8303 4.125 36.519 5.0918 37.4471 6.67734L65.2909 54.1148C66.2319 55.7133 66.2319 57.6855 65.3167 59.284C64.4014 60.8824 62.687 61.875 60.8436 61.875H5.15613C3.31277 61.875 1.59832 60.8824 0.683084 59.284C-0.23215 57.6855 -0.21926 55.7004 0.708865 54.1148L28.5526 6.67734C29.4807 5.0918 31.1694 4.125 32.9999 4.125ZM32.9999 20.625C31.2854 20.625 29.9061 22.0043 29.9061 23.7188V38.1562C29.9061 39.8707 31.2854 41.25 32.9999 41.25C34.7143 41.25 36.0936 39.8707 36.0936 38.1562V23.7188C36.0936 22.0043 34.7143 20.625 32.9999 20.625ZM37.1249 49.5C37.1249 48.406 36.6903 47.3568 35.9167 46.5832C35.1431 45.8096 34.0939 45.375 32.9999 45.375C31.9059 45.375 30.8567 45.8096 30.0831 46.5832C29.3095 47.3568 28.8749 48.406 28.8749 49.5C28.8749 50.594 29.3095 51.6432 30.0831 52.4168C30.8567 53.1904 31.9059 53.625 32.9999 53.625C34.0939 53.625 35.1431 53.1904 35.9167 52.4168C36.6903 51.6432 37.1249 50.594 37.1249 49.5Z" fill="url(#paint0_linear_40000804_2979)" fill-opacity="0.6"/>
<defs>
<linearGradient id="paint0_linear_40000804_2979" x1="33.0023" y1="4.125" x2="33.0023" y2="61.875" gradientUnits="userSpaceOnUse">
<stop stop-color="#70CBCF"/>
<stop offset="0.25" stop-color="#E7E62A"/>
<stop offset="0.5" stop-color="#E46356"/>
<stop offset="0.75" stop-color="#B978B2"/>
</linearGradient>
</defs>
</svg>
