<svg width="46" height="56" viewBox="0 0 46 56" fill="none" xmlns="http://www.w3.org/2000/svg">
<path d="M45.5559 45.8153C45.9451 41.97 47.6112 38.4328 49.2567 34.9113C49.6923 33.9879 50.1278 33.0644 50.5383 32.134C52.1643 28.4508 52.7239 24.2654 51.9005 20.017C49.7526 8.93495 39.038 1.69948 27.9673 3.84521C16.8966 5.99093 9.66117 16.7055 11.8069 27.7762C12.6303 32.0245 14.7153 35.7092 17.5974 38.5068C18.3258 39.2164 19.0748 39.9103 19.8238 40.6042C22.6772 43.2537 25.5464 45.9237 27.3304 49.3359L45.5537 45.8039L45.5559 45.8153ZM39.2699 62.16C44.3041 61.1842 47.5913 56.3165 46.6156 51.2823L46.2624 49.4599L28.039 52.992L28.3922 54.8143C29.3679 59.8485 34.2357 63.1357 39.2699 62.16ZM22.7409 25.6569C22.9352 26.6592 22.2741 27.6382 21.2718 27.8325C20.2695 28.0267 19.2905 27.3656 19.0962 26.3633C17.7298 19.3132 22.33 12.501 29.3802 11.1346C30.3824 10.9403 31.3614 11.6014 31.5557 12.6037C31.75 13.606 31.0888 14.585 30.0866 14.7792C25.0524 15.755 21.7652 20.6227 22.7409 25.6569Z" fill="url(#paint0_linear_40000804_2963)" fill-opacity="0.6"/>
<defs>
<linearGradient id="paint0_linear_40000804_2963" x1="27.9673" y1="3.84521" x2="39.2699" y2="62.16" gradientUnits="userSpaceOnUse">
<stop stop-color="#70CBCF"/>
<stop offset="0.25" stop-color="#E7E62A"/>
<stop offset="0.5" stop-color="#E46356"/>
<stop offset="0.75" stop-color="#B978B2"/>
</linearGradient>
</defs>
</svg>
