<svg width="46" height="46" viewBox="0 0 46 46" fill="none" xmlns="http://www.w3.org/2000/svg">
<path d="M28 0C29.9359 0 31.5 1.56406 31.5 3.5V4.6375C41.7484 6.15781 49.8422 14.2625 51.3625 24.5H52.5C54.4359 24.5 56 26.0641 56 28C56 29.9359 54.4359 31.5 52.5 31.5H51.3625C49.8422 41.7484 41.7375 49.8422 31.5 51.3625V52.5C31.5 54.4359 29.9359 56 28 56C26.0641 56 24.5 54.4359 24.5 52.5V51.3625C14.2516 49.8422 6.15781 41.7484 4.6375 31.5H3.5C1.56406 31.5 0 29.9359 0 28C0 26.0641 1.56406 24.5 3.5 24.5H4.6375C6.15781 14.2516 14.2516 6.15781 24.5 4.6375V3.5C24.5 1.56406 26.0641 0 28 0ZM11.7469 31.5C13.1141 37.8766 18.1344 42.8859 24.5 44.2531V42C24.5 40.0641 26.0641 38.5 28 38.5C29.9359 38.5 31.5 40.0641 31.5 42V44.2531C37.8766 42.8859 42.8859 37.8656 44.2531 31.5H42C40.0641 31.5 38.5 29.9359 38.5 28C38.5 26.0641 40.0641 24.5 42 24.5H44.2531C42.8859 18.1234 37.8766 13.1141 31.5 11.7469V14C31.5 15.9359 29.9359 17.5 28 17.5C26.0641 17.5 24.5 15.9359 24.5 14V11.7469C18.1234 13.1141 13.1141 18.1234 11.7469 24.5H14C15.9359 24.5 17.5 26.0641 17.5 28C17.5 29.9359 15.9359 31.5 14 31.5H11.7469ZM28 24.5C28.9283 24.5 29.8185 24.8687 30.4749 25.5251C31.1313 26.1815 31.5 27.0717 31.5 28C31.5 28.9283 31.1313 29.8185 30.4749 30.4749C29.8185 31.1313 28.9283 31.5 28 31.5C27.0717 31.5 26.1815 31.1313 25.5251 30.4749C24.8687 29.8185 24.5 28.9283 24.5 28C24.5 27.0717 24.8687 26.1815 25.5251 25.5251C26.1815 24.8687 27.0717 24.5 28 24.5Z" fill="url(#paint0_linear_40000804_2955)" fill-opacity="0.6"/>
<defs>
<linearGradient id="paint0_linear_40000804_2955" x1="28" y1="0" x2="28" y2="56" gradientUnits="userSpaceOnUse">
<stop stop-color="#70CBCF"/>
<stop offset="0.25" stop-color="#E7E62A"/>
<stop offset="0.5" stop-color="#E46356"/>
<stop offset="0.75" stop-color="#B978B2"/>
</linearGradient>
</defs>
</svg>
