<svg width="48" height="48" viewBox="0 0 48 48" fill="none" xmlns="http://www.w3.org/2000/svg">
<path d="M45.8129 49.6129L49.7961 45.6297C50.8918 44.534 51.2785 42.9484 50.7887 41.4789C50.402 40.3316 49.8863 38.8363 49.2676 37.1219H62.9059C64.0145 37.1219 65.0457 36.5289 65.6 35.5621C66.1543 34.5953 66.1414 33.4094 65.5742 32.4554L58.8067 21.0472C57.1309 18.2242 54.1016 16.4969 50.8274 16.4969H40.2184C39.909 15.9812 39.5996 15.5043 39.2903 15.0402C28.7328 -0.531666 13.0063 -1.04729 3.62189 0.680054C2.12658 0.950758 0.966423 2.1238 0.682831 3.61912C-1.04451 13.0164 -0.515991 28.7301 15.043 39.2875C15.4942 39.5969 15.984 39.9062 16.4996 40.2156V50.8246C16.4996 54.0988 18.227 57.141 21.05 58.8039L32.4582 65.5715C33.4121 66.1386 34.5981 66.1515 35.5649 65.5972C36.5317 65.0429 37.1246 64.0246 37.1246 62.9031V49.0844C38.9422 49.716 40.5278 50.2316 41.7266 50.6183C43.1703 51.0824 44.743 50.6828 45.8258 49.6129H45.8129ZM16.4996 21.6531C15.1321 21.6531 13.8206 21.1099 12.8536 20.1429C11.8866 19.1759 11.3434 17.8644 11.3434 16.4969C11.3434 15.1293 11.8866 13.8178 12.8536 12.8508C13.8206 11.8838 15.1321 11.3406 16.4996 11.3406C17.8672 11.3406 19.1787 11.8838 20.1456 12.8508C21.1126 13.8178 21.6559 15.1293 21.6559 16.4969C21.6559 17.8644 21.1126 19.1759 20.1456 20.1429C19.1787 21.1099 17.8672 21.6531 16.4996 21.6531Z" fill="url(#paint0_linear_40000804_2975)" fill-opacity="0.6"/>
<defs>
<linearGradient id="paint0_linear_40000804_2975" x1="33.0061" y1="0" x2="33.0061" y2="66.005" gradientUnits="userSpaceOnUse">
<stop stop-color="#70CBCF"/>
<stop offset="0.25" stop-color="#E7E62A"/>
<stop offset="0.5" stop-color="#E46356"/>
<stop offset="0.75" stop-color="#B978B2"/>
</linearGradient>
</defs>
</svg>
