<svg width="50" height="51" viewBox="0 0 50 51" fill="none" xmlns="http://www.w3.org/2000/svg">
<path d="M39.777 57.6966C40.8273 58.8778 42.4778 59.3436 43.9449 58.7281C44.8285 58.3455 45.6954 57.9295 46.529 57.4637L47.4293 56.948C48.2629 56.4489 49.0798 55.8999 49.8634 55.3176C51.1304 54.3694 51.5472 52.7057 51.047 51.2085L49.4966 46.517C50.9637 44.7369 52.164 42.6907 52.9809 40.4947L57.8324 39.4798C59.3829 39.1638 60.6166 37.9659 60.7999 36.4021C60.9333 35.2875 61 34.1562 61 33.0083C61 31.8604 60.9333 30.7291 60.7999 29.6145C60.6166 28.0507 59.3662 26.8529 57.8324 26.5368L52.9809 25.5053C52.1474 23.2927 50.9637 21.2631 49.4966 19.483L51.047 14.7915C51.5472 13.2943 51.1304 11.6306 49.8634 10.6824C49.0798 10.1001 48.2629 9.55108 47.4293 9.03536L46.5457 8.53626C45.7121 8.07045 44.8452 7.65454 43.9449 7.2719C42.4945 6.65636 40.844 7.12218 39.777 8.30336L36.476 11.9966C35.3424 11.8136 34.1753 11.7138 32.9917 11.7138C31.808 11.7138 30.641 11.8136 29.5073 11.9966L26.2063 8.30336C25.156 7.12218 23.5055 6.65636 22.0384 7.2719C21.1548 7.65454 20.2879 8.07045 19.4376 8.53626L18.5707 9.03536C17.7205 9.53445 16.9202 10.0834 16.1366 10.6824C14.8696 11.6306 14.4528 13.2943 14.953 14.7915L16.5034 19.483C15.0363 21.2631 13.836 23.3093 13.0191 25.5053C13.0191 25.5053 9.71807 26.1874 8.16761 26.5035C6.61715 26.8196 5.38344 28.0174 5.20005 29.5812C5.06668 30.6959 5 31.8271 5 32.975C5 34.123 5.06668 35.2542 5.20005 36.3689C5.38344 37.9327 6.63382 39.1305 8.16761 39.4466L13.0191 40.4614C13.8526 42.674 15.0363 44.7037 16.5034 46.4837L14.953 51.1752C14.4528 52.6725 14.8696 54.3361 16.1366 55.2844C16.9202 55.8666 17.7205 56.4156 18.5707 56.9147L19.471 57.4305C20.3046 57.8963 21.1715 58.3122 22.0551 58.6948C23.5055 59.3104 25.156 58.8445 26.223 57.6634L29.524 53.9701C30.6576 54.1531 31.8247 54.2529 33.0083 54.2529C34.192 54.2529 35.359 54.1531 36.4927 53.9701L39.7937 57.6634L39.777 57.6966ZM32.9917 25.0062C34.0425 25.0062 35.0831 25.2128 36.054 25.6141C37.0249 26.0154 37.9071 26.6036 38.6502 27.3451C39.3933 28.0866 39.9827 28.9669 40.3849 29.9358C40.7871 30.9046 40.994 31.943 40.994 32.9917C40.994 34.0403 40.7871 35.0787 40.3849 36.0476C39.9827 37.0164 39.3933 37.8967 38.6502 38.6382C37.9071 39.3798 37.0249 39.968 36.054 40.3693C35.0831 40.7706 34.0425 40.9771 32.9917 40.9771C31.9408 40.9771 30.9002 40.7706 29.9293 40.3693C28.9584 39.968 28.0762 39.3798 27.3331 38.6382C26.59 37.8967 26.0006 37.0164 25.5984 36.0476C25.1963 35.0787 24.9893 34.0403 24.9893 32.9917C24.9893 31.943 25.1963 30.9046 25.5984 29.9358C26.0006 28.9669 26.59 28.0866 27.3331 27.3451C28.0762 26.6036 28.9584 26.0154 29.9293 25.6141C30.9002 25.2128 31.9408 25.0062 32.9917 25.0062Z" fill="url(#paint0_linear_40000804_2968)" fill-opacity="0.6"/>
<defs>
<linearGradient id="paint0_linear_40000804_2968" x1="33" y1="7" x2="33" y2="59" gradientUnits="userSpaceOnUse">
<stop stop-color="#70CBCF"/>
<stop offset="0.25" stop-color="#E7E62A"/>
<stop offset="0.5" stop-color="#E46356"/>
<stop offset="0.75" stop-color="#B978B2"/>
</linearGradient>
</defs>
</svg>
