<svg width="40" height="49" viewBox="0 0 40 49" fill="none" xmlns="http://www.w3.org/2000/svg">
<path d="M37.1428 2.07422C36.5321 0.806641 35.2415 0 33.8241 0C32.4067 0 31.1276 0.806641 30.5053 2.07422L23.0958 17.3197L6.54811 19.7627C5.16529 19.9701 4.01295 20.9381 3.58658 22.2633C3.16022 23.5885 3.50592 25.052 4.49693 26.0314L16.5044 37.9121L13.6696 54.7018C13.4391 56.0846 14.0153 57.4904 15.1561 58.3086C16.2969 59.1268 17.8065 59.2305 19.051 58.5736L33.8356 50.6801L48.6202 58.5736C49.8647 59.2305 51.3743 59.1383 52.5151 58.3086C53.6559 57.4789 54.2321 56.0846 54.0016 54.7018L51.1553 37.9121L63.1628 26.0314C64.1538 25.052 64.511 23.5885 64.0731 22.2633C63.6352 20.9381 62.4944 19.9701 61.1116 19.7627L44.5524 17.3197L37.1428 2.07422Z" fill="url(#paint0_linear_40000804_2989)" fill-opacity="0.6"/>
<path d="M16.6857 29.5672C15.5032 29.4249 14.5298 28.4664 14.4016 27.2141C14.2567 25.766 15.2953 24.4736 16.7231 24.3269L25.2071 23.458L31.9515 13.9551C32.7885 12.7765 34.4136 12.5075 35.577 13.3615C36.7433 14.2132 37.0092 15.8616 36.1718 17.0429L28.7492 27.5046C28.315 28.1159 27.6443 28.5077 26.9053 28.5833L17.2558 29.5721C17.0625 29.5913 16.8742 29.5899 16.6857 29.5672Z" fill="white"/>
<defs>
<linearGradient id="paint0_linear_40000804_2989" x1="33.8324" y1="0" x2="33.8324" y2="59.0066" gradientUnits="userSpaceOnUse">
<stop stop-color="#70CBCF"/>
<stop offset="0.25" stop-color="#E7E62A"/>
<stop offset="0.5" stop-color="#E46356"/>
<stop offset="0.75" stop-color="#B978B2"/>
</linearGradient>
</defs>
</svg>
