<svg width="47" height="42" viewBox="0 0 47 42" fill="none" xmlns="http://www.w3.org/2000/svg">
<g clip-path="url(#clip0_40000804_2985)">
<path d="M46.7188 0H20.9062C17.8525 0 15.3635 2.51211 15.4787 5.5543C15.5018 6.16504 15.5248 6.77578 15.5594 7.375H3.39062C1.85801 7.375 0.625 8.60801 0.625 10.1406C0.625 20.8113 4.48535 28.2324 9.6709 33.2682C14.7758 38.2348 20.9984 40.7354 25.5848 42.0029C28.2812 42.752 30.125 44.999 30.125 47.2576C30.125 49.666 28.166 51.625 25.7576 51.625H22.75C20.7104 51.625 19.0625 53.2729 19.0625 55.3125C19.0625 57.3521 20.7104 59 22.75 59H44.875C46.9146 59 48.5625 57.3521 48.5625 55.3125C48.5625 53.2729 46.9146 51.625 44.875 51.625H41.8674C39.459 51.625 37.5 49.666 37.5 47.2576C37.5 44.999 39.3322 42.7404 42.0402 42.0029C46.6381 40.7354 52.8607 38.2348 57.9656 33.2682C63.1396 28.2324 67 20.8113 67 10.1406C67 8.60801 65.767 7.375 64.2344 7.375H52.0656C52.1002 6.77578 52.1232 6.17656 52.1463 5.5543C52.2615 2.51211 49.7725 0 46.7188 0ZM6.25996 12.9062H15.9857C17.0344 23.2889 19.3506 30.226 21.9664 34.8699C19.0971 33.6023 16.1125 31.8162 13.5312 29.3041C9.84375 25.7203 6.84766 20.5463 6.27148 12.9062H6.25996ZM54.1053 29.3041C51.524 31.8162 48.5395 33.6023 45.6701 34.8699C48.2859 30.226 50.6021 23.2889 51.6508 12.9062H61.3766C60.7889 20.5463 57.7928 25.7203 54.1168 29.3041H54.1053Z" fill="url(#paint0_linear_40000804_2985)" fill-opacity="0.6"/>
<path d="M23.2118 6.48803C22.9766 6.36555 22.7023 6.34153 22.4494 6.42126C22.1964 6.50099 21.9855 6.67793 21.863 6.91317C21.7405 7.14841 21.7165 7.42267 21.7963 7.67562C21.876 7.92857 22.0529 8.13949 22.2882 8.26197C22.6466 8.44687 23.007 8.62474 23.3659 8.7987C26.6459 10.2915 29.7955 11.9303 33.8125 12.215C37.8295 11.9303 40.9791 10.2915 44.2591 8.7987C44.618 8.62474 44.9784 8.44687 45.3368 8.26197C45.5721 8.13949 45.749 7.92857 45.8287 7.67562C45.9085 7.42267 45.8845 7.14841 45.762 6.91317C45.6395 6.67793 45.4286 6.50099 45.1756 6.42126C44.9227 6.34153 44.6484 6.36555 44.4132 6.48803C44.093 6.65321 43.7319 6.8318 43.3876 6.99857C40.2826 8.44911 36.8886 10.0262 33.8125 10.215C30.7364 10.0262 27.3424 8.44911 24.2374 6.99857C23.8931 6.8318 23.532 6.65321 23.2118 6.48803Z" fill="white"/>
</g>
<defs>
<linearGradient id="paint0_linear_40000804_2985" x1="33.8125" y1="0" x2="33.8125" y2="59" gradientUnits="userSpaceOnUse">
<stop stop-color="#70CBCF"/>
<stop offset="0.25" stop-color="#E7E62A"/>
<stop offset="0.5" stop-color="#E46356"/>
<stop offset="0.75" stop-color="#B978B2"/>
</linearGradient>
<clipPath id="clip0_40000804_2985">
<rect width="66.375" height="59" fill="white" transform="translate(0.625)"/>
</clipPath>
</defs>
</svg>
