<svg width="46" height="46" viewBox="0 0 46 46" fill="none" xmlns="http://www.w3.org/2000/svg">
<path d="M49 28C49 25.2422 48.4568 22.5115 47.4015 19.9636C46.3461 17.4158 44.7993 15.1008 42.8492 13.1508C40.8992 11.2007 38.5842 9.65388 36.0364 8.59853C33.4885 7.54318 30.7578 7 28 7C25.2422 7 22.5115 7.54318 19.9636 8.59853C17.4158 9.65388 15.1008 11.2007 13.1508 13.1508C11.2007 15.1008 9.65388 17.4158 8.59853 19.9636C7.54318 22.5115 7 25.2422 7 28C7 30.7578 7.54318 33.4885 8.59853 36.0364C9.65388 38.5842 11.2007 40.8992 13.1508 42.8492C15.1008 44.7993 17.4158 46.3461 19.9636 47.4015C22.5115 48.4568 25.2422 49 28 49C30.7578 49 33.4885 48.4568 36.0364 47.4015C38.5842 46.3461 40.8992 44.7993 42.8492 42.8492C44.7993 40.8992 46.3461 38.5842 47.4015 36.0364C48.4568 33.4885 49 30.7578 49 28ZM0 28C0 20.5739 2.94999 13.452 8.20101 8.20101C13.452 2.94999 20.5739 0 28 0C35.4261 0 42.548 2.94999 47.799 8.20101C53.05 13.452 56 20.5739 56 28C56 35.4261 53.05 42.548 47.799 47.799C42.548 53.05 35.4261 56 28 56C20.5739 56 13.452 53.05 8.20101 47.799C2.94999 42.548 0 35.4261 0 28ZM28 36.75C30.3206 36.75 32.5462 35.8281 34.1872 34.1872C35.8281 32.5462 36.75 30.3206 36.75 28C36.75 25.6794 35.8281 23.4538 34.1872 21.8128C32.5462 20.1719 30.3206 19.25 28 19.25C25.6794 19.25 23.4538 20.1719 21.8128 21.8128C20.1719 23.4538 19.25 25.6794 19.25 28C19.25 30.3206 20.1719 32.5462 21.8128 34.1872C23.4538 35.8281 25.6794 36.75 28 36.75ZM28 12.25C32.1772 12.25 36.1832 13.9094 39.1369 16.8631C42.0906 19.8168 43.75 23.8228 43.75 28C43.75 32.1772 42.0906 36.1832 39.1369 39.1369C36.1832 42.0906 32.1772 43.75 28 43.75C23.8228 43.75 19.8168 42.0906 16.8631 39.1369C13.9094 36.1832 12.25 32.1772 12.25 28C12.25 23.8228 13.9094 19.8168 16.8631 16.8631C19.8168 13.9094 23.8228 12.25 28 12.25ZM24.5 28C24.5 27.0717 24.8687 26.1815 25.5251 25.5251C26.1815 24.8687 27.0717 24.5 28 24.5C28.9283 24.5 29.8185 24.8687 30.4749 25.5251C31.1313 26.1815 31.5 27.0717 31.5 28C31.5 28.9283 31.1313 29.8185 30.4749 30.4749C29.8185 31.1313 28.9283 31.5 28 31.5C27.0717 31.5 26.1815 31.1313 25.5251 30.4749C24.8687 29.8185 24.5 28.9283 24.5 28Z" fill="url(#paint0_linear_40000804_2959)" fill-opacity="0.6"/>
<defs>
<linearGradient id="paint0_linear_40000804_2959" x1="28" y1="0" x2="28" y2="56" gradientUnits="userSpaceOnUse">
<stop stop-color="#70CBCF"/>
<stop offset="0.25" stop-color="#E7E62A"/>
<stop offset="0.5" stop-color="#E46356"/>
<stop offset="0.75" stop-color="#B978B2"/>
</linearGradient>
</defs>
</svg>
