<svg width="32" height="33" viewBox="0 0 32 33" fill="none" xmlns="http://www.w3.org/2000/svg">
<path d="M22.6811 15.9063L9.19045 15.9834C9.15535 15.9836 9.13358 16.0218 9.15134 16.0521L15.9634 27.6967C15.9811 27.727 16.0251 27.7268 16.0424 27.6962L22.7209 15.9744C22.7384 15.944 22.7162 15.9061 22.6811 15.9063Z" fill="#E7E62A"/>
<path d="M10.4116 14.1563L21.42 14.0934C21.4551 14.0932 21.4769 14.0551 21.4591 14.0247L15.9004 4.52259C15.8828 4.4923 15.8388 4.4925 15.8214 4.52299L10.3718 14.088C10.3544 14.1186 10.3765 14.1564 10.4116 14.1563Z" fill="#70CBCF"/>
<path d="M8.20128 18.0343C8.18363 18.004 8.1397 18.0042 8.12225 18.0348L2.67258 27.5998C2.65513 27.6302 2.67739 27.6682 2.71249 27.668L13.7208 27.605C13.756 27.6048 13.7777 27.5666 13.7601 27.5363L8.20128 18.0343Z" fill="#B978B2"/>
<path d="M29.3268 27.4582L23.7681 17.9562C23.7504 17.9259 23.7065 17.9261 23.6891 17.9567L18.2394 27.5217C18.2221 27.5522 18.2442 27.5901 18.2793 27.5899L29.2877 27.5269C29.3228 27.5267 29.3446 27.4885 29.3268 27.4582Z" fill="#E46356"/>
</svg>
